<svg xmlns="http://www.w3.org/2000/svg" width="154" height="154" viewBox="0 0 154 154">
  <g id="_5estrelas" data-name="5estrelas" transform="translate(-1113 -7053)">
    <g id="stars" transform="translate(1132 7123)">
      <g id="star_1" data-name="star 1">
        <rect id="star_1-2" data-name="star 1" width="15" height="14" fill="none"/>
        <path id="Vector" d="M10.143,4.11l4.082.58a.9.9,0,0,1,.73.591.856.856,0,0,1-.224.9l-2.96,2.794.7,4.008a.858.858,0,0,1-.366.856.94.94,0,0,1-.957.063L7.5,12.025,3.854,13.9a.945.945,0,0,1-.96-.063.856.856,0,0,1-.364-.856l.7-4.008L.269,6.177a.856.856,0,0,1-.224-.9A.9.9,0,0,1,.776,4.69l4.078-.58L6.683.492a.923.923,0,0,1,1.633,0Z" fill="#ff6e1d"/>
      </g>
      <g id="star_2" data-name="star 2" transform="translate(25)">
        <rect id="star_2-2" data-name="star 2" width="15" height="14" fill="none"/>
        <path id="Vector-2" data-name="Vector" d="M10.143,4.11l4.082.58a.9.9,0,0,1,.73.591.856.856,0,0,1-.224.9l-2.96,2.794.7,4.008a.858.858,0,0,1-.366.856.94.94,0,0,1-.957.063L7.5,12.025,3.854,13.9a.945.945,0,0,1-.96-.063.856.856,0,0,1-.364-.856l.7-4.008L.269,6.177a.856.856,0,0,1-.224-.9A.9.9,0,0,1,.776,4.69l4.078-.58L6.683.492a.923.923,0,0,1,1.633,0Z" fill="#ff6e1d"/>
      </g>
      <g id="star_3" data-name="star 3" transform="translate(50)">
        <rect id="star_3-2" data-name="star 3" width="15" height="14" fill="none"/>
        <path id="Vector-3" data-name="Vector" d="M10.143,4.11l4.082.58a.9.9,0,0,1,.73.591.856.856,0,0,1-.224.9l-2.96,2.794.7,4.008a.858.858,0,0,1-.366.856.94.94,0,0,1-.957.063L7.5,12.025,3.854,13.9a.945.945,0,0,1-.96-.063.856.856,0,0,1-.364-.856l.7-4.008L.269,6.177a.856.856,0,0,1-.224-.9A.9.9,0,0,1,.776,4.69l4.078-.58L6.683.492a.923.923,0,0,1,1.633,0Z" fill="#ff6e1d"/>
      </g>
      <g id="star_4" data-name="star 4" transform="translate(75)">
        <rect id="star_4-2" data-name="star 4" width="15" height="14" fill="none"/>
        <path id="Vector-4" data-name="Vector" d="M10.143,4.11l4.082.58a.9.9,0,0,1,.73.591.856.856,0,0,1-.224.9l-2.96,2.794.7,4.008a.858.858,0,0,1-.366.856.94.94,0,0,1-.957.063L7.5,12.025,3.854,13.9a.945.945,0,0,1-.96-.063.856.856,0,0,1-.364-.856l.7-4.008L.269,6.177a.856.856,0,0,1-.224-.9A.9.9,0,0,1,.776,4.69l4.078-.58L6.683.492a.923.923,0,0,1,1.633,0Z" fill="#ff6e1d"/>
      </g>
      <g id="star_5" data-name="star 5" transform="translate(100)">
        <rect id="star_5-2" data-name="star 5" width="15" height="14" fill="none"/>
        <path id="Vector-5" data-name="Vector" d="M10.143,4.11l4.082.58a.9.9,0,0,1,.73.591.856.856,0,0,1-.224.9l-2.96,2.794.7,4.008a.858.858,0,0,1-.366.856.94.94,0,0,1-.957.063L7.5,12.025,3.854,13.9a.945.945,0,0,1-.96-.063.856.856,0,0,1-.364-.856l.7-4.008L.269,6.177a.856.856,0,0,1-.224-.9A.9.9,0,0,1,.776,4.69l4.078-.58L6.683.492a.923.923,0,0,1,1.633,0Z" fill="#ff6e1d"/>
      </g>
    </g>
    <rect id="Retângulo_55" data-name="Retângulo 55" width="154" height="154" transform="translate(1113 7053)" fill="none"/>
  </g>
</svg>
