<svg xmlns="http://www.w3.org/2000/svg" width="104" height="104" viewBox="0 0 104 104" fill="none"><path fill-rule="evenodd" clip-rule="evenodd" d="M33.925 19C14.025 19.8 14.025 48.0999 33.925 49H47.925C48.525 49 48.925 48.5999 48.925 48V34.3999V34C48.925 25.7 42.2249 19 33.925 19ZM46.925 34.3999V47H33.925C26.7249 47 20.925 41.2 20.925 34C21.7249 16.5 46.625 16.8999 46.925 34.3999ZM34.425 33.2002C38.525 33.1001 38.425 27.2002 34.425 27.1001C30.425 27.2002 30.425 33.1001 34.425 33.2002ZM37.925 34.5C39.125 34.5 40.125 35.4001 40.3249 36.6001L40.5091 37.9248L40.7031 39.3298C40.823 40.2034 40.925 40.9587 40.925 41H27.925L28.625 36.6001C28.825 35.4001 29.825 34.5 31.025 34.5H37.925ZM69.925 49H55.925C55.425 49 54.925 48.5 54.925 48V34C54.925 25.7 61.625 19 69.925 19C89.825 19.8 89.825 48.2 69.925 49ZM76.425 30.6001H63.425C62.125 30.7 62.125 32.6001 63.425 32.6001H76.425C77.7251 32.6001 77.7251 30.6001 76.425 30.6001ZM72.3249 37.3H63.425C62.125 37.3 62.125 39.3 63.425 39.3H72.3249C73.625 39.3 73.625 37.3 72.3249 37.3ZM75.3249 72.6001C75.125 71.4001 74.125 70.5 72.925 70.5H69.425H65.925C64.7249 70.5 63.7249 71.4001 63.5249 72.6001L62.8249 77H75.8249C76.0249 76.8999 75.3249 72.6001 75.3249 72.6001ZM69.425 69.2002C73.525 69.1001 73.425 63.2002 69.425 63.1001C65.425 63.2002 65.425 69.1001 69.425 69.2002ZM69.925 55H55.925C55.325 55 54.925 55.3999 54.925 56V69.6001V70C54.925 78.3 61.625 85 69.925 85C89.825 84.2 89.825 55.8999 69.925 55ZM69.925 83C62.625 83 56.625 76.8 56.925 69.5V57H69.925C87.125 57.8 87.125 82.3 69.925 83ZM28.125 72.1001C28.325 70.9001 29.325 70 30.525 70H37.3249C38.525 70 39.525 70.9001 39.7251 72.1001L40.425 76.5H27.425L28.125 72.1001ZM33.925 62.6001C29.825 62.7002 29.925 68.6001 33.925 68.7002C38.025 68.6001 38.025 62.7002 33.925 62.6001ZM34.3249 55H47.925C48.525 55 48.925 55.5 48.925 56V70C48.925 78.3 42.2249 85 33.925 85C14.025 84.1001 14.025 55.8 33.925 55H34.3249ZM20.925 70C21.625 87.2 46.2249 87.2 46.925 70V57H34.425H33.925C26.7249 57 20.925 62.8 20.925 70Z" fill="#233831"></path></svg>