<svg xmlns="http://www.w3.org/2000/svg" width="104" height="104" viewBox="0 0 104 104" fill="none"><path fill-rule="evenodd" clip-rule="evenodd" d="M78.157 67.082H87.187C89.396 67.082 91.187 68.873 91.187 71.082V85.864C91.187 88.073 89.396 89.864 87.187 89.864H17C14.791 89.864 13 88.073 13 85.864V71.082C13 68.873 14.791 67.082 17 67.082H26.03V43.923C26.03 37.858 30.965 32.923 37.03 32.923H38.529V27.5601C38.529 20.0831 44.616 14 52.098 14C55.708 14 59.113 15.41 61.684 17.972C64.247 20.511 65.659 23.9171 65.659 27.5601V32.923H67.157C73.222 32.923 78.157 37.858 78.157 43.923V67.082ZM52.098 16C45.719 16 40.529 21.1861 40.529 27.5601V32.923H63.659V27.5601C63.659 24.4541 62.457 21.553 60.274 19.39C58.078 17.203 55.176 16 52.098 16ZM37.03 34.923C32.067 34.923 28.03 38.96 28.03 43.923V67.082H76.157V43.923C76.157 38.96 72.12 34.923 67.157 34.923H37.03ZM29.233 79.2731H31.891H31.893C32.335 79.2731 32.693 78.915 32.693 78.473C32.693 78.031 32.334 77.673 31.893 77.673H29.236L31.115 75.7941C31.427 75.4811 31.428 74.9751 31.115 74.6631C30.802 74.3511 30.296 74.3511 29.984 74.6631L28.105 76.542V73.885C28.105 73.443 27.747 73.0851 27.305 73.0851C26.863 73.0851 26.505 73.444 26.505 73.885V76.543L24.625 74.6631C24.312 74.3511 23.806 74.3501 23.494 74.6631C23.182 74.9761 23.182 75.4821 23.494 75.7941L25.373 77.673H22.716C22.274 77.673 21.916 78.031 21.916 78.473C21.916 78.915 22.275 79.2731 22.716 79.2731H25.374L23.494 81.1531C23.182 81.4661 23.182 81.9721 23.494 82.2841C23.65 82.4401 23.854 82.5181 24.059 82.5181C24.264 82.5181 24.468 82.4401 24.624 82.2841L26.504 80.4041V83.062C26.504 83.504 26.862 83.8621 27.304 83.8621C27.746 83.8621 28.104 83.503 28.104 83.062V80.405L29.983 82.2841C30.139 82.4401 30.343 82.5181 30.548 82.5181C30.753 82.5181 30.957 82.4401 31.113 82.2841C31.425 81.9711 31.425 81.4651 31.113 81.1531L29.233 79.2731ZM45.76 79.2731H48.418H48.42C48.862 79.2731 49.22 78.915 49.22 78.473C49.22 78.031 48.861 77.673 48.42 77.673H45.763L47.642 75.7941C47.954 75.4811 47.955 74.9751 47.642 74.6631C47.329 74.3511 46.823 74.3511 46.511 74.6631L44.631 76.543V73.885C44.631 73.443 44.273 73.0851 43.831 73.0851C43.389 73.0851 43.031 73.444 43.031 73.885V76.542L41.152 74.6631C40.839 74.3511 40.333 74.3501 40.021 74.6631C39.709 74.9761 39.709 75.4821 40.021 75.7941L41.9 77.673H39.243C38.801 77.673 38.443 78.031 38.443 78.473C38.443 78.915 38.802 79.2731 39.243 79.2731H41.901L40.021 81.1531C39.709 81.4661 39.709 81.9721 40.021 82.2841C40.177 82.4401 40.381 82.5181 40.586 82.5181C40.791 82.5181 40.995 82.4401 41.151 82.2841L43.03 80.405V83.062C43.03 83.504 43.388 83.8621 43.83 83.8621C44.272 83.8621 44.63 83.503 44.63 83.062V80.4041L46.51 82.2841C46.666 82.4401 46.87 82.5181 47.075 82.5181C47.28 82.5181 47.484 82.4401 47.64 82.2841C47.952 81.9711 47.952 81.4651 47.64 81.1531L45.76 79.2731ZM62.288 79.2731H64.946H64.948C65.39 79.2731 65.748 78.915 65.748 78.473C65.748 78.031 65.389 77.673 64.948 77.673H62.291L64.17 75.7941C64.482 75.4811 64.483 74.9751 64.17 74.6631C63.857 74.3511 63.351 74.3511 63.039 74.6631L61.159 76.543V73.885C61.159 73.443 60.801 73.0851 60.359 73.0851C59.917 73.0851 59.559 73.444 59.559 73.885V76.542L57.68 74.6631C57.367 74.3511 56.861 74.3501 56.549 74.6631C56.237 74.9761 56.237 75.4821 56.549 75.7941L58.428 77.673H55.77C55.328 77.673 54.97 78.031 54.97 78.473C54.97 78.915 55.329 79.2731 55.77 79.2731H58.429L56.549 81.1531C56.237 81.4661 56.237 81.9721 56.549 82.2841C56.705 82.4401 56.909 82.5181 57.114 82.5181C57.319 82.5181 57.523 82.4401 57.679 82.2841L59.558 80.405V83.062C59.558 83.504 59.916 83.8621 60.358 83.8621C60.8 83.8621 61.158 83.503 61.158 83.062V80.4041L63.038 82.2841C63.194 82.4401 63.398 82.5181 63.603 82.5181C63.808 82.5181 64.012 82.4401 64.168 82.2841C64.48 81.9711 64.48 81.4651 64.168 81.1531L62.288 79.2731ZM78.814 79.2731H81.473H81.475C81.917 79.2731 82.275 78.915 82.275 78.473C82.275 78.031 81.916 77.673 81.475 77.673H78.817L80.696 75.7941C81.008 75.4811 81.009 74.9751 80.696 74.6631C80.383 74.3511 79.877 74.3511 79.565 74.6631L77.686 76.542V73.885C77.686 73.443 77.328 73.0851 76.886 73.0851C76.444 73.0851 76.086 73.444 76.086 73.885V76.543L74.206 74.6631C73.893 74.3511 73.387 74.3501 73.075 74.6631C72.763 74.9761 72.763 75.4821 73.075 75.7941L74.954 77.673H72.297C71.855 77.673 71.497 78.031 71.497 78.473C71.497 78.915 71.856 79.2731 72.297 79.2731H74.955L73.075 81.1531C72.763 81.4661 72.763 81.9721 73.075 82.2841C73.231 82.4401 73.435 82.5181 73.64 82.5181C73.845 82.5181 74.049 82.4401 74.205 82.2841L76.085 80.4041V83.062C76.085 83.504 76.443 83.8621 76.885 83.8621C77.327 83.8621 77.685 83.503 77.685 83.062V80.405L79.564 82.2841C79.72 82.4401 79.924 82.5181 80.129 82.5181C80.334 82.5181 80.538 82.4401 80.694 82.2841C81.006 81.9711 81.006 81.4651 80.694 81.1531L78.814 79.2731ZM47.158 52.686C47.158 49.96 49.368 47.751 52.093 47.751C54.819 47.751 57.028 49.961 57.028 52.686C57.028 54.781 55.7169 56.56 53.8759 57.276V62.104H50.3099V57.276C48.4679 56.559 47.158 54.781 47.158 52.686Z" fill="#233831"></path></svg>