<svg xmlns="http://www.w3.org/2000/svg" width="104" height="104" viewBox="0 0 104 104" fill="none"><path fill-rule="evenodd" clip-rule="evenodd" d="M67.5281 20.246C69.5261 20.246 71.1511 18.621 71.1511 16.623C71.1511 14.625 69.5261 13 67.5281 13C65.5301 13 63.9051 14.625 63.9051 16.623C63.9051 18.621 65.5301 20.246 67.5281 20.246ZM67.5281 15C68.4232 15 69.1511 15.728 69.1511 16.623C69.1511 17.518 68.4222 18.246 67.5281 18.246C66.6342 18.246 65.9051 17.518 65.9051 16.623C65.9051 15.728 66.6342 15 67.5281 15ZM51.5062 41.243C57.0262 41.243 61.5062 36.773 61.5062 31.243C61.5062 25.713 57.0262 21.243 51.5062 21.243C45.9862 21.243 41.5062 25.723 41.5062 31.243C41.5062 36.763 45.9762 41.243 51.5062 41.243ZM46.5562 30.7029C46.9462 30.313 47.5762 30.313 47.9662 30.7029L49.9762 32.713L55.0363 27.653C55.4262 27.263 56.0562 27.263 56.4462 27.653C56.8362 28.043 56.8362 28.683 56.4462 29.0729L50.6862 34.8329C50.4862 35.033 50.2362 35.133 49.9762 35.133C49.7262 35.133 49.4662 35.033 49.2762 34.8329L46.5562 32.123C46.1662 31.733 46.1662 31.093 46.5562 30.7029ZM80.7161 50.5209L90.6132 65.931L90.6141 65.93C90.8112 66.238 90.8251 66.629 90.6501 66.95C90.4741 67.271 90.1381 67.471 89.7722 67.471H80.7971V90.902C80.7971 91.454 80.3501 91.902 79.7971 91.902H24.9971C24.4441 91.902 23.9971 91.454 23.9971 90.902V67.471H15.0001C14.6342 67.471 14.2982 67.271 14.1221 66.95C13.9471 66.629 13.9611 66.238 14.1581 65.93L24.1581 50.3589C24.1828 50.3215 24.2126 50.2891 24.2423 50.2568L24.2429 50.2562L24.2651 50.232C24.2675 50.2295 24.2698 50.2269 24.2719 50.2242L24.2756 50.2197L24.2816 50.212C24.2886 50.2029 24.2955 50.194 24.3041 50.186C24.3861 50.107 24.4811 50.045 24.5831 49.998C24.5975 49.9915 24.6119 49.9861 24.6266 49.9806L24.6276 49.9802L24.6285 49.9799L24.6441 49.9739C24.6881 49.9568 24.7328 49.9418 24.7784 49.9299L24.7921 49.9264L24.8145 49.9211C24.8748 49.9077 24.9365 49.9 25.0001 49.9H79.7722C79.8951 49.9 80.0111 49.93 80.1231 49.972C80.134 49.976 80.1448 49.98 80.1555 49.9843C80.1663 49.9885 80.177 49.9927 80.1879 49.9974L80.2031 50.004C80.2932 50.048 80.3792 50.1 80.4531 50.169C80.4981 50.2095 80.5327 50.2563 80.5684 50.3046L80.5687 50.3049L80.5691 50.3053L80.5695 50.3057L80.5698 50.306L80.5831 50.324C80.5876 50.3305 80.5929 50.3362 80.5981 50.342C80.6006 50.3447 80.603 50.3473 80.6053 50.35C80.6081 50.3532 80.6107 50.3565 80.6132 50.36L80.6741 50.456C80.6795 50.4662 80.6865 50.4755 80.6934 50.4847C80.702 50.4962 80.7106 50.5076 80.7161 50.5209ZM44.5531 51.903H25.5441L16.8311 65.472H35.8401L44.5531 51.903ZM37.2271 67.013C37.0421 67.299 36.7261 67.472 36.3851 67.472H25.9962V89.514L45.3861 80.32V54.308L37.2271 67.013ZM47.3861 89.903H78.7961V67.472H56.3851C56.0441 67.472 55.7281 67.299 55.5431 67.013L47.3861 54.311V89.903ZM48.2181 51.903L56.9311 65.472H87.9401L79.2271 51.903H48.2181ZM66.0602 82.557H75.7992V86.9H66.0602V82.557ZM67.2712 42.348L70.2762 38.23L70.2772 38.229C70.6022 37.783 71.2281 37.6851 71.6741 38.011C72.1202 38.3361 72.2181 38.962 71.8921 39.408L68.8871 43.526C68.6912 43.795 68.3871 43.937 68.0782 43.937C67.8741 43.937 67.6672 43.875 67.4891 43.745C67.0431 43.42 66.9451 42.7941 67.2712 42.348ZM32.5912 34.52C31.8842 33.813 30.6512 33.813 29.9442 34.52C29.5532 34.9109 28.9202 34.9109 28.5292 34.52C28.1382 34.129 28.1382 33.496 28.5292 33.106C29.9922 31.643 32.5442 31.643 34.0052 33.106C35.5152 34.615 35.5152 37.071 34.0052 38.5809C33.8102 38.7759 33.5542 38.874 33.2982 38.874C33.0422 38.874 32.7862 38.7759 32.5912 38.5809C32.2002 38.191 32.2002 37.558 32.5912 37.167C33.3202 36.437 33.3202 35.249 32.5912 34.52Z" fill="#233831"></path></svg>