<svg xmlns="http://www.w3.org/2000/svg" width="104" height="104" viewBox="0 0 104 104" fill="none"><path fill-rule="evenodd" clip-rule="evenodd" d="M80.7336 44.7112C83.0336 46.9114 84.2336 51.5113 82.0336 54.9114C85.2336 60.0113 84.1335 66.6114 78.5336 69.7112C79.2336 72.1114 78.7336 74.0113 78.1335 75.1114C76.9336 77.6114 74.5336 79.2112 71.7336 79.4114C71.1335 80.8113 69.2336 83.8113 65.7336 84.8113C62.5336 85.6114 58.5336 85.1114 55.8336 83.0113C54.2336 81.7112 53.4336 79.9114 53.5336 77.9114V66.7112H61.5336L64.3336 69.5113C62.7336 72.0113 64.7336 75.6114 67.7336 75.5113C69.8336 75.5113 71.6335 73.7112 71.6335 71.5113C71.7336 68.5113 68.2336 66.5113 65.7336 68.0113L62.6335 64.9114C62.4336 64.7112 62.2336 64.6114 61.9336 64.6114H55.5336H53.5336V60.1114H67.9336C68.3336 61.8113 69.9336 63.0113 71.7336 63.0113C76.9336 62.8113 76.9336 55.3113 71.7336 55.1114C69.9336 55.1114 68.3336 56.4114 67.9336 58.1114H55.5336H53.5336V50.2112H54.5336H55.5336H67.9336C69.1335 54.6114 75.6335 53.8113 75.7336 49.2112C75.6335 44.6114 69.1335 43.8113 67.9336 48.2112H55.5336H53.5336V43.2112H61.9336C62.2336 43.2112 62.4336 43.1114 62.6335 42.9114L65.6335 39.9114C66.2336 40.3113 66.9336 40.5113 67.6335 40.5113C72.8336 40.3113 72.8336 32.8113 67.6335 32.6114C64.6335 32.5113 62.6335 36.0113 64.1335 38.5113L61.4336 41.2112H53.4336V24.9114C53.5336 23.6114 54.0336 21.9114 55.3336 20.6114C59.0336 17.2112 65.8336 19.6114 67.9336 23.9114C72.4336 24.3113 75.1335 27.9114 74.7336 32.4114C79.4336 34.9114 82.3336 39.9114 80.7336 44.7112ZM37.0336 24.1114C39.0336 19.7115 45.9336 17.2115 49.6336 20.6114C50.9336 21.8113 51.4336 23.6114 51.3336 24.8113V77.8113C51.6336 83.7115 43.8336 85.9114 39.1336 84.6114C35.6336 83.6114 33.8336 80.6114 33.1336 79.2115C30.4336 79.0113 27.9336 77.4114 26.7336 75.0113C26.2336 73.8113 25.7336 72.0113 26.3336 69.6114C23.3336 68.1114 21.3336 65.1114 21.0336 61.6114C20.8336 59.3113 21.5336 57.0113 22.9336 55.1114C22.1336 53.8113 21.6336 52.3113 21.6336 50.7115C21.6336 47.9114 23.1336 45.9114 24.1336 44.8113C23.6336 43.2115 23.1336 39.7115 25.3336 36.7115C27.0336 34.4114 29.4336 33.5113 31.0336 33.2115C30.8336 30.0113 31.4336 27.6114 32.9336 25.9114C33.4336 25.4114 34.9336 24.2115 37.0336 24.1114ZM39.8336 82.7115C42.1336 83.4114 45.8336 83.0113 47.9336 81.3113C49.0336 80.4114 49.5336 79.2115 49.5336 77.9114V24.9114C49.1336 19.4114 41.6336 20.2115 39.1336 24.3113C40.8336 24.9114 42.4336 26.3113 43.7336 28.5113C43.9336 29.0113 43.8336 29.7115 43.3336 29.9114C42.8336 30.1114 42.2336 30.0113 41.9336 29.5113C40.0336 25.9114 36.6336 25.1114 34.3336 27.2115C33.1336 28.5113 32.7336 30.8113 33.1336 33.8113C33.1336 34.1114 33.1336 34.4114 32.9336 34.6114C32.7336 34.8113 32.5336 35.0113 32.2336 35.0113C31.2336 35.1114 28.7336 35.6114 27.0336 37.9114C24.7336 41.0113 26.2336 44.6114 26.2336 44.6114C26.4336 45.0113 26.3336 45.5113 26.0336 45.8113C21.8336 49.5113 23.5336 56.0113 29.8336 57.8113C30.3336 57.9114 30.6336 58.5113 30.5336 59.0113C29.8336 61.1114 24.9336 57.6114 24.2336 56.7115C21.6336 60.7115 23.5336 66.4114 27.9336 68.1114C28.4336 68.3113 28.7336 68.8113 28.5336 69.3113C27.7336 71.6114 28.1336 73.2115 28.6336 74.1114C29.6336 76.1114 31.6336 77.3113 33.9336 77.3113C34.3336 77.3113 34.7336 77.5113 34.8336 77.9114L34.8459 77.9368C34.8578 77.9617 34.8726 77.9937 34.8904 78.0323C35.2308 78.7698 36.662 81.8719 39.8336 82.7115ZM69.5336 36.6114C69.4336 34.0115 65.7335 34.0115 65.6335 36.6114C65.7335 39.1114 69.4336 39.2115 69.5336 36.6114ZM69.5336 71.4114C69.4336 68.8116 65.7335 68.8116 65.6335 71.4114C65.7335 74.0115 69.4336 74.0115 69.5336 71.4114ZM73.5336 49.2112C73.4336 46.6114 69.7335 46.6114 69.6335 49.2112C69.7335 51.8113 73.5336 51.8113 73.5336 49.2112ZM73.5336 59.1114C73.4336 56.5115 69.7335 56.5115 69.6335 59.1114C69.7335 61.6114 73.5336 61.6114 73.5336 59.1114ZM33.7336 50.2115C37.2336 52.2115 41.6337 51.2115 44.2336 48.0115C44.5336 47.6114 44.5336 46.9114 44.0336 46.6114C43.6337 46.3116 42.9336 46.3116 42.6337 46.8116C38.7336 51.8116 31.1337 48.8116 32.0336 42.5115C32.1337 42.0115 31.7336 41.4114 31.2336 41.4114C30.7336 41.3116 30.1337 41.7115 30.1337 42.2115C29.5336 45.4114 31.0336 48.5115 33.7336 50.2115ZM36.5336 65.3113C36.7336 61.4112 40.4336 57.9112 44.8336 58.1111C46.1336 58.1111 46.1336 60.0113 44.8336 60.1111C43.1336 60.1111 41.6336 60.6111 40.5336 61.6111C39.2336 62.7112 38.7336 64.3113 38.5336 65.6111C39.4336 65.9112 40.3336 66.2112 41.1336 66.8113C43.7336 68.6111 45.1336 71.6111 44.8336 74.8113C44.7336 75.4112 44.2336 75.8113 43.7336 75.7112C43.1336 75.6111 42.7336 75.1111 42.8336 74.6111C43.4336 69.5113 37.8336 65.6111 33.2336 68.0113C32.7336 68.2112 32.1336 68.0113 31.9336 67.5113C31.1336 65.6111 35.3336 65.3113 36.5336 65.3113ZM36.4336 37.1114C39.5336 35.4114 43.2336 38.2115 42.5336 41.7115C42.3335 43.0115 44.2336 43.4114 44.5336 42.1114C45.6336 37.0115 40.0336 32.8116 35.5336 35.4114C34.3335 36.1114 35.2336 37.8116 36.4336 37.1114Z" fill="#233831"></path></svg>