<svg xmlns="http://www.w3.org/2000/svg" width="104" height="104" viewBox="0 0 104 104" fill="none"><path fill-rule="evenodd" clip-rule="evenodd" d="M73.0028 17C80.7027 17 87.0028 23.3 87.0028 31C87.0028 35.6001 84.9028 39.6001 81.5028 42.1001C89.7027 63.3 73.1028 87.3 50.3027 87C31.9028 87 17.0028 72.1001 17.0028 53.7002C16.7027 30.9001 40.7027 14.3 61.9027 22.5C64.4027 19.2 68.5028 17 73.0028 17ZM74.8027 32C75.4028 32 76.0028 32.3999 76.3027 33C76.8027 34 75.9027 35.2002 74.9027 35.2002H68.7027C67.4028 35.2002 67.4028 37.2002 68.7027 37.2002H72.1028C72.1028 37.2839 72.094 37.4419 72.0829 37.6421C72.041 38.3997 71.9656 39.7627 72.2027 40C72.7027 40.8999 74.1028 40.5 74.1028 39.5V38.8999V37.2002C79.4027 37.7002 80.2027 30.3999 74.9027 30H71.3027C69.1028 29.8999 69.1028 26.9001 71.3027 26.8H76.6028C77.2027 26.8 77.6028 26.3 77.6028 25.8C77.6028 25.2 77.2027 24.8 76.6028 24.8H74.1028V22.5C74.1028 21.2 72.1028 21.2 72.1028 22.5V24.8C69.8027 24.6001 67.7027 26 67.7027 28.3999C67.7027 30.3999 69.3027 32 71.3027 32H72.8027H74.8027ZM50.3027 85C67.6028 85 81.6028 70.9001 81.6028 53.7002C81.6028 50 81.0028 46.5 79.8027 43.2002C77.8027 44.4001 75.4028 45 73.0028 45C65.3027 45 59.0028 38.7 59.0028 31C59.0028 28.5 59.7027 26.2002 60.8027 24.2002C57.5028 23 54.0028 22.3999 50.3027 22.3999C8.80271 24.1001 8.80271 83.3 50.3027 85ZM51.3027 27.8C51.3027 28.4001 50.9027 28.8 50.3027 28.8C49.8027 28.8 49.3027 28.4001 49.3027 27.8V24.5C49.3027 23.8999 49.7027 23.5 50.3027 23.5C50.9027 23.5 51.3027 23.8999 51.3027 24.5V27.8ZM54.1028 55.1001L62.2027 60.8999C63.3028 61.7 62.1028 63.3 61.0028 62.6001L52.9027 56.7998C50.4027 59 46.2027 57.0999 46.3027 53.7C46.3027 51.8 47.6028 50.2 49.3027 49.7998V35.3999C49.3027 34.7998 49.7027 34.3999 50.3027 34.3999C50.9028 34.3999 51.3027 34.7998 51.3027 35.3999V49.7998C53.6028 50.2998 55.0028 52.8999 54.1028 55.1001ZM36.5027 27.9001C35.8027 26.8 34.1026 27.8 34.8027 28.9001L36.5027 31.8C37.2027 32.9001 38.9027 31.9001 38.2027 30.8L36.5027 27.9001ZM25.5029 38.2L28.4028 39.8999C29.2029 40.3999 28.8028 41.8 27.9028 41.8C27.7074 41.8652 26.4518 41.124 25.5167 40.5723L25.5057 40.5657L25.5035 40.5642C25.0089 40.272 24.6065 40.0344 24.5029 40C24.0029 39.7 23.8028 39.1001 24.1029 38.6001C24.4028 38.1001 25.0029 37.9001 25.5029 38.2ZM25.4028 53.7002C25.4028 53.1001 25.0028 52.7002 24.4028 52.7002H21.1028C20.5028 52.7002 20.1028 53.1001 20.1028 53.7002C20.1028 54.3003 20.5028 54.7002 21.1028 54.7002H24.4028C24.9028 54.7002 25.4028 54.3003 25.4028 53.7002ZM24.5028 67.5L27.4028 65.8C28.5028 65.2 29.5028 66.9001 28.4028 67.6001L25.5028 69.3C25.0028 69.5 24.4028 69.4001 24.1028 68.9001C23.9028 68.4001 24.0028 67.8 24.5028 67.5ZM37.8027 75.3C37.3027 75.0002 36.7026 75.2002 36.4027 75.7002L34.7027 78.6001C34.4027 79.1001 34.6026 79.7002 35.1026 80C35.6026 80.3 36.2027 80.1001 36.5027 79.6001L38.2027 76.7002C38.5027 76.2002 38.3027 75.6001 37.8027 75.3ZM49.3027 79.6001C49.3027 79 49.7027 78.6001 50.3027 78.6001C50.9027 78.6001 51.3027 79.1001 51.3027 79.6001V82.8999C51.3027 83.5 50.9027 83.8999 50.3027 83.8999C49.7027 83.8999 49.3027 83.5 49.3027 82.8999V79.6001ZM64.1028 75.7C63.4028 74.5999 61.7027 75.5 62.4028 76.7L64.1028 79.6001C64.4028 80.1001 65.0028 80.2 65.5028 80C66.0028 79.7 66.1028 79.1001 65.9028 78.6001L64.1028 75.7ZM73.3028 65.8L76.2029 67.5C77.0028 68 76.6028 69.4001 75.7029 69.4001C75.5064 69.4656 74.2381 68.7166 73.3017 68.1636C72.808 67.8718 72.4063 67.6348 72.3028 67.6001C71.8028 67.3003 71.6028 66.7002 71.9028 66.2002C72.2027 65.7002 72.8028 65.5002 73.3028 65.8ZM76.2027 54.7002H79.5028C80.8027 54.7002 80.8027 52.7002 79.5028 52.7002H76.2027C74.9028 52.7002 74.9028 54.7002 76.2027 54.7002Z" fill="#233831"></path></svg>