<svg xmlns="http://www.w3.org/2000/svg" width="104" height="104" viewBox="0 0 104 104" fill="none"><path fill-rule="evenodd" clip-rule="evenodd" d="M76.75 46.1018C76.65 46.1018 63.25 56.7017 63.25 56.7017C60.0095 59.6863 47.0973 73.6516 40.9466 80.304C39.8846 81.4526 39.0241 82.3833 38.4499 83.0017C38.25 83.2017 38.0499 83.3018 37.75 83.3018C37.5499 83.3018 37.25 83.2017 37.0499 83.0017L21.15 67.1018C20.75 66.8018 20.75 66.1016 21.15 65.7017C25.15 62.0017 44.0499 44.5017 47.3499 40.9019L52.4499 21.6018C53.6499 17.0017 60.3499 17.0017 60.5499 22.0017V22.1018L59.75 28.2017L71.15 17.1018C71.8499 16.4016 72.8499 16.0017 73.8499 16.0017C77.15 15.9016 78.9499 20.2017 76.5499 22.5017L70.65 28.4019C73.25 29.1018 74.25 32.5017 72.4499 34.5017C74.6499 35.0017 75.8499 37.6018 74.9499 39.6018C77.8499 40.1018 79.0499 44.2017 76.75 46.1018ZM58.5499 22.0017C58.3499 19.5017 54.8499 20.0017 54.3499 22.2017L49.4499 41.0017L62.8499 54.4019L75.5499 44.4019C75.8499 44.1018 76.0499 43.7017 76.0499 43.2017C76.15 41.7017 74.15 40.8018 73.0499 41.9019L72.25 42.7017C71.3499 43.6016 69.9499 42.3018 70.8499 41.3018L71.5499 40.6018L72.75 39.4019C74.4499 37.7017 71.9499 35.2017 70.25 36.8018L68.25 38.8018C67.75 39.4016 66.9499 39.1018 66.65 38.5017C66.5499 38.1018 66.5499 37.7017 66.8499 37.4019L68.8499 35.4019L70.9499 33.3018C71.6499 32.6016 71.6499 31.4016 70.9499 30.7017C70.3499 30.0017 69.1499 30.0017 68.4499 30.7017L64.3499 34.8018C63.4499 35.7017 62.0499 34.3018 62.9499 33.4019L75.25 21.1018C76.3499 20.0017 75.5499 18.0017 73.9499 18.0017C73.4499 18.0017 72.9499 18.2017 72.65 18.5017L59.4499 31.4019L58.9499 35.4019C58.75 36.8018 56.8499 36.5017 56.9499 35.2017L58.5499 22.0017ZM23.25 66.5017L37.65 80.9019L55.8499 61.4019L42.8499 48.4019L42.75 48.3018L23.25 66.5017ZM27.55 21.9016C34.05 21.9016 39.25 27.2017 39.25 33.6016C39.25 40.1016 34.05 45.3015 27.55 45.2014C12.15 44.6016 12.15 22.5017 27.55 21.9016ZM25.15 37.2014C25.3499 37.4016 25.65 37.5017 25.8499 37.5017C26.15 37.5017 26.3499 37.4016 26.55 37.1016L32.65 31.3015C33.05 30.9016 33.05 30.3015 32.65 29.9016C32.25 29.5017 31.65 29.5017 31.25 29.9016L25.8499 35.1016L23.9499 33.3015C22.9499 32.4016 21.55 33.8015 22.55 34.7014L25.15 37.2014ZM87.25 71.8018C82.8499 69.3018 77.25 69.1018 72.25 71.002C66.95 65.7019 58.45 66.502 54.15 72.7019C53.8499 73.2019 53.95 73.8018 54.3499 74.1018C54.8499 74.4019 55.45 74.302 55.75 73.9019C57.3499 71.6018 59.75 70.002 62.15 69.6018C64.95 69.1018 67.8499 70.002 70.15 71.9019C68.8499 72.6018 67.55 73.502 66.3499 74.502C62.75 77.502 61.05 82.9019 64.55 86.1018C66.3499 87.7019 69.05 88.1018 71.3499 87.2019C77.25 85.1018 76.9499 77.002 73.55 72.6018C77.75 71.2019 82.45 71.4019 86.15 73.502C87.45 74.2019 88.45 72.5017 87.25 71.8018ZM74.05 81.502C73.15 85.9019 68.65 86.6018 66.05 84.6018C62.25 80.7019 67.75 75.1018 71.75 73.4019C73.65 75.7019 74.55 78.7019 74.05 81.502ZM75.75 59.0017C72.45 59.1018 72.45 63.9016 75.75 64.0017C78.95 63.9016 79.05 59.1018 75.75 59.0017ZM23.25 55.4016C26.55 55.3015 26.55 50.5017 23.25 50.4016C19.95 50.5017 19.95 55.3015 23.25 55.4016ZM55.1499 79.3015C52.5499 79.4016 52.5499 83.2014 55.1499 83.3015C57.75 83.2014 57.8499 79.4016 55.1499 79.3015Z" fill="#233831"></path></svg>