<svg xmlns="http://www.w3.org/2000/svg" xmlns:svg="http://www.w3.org/2000/svg" width="4541.6025" height="3943.6982" viewBox="0 0 4541.6025 3943.6982" xml:space="preserve" style="clip-rule:evenodd;fill-rule:evenodd;stroke-linecap:round;stroke-linejoin:round;stroke-miterlimit:1.5" id="svg1990"><defs id="defs1990"></defs>
    
<g id="notion-developer-daily-make-presentation" style="fill:#233831;stroke-width:0.1" transform="matrix(9.9999981,0,0,9.9999981,-35489.604,-26353.427)"><path style="color:#233831;clip-rule:nonzero;fill:#233831;fill-rule:nonzero;stroke-width:0.1;stroke-linecap:butt;stroke-linejoin:miter;-inkscape-stroke:none" d="m 3967.8223,2731.0215 -193.6035,6.5801 a 1.50015,1.50015 0 0 0 -1.4493,1.5234 l 1.7969,108.0898 a 1.50015,1.50015 0 0 0 1.5176,1.4747 l 190.9883,-2.1602 a 1.50015,1.50015 0 0 0 1.4824,-1.4883 l 0.8183,-112.5097 a 1.50015,1.50015 0 0 0 -1.5507,-1.5098 z m -1.461,3.0508 -0.7949,109.4746 -188.0254,2.1269 -1.7461,-105.125 z" id="path2839"></path><path style="color:#233831;clip-rule:nonzero;fill:#233831;fill-rule:nonzero;stroke-width:0.1;stroke-linecap:butt;stroke-linejoin:miter;-inkscape-stroke:none" d="m 3831.332,2757.0508 -41.2715,0.5195 a 1.5,1.5 0 0 0 -1.4804,1.5195 1.5,1.5 0 0 0 1.5176,1.4805 l 41.2734,-0.5195 a 1.5,1.5 0 0 0 1.4805,-1.5195 1.5,1.5 0 0 0 -1.5196,-1.4805 z" id="path2840"></path><path style="color:#233831;clip-rule:nonzero;fill:#233831;fill-rule:nonzero;stroke-width:0.1;stroke-linecap:butt;stroke-linejoin:miter;-inkscape-stroke:none" d="m 3824.3398,2781.9023 -34.2793,0.4317 a 1.48552,1.48552 0 0 0 -1.4667,1.5039 1.48552,1.48552 0 0 0 1.5039,1.4668 l 34.2812,-0.4317 a 1.48552,1.48552 0 0 0 1.4649,-1.5058 1.48552,1.48552 0 0 0 -1.504,-1.4649 z" id="path2841"></path><path style="color:#233831;clip-rule:nonzero;fill:#233831;fill-rule:nonzero;stroke-width:0.1;stroke-linecap:butt;stroke-linejoin:miter;-inkscape-stroke:none" d="m 3815.6016,2795.0215 -25.5391,0.3223 a 1.412015,1.412015 0 0 0 -1.3945,1.4296 1.412015,1.412015 0 0 0 1.4297,1.3946 l 25.539,-0.3242 a 1.412015,1.412015 0 0 0 1.3946,-1.4297 1.412015,1.412015 0 0 0 -1.4297,-1.3926 z" id="path2842"></path><path style="color:#233831;clip-rule:nonzero;fill:#233831;fill-rule:nonzero;stroke-width:0.1;stroke-linecap:butt;stroke-linejoin:miter;-inkscape-stroke:none" d="m 3831.332,2803.998 -15.7324,0.1993 a 1.5,1.5 0 0 0 -1.4805,1.5195 1.5,1.5 0 0 0 1.5176,1.4805 l 15.7344,-0.2012 a 1.5,1.5 0 0 0 1.4805,-1.5176 1.5,1.5 0 0 0 -1.5196,-1.4805 z m -27.4277,0.3399 -13.8438,0.1797 a 1.5,1.5 0 0 0 -1.4804,1.5195 1.5,1.5 0 0 0 1.5195,1.4805 l 13.8438,-0.1817 a 1.5,1.5 0 0 0 1.4804,-1.5175 1.5,1.5 0 0 0 -1.5195,-1.4805 z" id="path2843"></path><path style="color:#233831;clip-rule:nonzero;fill:#233831;fill-rule:nonzero;stroke-width:0.1;stroke-linecap:butt;stroke-linejoin:miter;-inkscape-stroke:none" d="m 3831.332,2813.2617 -18.4375,0.2305 a 1.5,1.5 0 0 0 -1.4804,1.5176 1.5,1.5 0 0 0 1.5175,1.4824 l 18.4395,-0.2305 a 1.5,1.5 0 0 0 1.4805,-1.5195 1.5,1.5 0 0 0 -1.5196,-1.4805 z m -27.4277,0.3399 -13.8438,0.1797 a 1.5,1.5 0 0 0 -1.4804,1.5195 1.5,1.5 0 0 0 1.5195,1.4805 l 13.8438,-0.1797 a 1.5,1.5 0 0 0 1.4804,-1.5196 1.5,1.5 0 0 0 -1.5195,-1.4804 z" id="path2844"></path><path style="color:#233831;clip-rule:nonzero;fill:#233831;fill-rule:nonzero;stroke-width:0.1;stroke-linecap:butt;stroke-linejoin:miter;-inkscape-stroke:none" d="m 3841.1387,2825.5723 -51.0782,0.6425 a 1.48515,1.48515 0 0 0 -1.4648,1.504 1.48515,1.48515 0 0 0 1.502,1.4667 l 51.0781,-0.6425 a 1.48515,1.48515 0 0 0 1.4668,-1.5039 1.48515,1.48515 0 0 0 -1.5039,-1.4668 z" id="path2845"></path><path style="color:#233831;clip-rule:nonzero;fill:#233831;fill-rule:nonzero;stroke-width:0.1;stroke-linecap:butt;stroke-linejoin:miter;-inkscape-stroke:none" d="m 3827.0293,2770.5918 -16.332,0.207 a 1.495375,1.495375 0 0 0 -1.4766,1.5137 1.495375,1.495375 0 0 0 1.5137,1.4766 l 16.334,-0.2071 a 1.495375,1.495375 0 0 0 1.4765,-1.5136 1.495375,1.495375 0 0 0 -1.5156,-1.4766 z m -25.1191,0.3145 -11.8497,0.1523 a 1.495375,1.495375 0 0 0 -1.4765,1.5137 1.495375,1.495375 0 0 0 1.5156,1.4765 l 11.8496,-0.1523 a 1.495375,1.495375 0 0 0 1.4746,-1.5156 1.495375,1.495375 0 0 0 -1.5136,-1.4746 z" id="path2846"></path><path style="color:#233831;clip-rule:nonzero;fill:#233831;fill-rule:nonzero;stroke-width:0.1;stroke-linecap:butt;stroke-linejoin:miter;-inkscape-stroke:none" d="m 3956.5215,2753.5 -60.4336,0.8496 a 1.5,1.5 0 0 0 -1.4785,1.5215 1.5,1.5 0 0 0 1.5195,1.4785 l 60.4356,-0.8496 a 1.5,1.5 0 0 0 1.4785,-1.5215 1.5,1.5 0 0 0 -1.5215,-1.4785 z" id="path2847"></path><path style="color:#233831;clip-rule:nonzero;fill:#233831;fill-rule:nonzero;stroke-width:0.1;stroke-linecap:butt;stroke-linejoin:miter;-inkscape-stroke:none" d="m 3948.0996,2766.0391 -11.1816,0.1582 a 1.4513201,1.4513201 0 0 0 -1.4297,1.4707 1.4513201,1.4513201 0 0 0 1.4707,1.4316 l 11.1816,-0.1582 a 1.4513201,1.4513201 0 0 0 1.4297,-1.4707 1.4513201,1.4513201 0 0 0 -1.4707,-1.4316 z m -23.1055,0.3203 -20.1757,0.289 a 1.4513201,1.4513201 0 0 0 -1.4297,1.4707 1.4513201,1.4513201 0 0 0 1.4726,1.4317 l 20.1739,-0.2891 a 1.4513201,1.4513201 0 0 0 1.4316,-1.4707 1.4513201,1.4513201 0 0 0 -1.4727,-1.4316 z" id="path2848"></path><path style="color:#233831;clip-rule:nonzero;fill:#233831;fill-rule:nonzero;stroke-width:0.1;stroke-linecap:butt;stroke-linejoin:miter;-inkscape-stroke:none" d="m 3948.0996,2775.5879 -36.293,0.5117 a 1.3987449,1.3987449 0 0 0 -1.3789,1.418 1.3987449,1.3987449 0 0 0 1.418,1.3789 l 36.293,-0.5117 a 1.3987449,1.3987449 0 0 0 1.3789,-1.418 1.3987449,1.3987449 0 0 0 -1.418,-1.3789 z" id="path2849"></path><path style="color:#233831;clip-rule:nonzero;fill:#233831;fill-rule:nonzero;stroke-width:0.1;stroke-linecap:butt;stroke-linejoin:miter;-inkscape-stroke:none" d="m 3956.5254,2787.8301 -7.166,0.096 a 1.444855,1.444855 0 0 0 -1.4239,1.4648 1.444855,1.444855 0 0 0 1.4629,1.4258 l 7.1641,-0.096 a 1.444855,1.444855 0 0 0 1.4258,-1.4648 1.444855,1.444855 0 0 0 -1.4629,-1.4258 z m -14.3301,0.2031 -27.8262,0.3906 a 1.444855,1.444855 0 0 0 -1.4238,1.4649 1.444855,1.444855 0 0 0 1.4649,1.4238 l 27.8242,-0.3906 a 1.444855,1.444855 0 0 0 1.4258,-1.4649 1.444855,1.444855 0 0 0 -1.4649,-1.4238 z" id="path2850"></path><path style="color:#233831;clip-rule:nonzero;fill:#233831;fill-rule:nonzero;stroke-width:0.1;stroke-linecap:butt;stroke-linejoin:miter;-inkscape-stroke:none" d="m 3956.5234,2799.5898 -14.3281,0.1934 a 1.457105,1.457105 0 0 0 -1.4375,1.4785 1.457105,1.457105 0 0 0 1.4766,1.4356 l 14.3281,-0.1934 a 1.457105,1.457105 0 0 0 1.4375,-1.4766 1.457105,1.457105 0 0 0 -1.4766,-1.4375 z m -23.7382,0.334 -20.1426,0.2832 a 1.457105,1.457105 0 0 0 -1.4375,1.4785 1.457105,1.457105 0 0 0 1.4785,1.4356 l 20.1406,-0.2832 a 1.457105,1.457105 0 0 0 1.4375,-1.4766 1.457105,1.457105 0 0 0 -1.4765,-1.4375 z" id="path2851"></path><path style="color:#233831;clip-rule:nonzero;fill:#233831;fill-rule:nonzero;stroke-width:0.1;stroke-linecap:butt;stroke-linejoin:miter;-inkscape-stroke:none" d="m 3956.5234,2809.0293 -50.1621,0.707 a 1.485005,1.485005 0 0 0 -1.4648,1.5039 1.485005,1.485005 0 0 0 1.5058,1.4649 L 3956.5645,2812 a 1.485005,1.485005 0 0 0 1.4628,-1.5059 1.485005,1.485005 0 0 0 -1.5039,-1.4648 z" id="path2852"></path><path style="color:#233831;clip-rule:nonzero;fill:#233831;fill-rule:nonzero;stroke-width:0.1;stroke-linecap:butt;stroke-linejoin:miter;-inkscape-stroke:none" d="m 3956.5234,2819.3926 -28.6582,0.4023 a 1.495055,1.495055 0 0 0 -1.4746,1.5156 1.495055,1.495055 0 0 0 1.5157,1.4747 l 28.6582,-0.4043 a 1.495055,1.495055 0 0 0 1.4746,-1.5157 1.495055,1.495055 0 0 0 -1.5157,-1.4726 z m -37.3808,0.5176 -16.7324,0.2421 a 1.495055,1.495055 0 0 0 -1.4727,1.5176 1.495055,1.495055 0 0 0 1.5156,1.4727 l 16.7324,-0.2422 a 1.495055,1.495055 0 0 0 1.4747,-1.5156 1.495055,1.495055 0 0 0 -1.5176,-1.4746 z" id="path2853"></path><path style="color:#233831;clip-rule:nonzero;fill:#233831;fill-rule:nonzero;stroke-width:0.1;stroke-linecap:butt;stroke-linejoin:miter;-inkscape-stroke:none" d="m 3871.4063,2760.7051 c -17.1008,-1e-4 -30.9962,13.8934 -30.9961,30.9941 0,17.1007 13.8953,30.9961 30.9961,30.9961 17.1006,0 30.996,-13.8955 30.996,-30.9961 10e-5,-17.1006 -13.8953,-30.9941 -30.996,-30.9941 z m 0,2.998 c 15.4804,0 27.998,12.5157 27.998,27.9961 0,15.4804 -12.5176,27.998 -27.998,27.9981 -15.4805,0 -27.9981,-12.5177 -27.9981,-27.9981 0,-15.4804 12.5176,-27.9961 27.9981,-27.9961 z" id="ellipse2853"></path><path style="color:#233831;clip-rule:nonzero;fill:#233831;fill-rule:nonzero;stroke-width:0.1;stroke-linecap:butt;stroke-linejoin:miter;-inkscape-stroke:none" d="m 3852.8301,2766.8984 a 1.5,1.5 0 0 0 -0.3008,2.1016 l 17.6738,23.5996 a 1.50015,1.50015 0 0 0 2.0899,0.3086 l 23.7617,-17.4687 a 1.5,1.5 0 0 0 0.3203,-2.0977 1.5,1.5 0 0 0 -2.0977,-0.3203 l -22.5644,16.5898 -16.7832,-22.4101 a 1.5,1.5 0 0 0 -2.0996,-0.3028 z" id="path2854"></path><path style="color:#233831;clip-rule:nonzero;fill:#233831;fill-rule:nonzero;stroke-width:0.1;stroke-linecap:butt;stroke-linejoin:miter;-inkscape-stroke:none" d="m 3871.25,2790.207 a 1.5,1.5 0 0 0 -1.3379,1.6485 l 3.0449,29.3496 a 1.5,1.5 0 0 0 1.6465,1.3379 1.5,1.5 0 0 0 1.3379,-1.6485 l -3.0449,-29.3496 a 1.5,1.5 0 0 0 -1.6465,-1.3379 z" id="path2855"></path><path style="color:#233831;clip-rule:nonzero;fill:#233831;fill-rule:nonzero;stroke-width:0.1;stroke-linecap:butt;stroke-linejoin:miter;-inkscape-stroke:none" d="m 3887.3555,2777.8594 a 1.805865,1.805865 0 0 0 -1.0645,0.8808 1.805865,1.805865 0 0 0 0.75,2.4414 l 12.5059,6.627 a 1.805865,1.805865 0 0 0 2.4414,-0.75 1.805865,1.805865 0 0 0 -0.75,-2.4414 l -12.5059,-6.627 a 1.805865,1.805865 0 0 0 -1.3769,-0.1308 z" id="path2856"></path><path style="color:#233831;clip-rule:nonzero;fill:#233831;fill-rule:nonzero;stroke-width:0.1;stroke-linecap:butt;stroke-linejoin:miter;-inkscape-stroke:none" d="m 3883.4219,2782.0117 a 1.5857,1.5857 0 0 0 -2.1426,0.6582 1.5857,1.5857 0 0 0 0.6582,2.1446 l 18.1914,9.6406 a 1.5857,1.5857 0 0 0 2.1445,-0.6602 1.5857,1.5857 0 0 0 -0.6601,-2.1426 z" id="path2857"></path><path style="color:#233831;clip-rule:nonzero;fill:#233831;fill-rule:nonzero;stroke-width:0.1;stroke-linecap:butt;stroke-linejoin:miter;-inkscape-stroke:none" d="m 3879.0859,2785.2578 a 1.475655,1.475655 0 0 0 -1.9961,0.6133 1.475655,1.475655 0 0 0 0.6133,1.9961 l 21.8067,11.5547 a 1.475655,1.475655 0 0 0 1.9941,-0.6133 1.475655,1.475655 0 0 0 -0.6133,-1.9941 z" id="path2858"></path><path style="color:#233831;clip-rule:nonzero;fill:#233831;fill-rule:nonzero;stroke-width:0.1;stroke-linecap:butt;stroke-linejoin:miter;-inkscape-stroke:none" d="m 3872.8125,2789.041 a 1.38706,1.38706 0 0 0 -0.8164,0.6758 1.38706,1.38706 0 0 0 0.5762,1.875 l 25.1386,13.3223 a 1.38706,1.38706 0 0 0 1.875,-0.5762 1.38706,1.38706 0 0 0 -0.5761,-1.877 l -25.1387,-13.3203 a 1.38706,1.38706 0 0 0 -1.0586,-0.1 z" id="path2859"></path><path style="color:#233831;clip-rule:nonzero;fill:#233831;fill-rule:nonzero;stroke-width:0.1;stroke-linecap:butt;stroke-linejoin:miter;-inkscape-stroke:none" d="m 3872.4375,2794.0469 a 1.413205,1.413205 0 0 0 -1.9121,0.5879 1.413205,1.413205 0 0 0 0.5879,1.9101 l 24.1484,12.7969 a 1.413205,1.413205 0 0 0 1.9102,-0.5879 1.413205,1.413205 0 0 0 -0.586,-1.9101 z" id="path2860"></path><path style="color:#233831;clip-rule:nonzero;fill:#233831;fill-rule:nonzero;stroke-width:0.1;stroke-linecap:butt;stroke-linejoin:miter;-inkscape-stroke:none" d="m 3873.2051,2800.7793 a 1.534965,1.534965 0 0 0 -2.0742,0.6387 1.534965,1.534965 0 0 0 0.6367,2.0742 l 19.7344,10.457 a 1.534965,1.534965 0 0 0 2.0761,-0.6367 1.534965,1.534965 0 0 0 -0.6386,-2.0742 z" id="path2861"></path><path style="color:#233831;clip-rule:nonzero;fill:#233831;fill-rule:nonzero;stroke-width:0.1;stroke-linecap:butt;stroke-linejoin:miter;-inkscape-stroke:none" d="m 3873.8516,2806.1758 a 1.68788,1.68788 0 0 0 -2.2813,0.7012 1.68788,1.68788 0 0 0 0.7012,2.2812 l 15.3496,8.1348 a 1.68788,1.68788 0 0 0 2.2812,-0.7012 1.68788,1.68788 0 0 0 -0.7011,-2.2832 z" id="path2862"></path><path style="color:#233831;clip-rule:nonzero;fill:#233831;fill-rule:nonzero;stroke-width:0.1;stroke-linecap:butt;stroke-linejoin:miter;-inkscape-stroke:none" d="m 3874.6211,2812.2422 a 1.9374551,1.9374551 0 0 0 -2.6191,0.8047 1.9374551,1.9374551 0 0 0 0.8046,2.6191 l 9.2364,4.8945 a 1.9374551,1.9374551 0 0 0 2.6191,-0.8046 1.9374551,1.9374551 0 0 0 -0.8047,-2.6192 z" id="path2863"></path><path id="ellipse2863" style="fill:#233831;stroke-width:0.12465" d="m 3855.3765,2777.4502 a 1.4422004,1.4422079 0 0 1 -1.4422,1.4422 1.4422004,1.4422079 0 0 1 -1.4422,-1.4422 1.4422004,1.4422079 0 0 1 1.4422,-1.4422 1.4422004,1.4422079 0 0 1 1.4422,1.4422 z"></path><path id="ellipse2864" style="fill:#233831;stroke-width:0.12465" d="m 3852.5508,2781.3723 a 1.4422004,1.4422079 0 0 1 -1.4422,1.4422 1.4422004,1.4422079 0 0 1 -1.4422,-1.4422 1.4422004,1.4422079 0 0 1 1.4422,-1.4422 1.4422004,1.4422079 0 0 1 1.4422,1.4422 z"></path><path id="ellipse2865" style="fill:#233831;stroke-width:0.12465" d="m 3848.4837,2784.3767 a 1.4422004,1.4422079 0 0 1 -1.4422,1.4422 1.4422004,1.4422079 0 0 1 -1.4422,-1.4422 1.4422004,1.4422079 0 0 1 1.4422,-1.4422 1.4422004,1.4422079 0 0 1 1.4422,1.4422 z"></path><path id="ellipse2866" style="fill:#233831;stroke-width:0.12465" d="m 3852.4066,2788.9163 a 1.4422004,1.4422079 0 0 1 -1.4422,1.4422 1.4422004,1.4422079 0 0 1 -1.4422,-1.4422 1.4422004,1.4422079 0 0 1 1.4422,-1.4422 1.4422004,1.4422079 0 0 1 1.4422,1.4422 z"></path><path id="ellipse2867" style="fill:#233831;stroke-width:0.12465" d="m 3857.7564,2781.7883 a 1.4422004,1.4422079 0 0 1 -1.4422,1.4422 1.4422004,1.4422079 0 0 1 -1.4422,-1.4422 1.4422004,1.4422079 0 0 1 1.4422,-1.4422 1.4422004,1.4422079 0 0 1 1.4422,1.4422 z"></path><path id="ellipse2868" style="fill:#233831;stroke-width:0.12465" d="m 3857.9222,2790.0056 a 1.4422004,1.4422079 0 0 1 -1.4422,1.4422 1.4422004,1.4422079 0 0 1 -1.4422,-1.4422 1.4422004,1.4422079 0 0 1 1.4422,-1.4422 1.4422004,1.4422079 0 0 1 1.4422,1.4422 z"></path><path id="ellipse2869" style="fill:#233831;stroke-width:0.12465" d="m 3862.6702,2787.7424 a 1.4422004,1.4422079 0 0 1 -1.4422,1.4422 1.4422004,1.4422079 0 0 1 -1.4422,-1.4422 1.4422004,1.4422079 0 0 1 1.4422,-1.4422 1.4422004,1.4422079 0 0 1 1.4422,1.4422 z"></path><path id="ellipse2870" style="fill:#233831;stroke-width:0.12465" d="m 3866.5604,2790.8755 a 1.4422004,1.4422079 0 0 1 -1.4422,1.4422 1.4422004,1.4422079 0 0 1 -1.4422,-1.4422 1.4422004,1.4422079 0 0 1 1.4422,-1.4422 1.4422004,1.4422079 0 0 1 1.4422,1.4422 z"></path><path id="ellipse2871" style="fill:#233831;stroke-width:0.12465" d="m 3863.3372,2794.9585 a 1.4422004,1.4422079 0 0 1 -1.4422,1.4422 1.4422004,1.4422079 0 0 1 -1.4422,-1.4422 1.4422004,1.4422079 0 0 1 1.4422,-1.4422 1.4422004,1.4422079 0 0 1 1.4422,1.4422 z"></path><path id="ellipse2872" style="fill:#233831;stroke-width:0.12465" d="m 3855.3367,2793.0088 a 1.4422004,1.4422079 0 0 1 -1.4422,1.4422 1.4422004,1.4422079 0 0 1 -1.4422,-1.4422 1.4422004,1.4422079 0 0 1 1.4422,-1.4422 1.4422004,1.4422079 0 0 1 1.4422,1.4422 z"></path><path id="ellipse2873" style="fill:#233831;stroke-width:0.12465" d="m 3848.5689,2792.5881 a 1.4422004,1.4422079 0 0 1 -1.4422,1.4422 1.4422004,1.4422079 0 0 1 -1.4422,-1.4422 1.4422004,1.4422079 0 0 1 1.4422,-1.4422 1.4422004,1.4422079 0 0 1 1.4422,1.4422 z"></path><path id="ellipse2874" style="fill:#233831;stroke-width:0.12465" d="m 3851.6505,2796.1301 a 1.4422004,1.4422079 0 0 1 -1.4422,1.4422 1.4422004,1.4422079 0 0 1 -1.4422,-1.4422 1.4422004,1.4422079 0 0 1 1.4422,-1.4422 1.4422004,1.4422079 0 0 1 1.4422,1.4422 z"></path><path id="ellipse2875" style="fill:#233831;stroke-width:0.12465" d="m 3858.1619,2797.7568 a 1.4422004,1.4422079 0 0 1 -1.4422,1.4422 1.4422004,1.4422079 0 0 1 -1.4422,-1.4422 1.4422004,1.4422079 0 0 1 1.4422,-1.4422 1.4422004,1.4422079 0 0 1 1.4422,1.4422 z"></path><path id="ellipse2876" style="fill:#233831;stroke-width:0.12465" d="m 3868.0999,2797.4041 a 1.4422004,1.4422079 0 0 1 -1.4422,1.4422 1.4422004,1.4422079 0 0 1 -1.4422,-1.4422 1.4422004,1.4422079 0 0 1 1.4422,-1.4423 1.4422004,1.4422079 0 0 1 1.4422,1.4423 z"></path><path id="ellipse2877" style="fill:#233831;stroke-width:0.12465" d="m 3863.6663,2800.6243 a 1.4422004,1.4422079 0 0 1 -1.4422,1.4422 1.4422004,1.4422079 0 0 1 -1.4422,-1.4422 1.4422004,1.4422079 0 0 1 1.4422,-1.4422 1.4422004,1.4422079 0 0 1 1.4422,1.4422 z"></path><path id="ellipse2878" style="fill:#233831;stroke-width:0.12465" d="m 3869.1063,2803.6277 a 1.4422004,1.4422079 0 0 1 -1.4422,1.4422 1.4422004,1.4422079 0 0 1 -1.4422,-1.4422 1.4422004,1.4422079 0 0 1 1.4422,-1.4422 1.4422004,1.4422079 0 0 1 1.4422,1.4422 z"></path><path id="ellipse2879" style="fill:#233831;stroke-width:0.12465" d="m 3868.772,2810.2754 a 1.4422004,1.4422079 0 0 1 -1.4422,1.4422 1.4422004,1.4422079 0 0 1 -1.4422,-1.4422 1.4422004,1.4422079 0 0 1 1.4422,-1.4422 1.4422004,1.4422079 0 0 1 1.4422,1.4422 z"></path><path id="ellipse2880" style="fill:#233831;stroke-width:0.12465" d="m 3869.3438,2816.1948 a 1.4422004,1.4422079 0 0 1 -1.4422,1.4422 1.4422004,1.4422079 0 0 1 -1.4422,-1.4422 1.4422004,1.4422079 0 0 1 1.4422,-1.4422 1.4422004,1.4422079 0 0 1 1.4422,1.4422 z"></path><path id="ellipse2881" style="fill:#233831;stroke-width:0.12465" d="m 3863.16,2814.4656 a 1.4422004,1.4422079 0 0 1 -1.4422,1.4422 1.4422004,1.4422079 0 0 1 -1.4422,-1.4422 1.4422004,1.4422079 0 0 1 1.4422,-1.4422 1.4422004,1.4422079 0 0 1 1.4422,1.4422 z"></path><path id="ellipse2882" style="fill:#233831;stroke-width:0.12465" d="m 3863.2969,2808.8584 a 1.4422004,1.4422079 0 0 1 -1.4422,1.4422 1.4422004,1.4422079 0 0 1 -1.4422,-1.4422 1.4422004,1.4422079 0 0 1 1.4422,-1.4422 1.4422004,1.4422079 0 0 1 1.4422,1.4422 z"></path><path id="ellipse2883" style="fill:#233831;stroke-width:0.12465" d="m 3858.7532,2811.4802 a 1.4422004,1.4422079 0 0 1 -1.4422,1.4422 1.4422004,1.4422079 0 0 1 -1.4422,-1.4422 1.4422004,1.4422079 0 0 1 1.4422,-1.4422 1.4422004,1.4422079 0 0 1 1.4422,1.4422 z"></path><path id="ellipse2884" style="fill:#233831;stroke-width:0.12465" d="m 3858.0196,2805.8645 a 1.4422004,1.4422079 0 0 1 -1.4422,1.4422 1.4422004,1.4422079 0 0 1 -1.4422,-1.4422 1.4422004,1.4422079 0 0 1 1.4422,-1.4422 1.4422004,1.4422079 0 0 1 1.4422,1.4422 z"></path><path id="ellipse2885" style="fill:#233831;stroke-width:0.12465" d="m 3854.7457,2807.8357 a 1.4422004,1.4422079 0 0 1 -1.4422,1.4422 1.4422004,1.4422079 0 0 1 -1.4422,-1.4422 1.4422004,1.4422079 0 0 1 1.4422,-1.4422 1.4422004,1.4422079 0 0 1 1.4422,1.4422 z"></path><path id="ellipse2886" style="fill:#233831;stroke-width:0.12465" d="m 3852.1592,2803.5132 a 1.4422004,1.4422079 0 0 1 -1.4422,1.4422 1.4422004,1.4422079 0 0 1 -1.4422,-1.4422 1.4422004,1.4422079 0 0 1 1.4422,-1.4422 1.4422004,1.4422079 0 0 1 1.4422,1.4422 z"></path><path id="ellipse2887" style="fill:#233831;stroke-width:0.12465" d="m 3847.7147,2799.2251 a 1.4422004,1.4422079 0 0 1 -1.4422,1.4422 1.4422004,1.4422079 0 0 1 -1.4422,-1.4422 1.4422004,1.4422079 0 0 1 1.4422,-1.4422 1.4422004,1.4422079 0 0 1 1.4422,1.4422 z"></path><path style="color:#233831;clip-rule:nonzero;fill:#233831;fill-rule:nonzero;stroke-width:0.1;stroke-linecap:butt;stroke-linejoin:miter;-inkscape-stroke:none" d="m 4158.252,1998.8496 c -1.6337,0 -3.1202,0.808 -4.3106,2.0137 -1.1904,1.2057 -2.1639,2.8288 -2.9727,4.7656 -1.6175,3.8736 -2.5644,9.0389 -2.5644,14.7402 0,5.7014 0.9469,10.8687 2.5644,14.7422 0.8088,1.9368 1.7823,3.558 2.9727,4.7637 1.1904,1.2057 2.6769,2.0137 4.3106,2.0137 1.6336,-10e-5 3.1182,-0.808 4.3085,-2.0137 1.1904,-1.2057 2.1639,-2.8269 2.9727,-4.7637 1.6175,-3.8735 2.5645,-9.0409 2.5645,-14.7422 0,-5.7012 -0.947,-10.8666 -2.5645,-14.7402 -0.8088,-1.9368 -1.7823,-3.5599 -2.9727,-4.7656 -1.1903,-1.2057 -2.6749,-2.0137 -4.3085,-2.0137 z m 0,2.9551 c 0.6775,0 1.3948,0.3121 2.207,1.1348 0.8122,0.8227 1.6419,2.1379 2.3477,3.8281 1.4116,3.3804 2.3379,8.2337 2.3379,13.6015 0,5.3679 -0.9263,10.2232 -2.3379,13.6036 -0.7058,1.6901 -1.5355,3.0034 -2.3477,3.8261 -0.8115,0.822 -1.5281,1.1342 -2.205,1.1348 -0.6775,0 -1.3949,-0.3121 -2.2071,-1.1348 -0.8122,-0.8227 -1.6418,-2.136 -2.3476,-3.8261 -1.4116,-3.3804 -2.3379,-8.2357 -2.3379,-13.6036 0,-5.3678 0.9263,-10.2211 2.3379,-13.6015 0.7058,-1.6902 1.5354,-3.0055 2.3476,-3.8281 0.8115,-0.822 1.5281,-1.1343 2.2051,-1.1348 z" id="ellipse2888" transform="rotate(10.491206)"></path><path id="ellipse2889" style="fill:#233831;stroke-width:0.0357237" transform="rotate(10.49119)" d="m 4162.7699,2025.0319 a 3.1371355,7.2214723 0 0 1 -3.1371,7.2214 3.1371355,7.2214723 0 0 1 -3.1371,-7.2214 3.1371355,7.2214723 0 0 1 3.1371,-7.2215 3.1371355,7.2214723 0 0 1 3.1371,7.2215 z"></path><path d="m 3737.883,2745.3413 c 0.8421,-3.447 2.6361,-5.8999 4.2026,-5.6098 1.7027,0.3153 2.4954,3.7533 1.7699,7.6712 -0.4037,2.1801 -1.1935,4.0539 -2.1079,5.2326 -1.7512,-2.2189 -2.9953,-4.7162 -3.8646,-7.294 z" style="fill:#233831;stroke-width:0.0357237" id="path2889"></path><path style="color:#233831;clip-rule:nonzero;fill:#233831;fill-rule:nonzero;stroke-width:0.1;stroke-linecap:butt;stroke-linejoin:miter;-inkscape-stroke:none" d="m 3746.6387,2722.5859 c -1.4037,-0.2599 -2.8046,0.1902 -3.9961,1.0039 -1.1915,0.8137 -2.2499,1.9928 -3.2207,3.4473 -1.9417,2.9089 -3.5254,6.952 -4.4414,11.582 a 1.474475,1.474475 0 0 0 1.1601,1.7325 1.474475,1.474475 0 0 0 1.7324,-1.1602 c 0.8525,-4.3088 2.3565,-8.0504 4.002,-10.5156 0.8228,-1.2326 1.6818,-2.1384 2.4316,-2.6504 0.7498,-0.5121 1.3142,-0.6281 1.795,-0.5391 0.4898,0.091 0.9865,0.4124 1.5117,1.1875 0.5252,0.7751 1.0059,1.9694 1.3281,3.4629 0.6444,2.987 0.6701,7.1399 -0.1504,11.5703 -1.0557,5.7012 -3.2978,10.4633 -5.4433,12.7051 a 1.474475,1.474475 0 0 0 0.045,2.0859 1.474475,1.474475 0 0 0 2.0859,-0.047 c 2.8253,-2.9521 5.0773,-8.085 6.211,-14.2071 0.8811,-4.7582 0.8914,-9.2206 0.1347,-12.7285 -0.3783,-1.7539 -0.9432,-3.2766 -1.7695,-4.4961 -0.8263,-1.2194 -1.9866,-2.1689 -3.416,-2.4336 z" id="path2890"></path><path style="color:#233831;clip-rule:nonzero;fill:#233831;fill-rule:nonzero;stroke-width:0.1;stroke-linecap:butt;stroke-linejoin:miter;-inkscape-stroke:none" d="m 3737.4629,2721.1191 a 1.5,1.5 0 0 0 -1.8027,1.1192 c 0,0 -1.7469,7.4026 -0.836,15.8828 0.911,8.4802 4.6513,18.3588 15.5293,22.5586 a 1.5,1.5 0 0 0 1.9395,-0.8594 1.5,1.5 0 0 0 -0.8575,-1.9394 c -9.6359,-3.7203 -12.7813,-12.1922 -13.6289,-20.0821 -0.8475,-7.8898 0.7735,-14.8769 0.7735,-14.8769 a 1.5,1.5 0 0 0 -1.1172,-1.8028 z" id="path2891"></path><path style="color:#233831;clip-rule:nonzero;fill:#233831;fill-rule:nonzero;stroke-width:0.1;stroke-linecap:butt;stroke-linejoin:miter;-inkscape-stroke:none" d="m 3736.0938,2734.6621 -6.3047,0.2793 a 1.5,1.5 0 0 0 -1.4317,1.5645 1.5,1.5 0 0 0 1.5664,1.4336 l 6.3028,-0.2813 a 1.5,1.5 0 0 0 1.4316,-1.5644 1.5,1.5 0 0 0 -1.5644,-1.4317 z" id="path2892"></path><path style="color:#233831;clip-rule:nonzero;fill:#233831;fill-rule:nonzero;stroke-width:0.1;stroke-linecap:butt;stroke-linejoin:miter;-inkscape-stroke:none" d="m 3722.8867,2716.0859 c -3.9013,0.2569 -6.707,2.0293 -6.707,2.0293 a 1.5,1.5 0 0 0 -0.4844,2.0645 1.5,1.5 0 0 0 2.0664,0.4844 c 0,0 4.0444,-2.446 8.5957,-1.2989 a 1.5,1.5 0 0 0 1.8203,-1.0879 1.5,1.5 0 0 0 -1.0879,-1.8222 c -1.4806,-0.3732 -2.9026,-0.4548 -4.2031,-0.3692 z" id="path2893"></path><path style="color:#233831;clip-rule:nonzero;fill:#233831;fill-rule:nonzero;stroke-width:0.1;stroke-linecap:butt;stroke-linejoin:miter;-inkscape-stroke:none" d="m 3741.5625,2715.8496 c -0.766,0.059 -1.4786,0.2396 -2.0898,0.4277 -1.2225,0.3764 -2.1309,0.879 -2.1309,0.879 a 1.5,1.5 0 0 0 -0.5918,2.0371 1.5,1.5 0 0 0 2.0371,0.5918 c 0,0 0.6551,-0.3595 1.5684,-0.6407 0.9132,-0.2811 1.9985,-0.3908 2.6211,-0.1699 a 1.5,1.5 0 0 0 1.914,-0.9121 1.5,1.5 0 0 0 -0.9121,-1.916 c -0.8302,-0.2946 -1.65,-0.3563 -2.416,-0.2969 z" id="path2894"></path><path style="color:#233831;clip-rule:nonzero;fill:#233831;fill-rule:nonzero;stroke-width:0.1;stroke-linecap:butt;stroke-linejoin:miter;-inkscape-stroke:none" d="m 3719.1816,2635.3438 c -1.7522,0.023 -3.539,0.1369 -5.3476,0.3398 -13.9482,1.5645 -29.1542,8.5361 -38.5957,21.3379 -1.5644,-1.7896 -6.5508,-7.1699 -14.9688,-9.4336 -4.9437,-1.3294 -10.8175,-1.2529 -16.959,1.8945 -6.1414,3.1474 -12.5169,9.2858 -18.8085,19.8926 -1.9622,3.3115 -3.9336,10.0825 -4.7637,19.0449 -0.8301,8.9625 -0.4175,20.0128 2.832,31.3828 0.5028,1.7608 1.1058,7.4268 -0.8769,12.3457 -1.9828,4.9189 -6.2127,9.375 -16.2051,9.8536 -1.3036,0.064 -2.4969,0.9744 -2.9804,2.248 -0.4836,1.2736 -0.3426,2.8225 0.4218,4.4707 1.449,3.1241 5.2336,6.8014 12.7852,10.7969 -0.3105,0.8681 -0.9601,2.0656 -3.0469,2.5625 v 0 c -0.7697,0.1812 -1.2171,0.9727 -1.2988,1.4121 -0.082,0.4394 -0.035,0.7572 0.029,1.0898 0.1288,0.6653 0.4003,1.3718 0.8184,2.1953 0.836,1.6472 2.2781,3.7057 4.4531,5.7832 4.3499,4.1551 11.661,8.3273 22.6015,8.8282 5.6242,0.263 14.4636,-1.4515 22.4278,-5.9063 7.965,-4.4552 15.0491,-11.8207 16.2539,-22.6875 0.1056,-0.9519 -0.079,-1.991 -0.7637,-2.6836 -0.6852,-0.6926 -1.5101,-0.8521 -2.2422,-0.9414 -1.4641,-0.1786 -3.0512,-0.059 -4.8613,-0.4043 -0.057,-0.012 -1.1465,-0.4998 -2.1973,-1.4414 -1.0518,-0.9426 -2.2124,-2.3073 -3.123,-4.0039 -1.8211,-3.3927 -2.7323,-8.0386 -0.022,-13.9101 v 0 c 1.0848,-2.3432 3.3521,-3.7617 5.9122,-2.8769 2.5609,0.885 5.9408,4.5188 8.0937,13.5273 0.1621,0.6766 0.5303,1.6473 1.1563,2.8769 0.6259,1.2297 1.4863,2.6273 2.6484,3.795 1.1621,1.1676 2.7088,2.1545 4.584,2.1601 1.8752,0.01 3.8046,-1.0091 5.6172,-3.0566 2.3163,-2.616 3.134,-6.403 3.7129,-10.5938 0.5788,-4.1907 0.8586,-8.8519 1.6269,-13.2519 0.7683,-4.4 2.0262,-8.501 4.3945,-11.6133 2.3684,-3.1123 5.8094,-5.3499 11.4747,-6.0977 13.1541,-1.7415 21.1037,0.5724 27.8164,1.8555 3.3563,0.6416 6.4501,1.0393 9.6386,0.3867 3.1886,-0.6525 6.3596,-2.3667 9.8203,-5.6269 2.5616,-2.4149 7.4055,-8.3 10.5801,-15.9824 3.1745,-7.6823 4.6014,-17.2488 -0.2481,-26.373 -2.3271,-4.375 -5.5181,-8.6827 -10.1367,-11.1465 -4.327,-2.3083 -9.9055,-2.7234 -16.5781,-0.2617 -2.1085,-4.4244 -6.1342,-7.6587 -11.2598,-9.5528 -4.2264,-1.5618 -9.1651,-2.3009 -14.4219,-2.2304 z m 0.039,3.0039 c 4.9505,-0.062 9.5459,0.6375 13.3438,2.041 5.0637,1.8713 8.6493,4.9166 10.1503,9.0527 a 1.50015,1.50015 0 0 0 1.9922,0.8711 c 6.6714,-2.8058 11.4912,-2.3211 15.3223,-0.2773 3.8311,2.0437 6.7275,5.8251 8.9004,9.9101 4.3284,8.1453 3.0868,16.6443 0.123,23.8164 -2.9639,7.1727 -7.7278,12.9322 -9.8652,14.9473 -3.1843,2.9998 -5.7893,4.3439 -8.3652,4.8711 -2.576,0.5271 -5.233,0.2251 -8.4746,-0.3946 -6.4834,-1.2393 -15.1117,-3.6912 -28.7715,-1.8828 -6.3048,0.8322 -10.6507,3.5501 -13.4707,7.2559 -2.8201,3.7058 -4.1529,8.2865 -4.961,12.9141 -0.808,4.6275 -1.0896,9.34 -1.6445,13.3574 -0.5549,4.0173 -1.4421,7.2716 -2.9863,9.0156 -1.4584,1.6475 -2.5439,2.0474 -3.3614,2.0449 -0.8174,0 -1.6408,-0.4455 -2.4668,-1.2754 -0.8259,-0.8298 -1.5704,-1.9975 -2.1015,-3.041 -0.5312,-1.0434 -0.8742,-2.0545 -0.9121,-2.2129 -2.2731,-9.5115 -5.9587,-14.2585 -10.0313,-15.666 -4.0725,-1.4074 -8.0055,0.9699 -9.6172,4.4551 -3.0838,6.6773 -2.0873,12.5136 0.1,16.5879 1.0935,2.0371 2.4633,3.6532 3.7657,4.8203 1.3023,1.1671 2.3884,1.9149 3.6367,2.1543 2.2279,0.4248 4.125,0.3216 5.0586,0.4355 0.4668,0.057 0.5702,0.1709 0.4727,0.072 -0.097,-0.099 -0.032,-0.224 -0.084,0.2441 -1.0802,9.7432 -7.3283,16.2537 -14.7383,20.3985 -7.41,4.1448 -15.9893,5.7558 -20.8242,5.5293 -10.2465,-0.4691 -16.7978,-4.305 -20.6661,-8 -1.9341,-1.8475 -3.1908,-3.6748 -3.8496,-4.9726 -0.2287,-0.4506 -0.2933,-0.7023 -0.3808,-0.9766 3.6217,-1.6013 4.5097,-5.3672 4.5097,-5.3672 a 1.50015,1.50015 0 0 0 -0.8046,-1.584 c -8.0956,-4.0862 -11.5275,-7.7826 -12.5704,-10.0312 -0.5214,-1.1243 -0.4558,-1.8338 -0.3379,-2.1445 0.1177,-0.3099 0.2026,-0.3107 0.3204,-0.3165 10.8895,-0.5214 16.5104,-5.9349 18.8457,-11.7285 2.3352,-5.7936 1.7236,-11.6817 0.9785,-14.291 -3.1266,-10.9399 -3.5312,-21.6362 -2.7305,-30.2812 0.8007,-8.6451 2.9066,-15.3445 4.3574,-17.793 6.0968,-10.2782 12.1155,-15.9434 17.5957,-18.752 5.4803,-2.8085 10.4569,-2.8397 14.8145,-1.6679 8.7152,2.3436 14.7246,9.7148 14.7246,9.7148 a 1.50015,1.50015 0 0 0 2.4102,-0.096 c 8.7193,-12.8336 23.8361,-19.9003 37.541,-21.4375 1.7131,-0.1921 3.4025,-0.2977 5.0527,-0.3183 z" id="path2895"></path><path d="m 3744.1255,2648.93 c -6.732,-18.55 -50.687,-16.24 -68.739,10.33 0,0 -24.817,-30.89 -49.594,10.88 -3.413,5.76 -8.156,26.94 -1.78,49.25 1.248,4.37 2.429,23.11 -18.453,24.11 -2.844,0.14 -4.54,6.99 11.983,15.33 0,0 -0.623,3.78 -4.529,4.71 -1.402,0.33 5.142,15.38 26.329,16.35 10.459,0.49 34.837,-6.65 37.122,-27.26 0.315,-2.84 -2.619,-1.62 -6.657,-2.39 -2.607,-0.5 -12.218,-8.91 -6.422,-21.46 2.696,-5.83 12.402,-7.59 16.828,10.93 0.4,1.67 4.881,12.52 11.423,5.13 7.721,-8.72 -1.804,-38.89 22.136,-42.05 26.814,-3.55 33.154,9.53 46.444,-2.99 4.699,-4.43 19.216,-23.29 10.037,-40.56 -4.5,-8.46 -12.171,-16.18 -26.128,-10.31 z" style="fill:#233831;stroke-width:0.1" id="path2896"></path><path style="color:#233831;clip-rule:nonzero;fill:#233831;fill-rule:nonzero;stroke-width:0.1;stroke-linecap:butt;stroke-linejoin:miter;-inkscape-stroke:none" d="m 3694.5156,2736.9043 a 1.5,1.5 0 0 0 -1.6015,1.3906 1.5,1.5 0 0 0 1.3925,1.6016 l 18.7539,1.3105 a 1.5,1.5 0 0 0 1.6016,-1.3925 1.5,1.5 0 0 0 -1.3926,-1.6016 z" id="path2897"></path><path style="color:#233831;clip-rule:nonzero;fill:#233831;fill-rule:nonzero;stroke-width:0.1;stroke-linecap:butt;stroke-linejoin:miter;-inkscape-stroke:none" d="m 3696.5957,2780.5156 a 1.5,1.5 0 0 0 -0.092,2.1192 c 0,0 5.8406,6.3269 16.4453,7.8789 a 1.5,1.5 0 0 0 1.7012,-1.2657 1.5,1.5 0 0 0 -1.2676,-1.7031 c -9.6213,-1.408 -14.668,-6.9394 -14.668,-6.9394 a 1.5,1.5 0 0 0 -2.1191,-0.09 z" id="path2898"></path><path style="color:#233831;clip-rule:nonzero;fill:#233831;fill-rule:nonzero;stroke-width:0.1;stroke-linecap:butt;stroke-linejoin:miter;-inkscape-stroke:none" d="m 3734.6836,2760.3359 a 1.5,1.5 0 0 0 -1.6289,1.3575 c -2.6029,28.4314 -15.0581,43.3034 -28.5567,48.2011 -13.4985,4.8978 -28.2435,-0.1013 -36.0273,-12.291 a 1.5,1.5 0 0 0 -2.0723,-0.457 1.5,1.5 0 0 0 -0.457,2.0703 c 8.5121,13.3302 24.8014,18.8603 39.5801,13.498 14.7787,-5.3622 27.8454,-21.5395 30.5195,-50.748 a 1.5,1.5 0 0 0 -1.3574,-1.6309 z" id="path2899"></path><path style="color:#233831;clip-rule:nonzero;fill:#233831;fill-rule:nonzero;stroke-width:0.1;stroke-linecap:butt;stroke-linejoin:miter;-inkscape-stroke:none" d="m 3688.8262,2817.7695 a 1.5,1.5 0 0 0 -1.1328,0.1836 1.5,1.5 0 0 0 -0.4883,2.0645 c 0.7054,1.1427 0.7869,2.4189 0.4297,4.0449 -0.3573,1.626 -1.1898,3.5009 -2.1465,5.4277 -1.9134,3.8537 -4.5276,7.8364 -3.7637,11.8321 a 1.5,1.5 0 0 0 1.7539,1.1914 1.5,1.5 0 0 0 1.1914,-1.7559 c -0.4061,-2.1243 1.5296,-5.9572 3.5039,-9.9336 0.9872,-1.9882 1.9322,-4.0307 2.3907,-6.1172 0.4584,-2.0865 0.3954,-4.3183 -0.8067,-6.2656 a 1.5,1.5 0 0 0 -0.9316,-0.6719 z" id="path2900"></path><path style="color:#233831;clip-rule:nonzero;fill:#233831;fill-rule:nonzero;stroke-width:0.1;stroke-linecap:butt;stroke-linejoin:miter;-inkscape-stroke:none" d="m 3633.2285,2793.1992 a 1.5,1.5 0 0 0 -1.1777,1.7637 c 1.8918,9.5065 8.3502,16.7312 14.9726,21.8594 6.6217,5.1275 13.4549,8.2007 16.4825,9.3925 7.1237,2.8093 12.5687,2.3949 16.2168,1.1719 -0.7728,1.4757 -1.4786,2.9082 -1.4786,2.9082 a 1.5,1.5 0 0 0 0.711,2 1.5,1.5 0 0 0 2,-0.7109 c 0,0 0.7195,-1.5166 1.6465,-3.2422 0.9269,-1.7256 2.1763,-3.7309 2.707,-4.2754 l -0.01,-0.01 c 0,0 0.051,-0.043 0.051,-0.043 a 1.50015,1.50015 0 0 0 -2.1933,-2.0449 c -0.013,0.014 -0.024,0.043 -0.037,0.057 l -0.01,-0.01 c 0,0 -1.2921,1.4913 -4.2968,2.5098 -3.0048,1.0184 -7.6248,1.4898 -14.211,-1.1075 -2.816,-1.1084 -9.4579,-4.1033 -15.7461,-8.9726 -6.2883,-4.8694 -12.175,-11.5708 -13.8672,-20.0742 a 1.5,1.5 0 0 0 -1.7637,-1.1778 z" id="path2901"></path><path style="color:#233831;clip-rule:nonzero;fill:#233831;fill-rule:nonzero;stroke-width:0.1;stroke-linecap:butt;stroke-linejoin:miter;-inkscape-stroke:none" d="m 3636.2383,2785.9297 c -0.7674,-0.035 -1.8159,0.01 -2.9434,0.3281 -2.2549,0.6393 -4.9051,2.5364 -6.1582,6.5332 -0.6284,2.0064 -3.2538,9.2489 -7.1387,13.2891 -1.246,1.2971 -1.9281,3.5325 -1.5586,6.7129 0.3695,3.1804 1.8357,7.3208 5.2402,12.5644 1.0829,1.6663 5.5729,8.0262 14.0723,13.2285 8.4994,5.2024 21.0407,9.1901 37.8652,6.0489 a 1.5,1.5 0 0 0 1.1993,-1.75 1.5,1.5 0 0 0 -1.75,-1.1993 c -16.1155,3.0089 -27.7792,-0.7805 -35.7481,-5.6582 -7.9689,-4.8776 -12.2109,-10.901 -13.123,-12.3046 -3.2245,-4.9664 -4.4794,-8.7108 -4.7774,-11.2754 -0.2978,-2.5631 0.4049,-3.9332 0.7442,-4.2871 v 0 c 4.6138,-4.7992 7.1399,-12.2342 7.8398,-14.4687 v 0 c 0.995,-3.1716 2.6385,-4.1248 4.1133,-4.543 1.4751,-0.4182 2.7012,-0.1425 2.7012,-0.1425 a 1.5,1.5 0 0 0 1.7988,-1.1231 1.5,1.5 0 0 0 -1.1211,-1.8008 c 0,0 -0.4865,-0.1133 -1.2539,-0.1484 z" id="path2902"></path><path style="color:#233831;clip-rule:nonzero;fill:#233831;fill-rule:nonzero;stroke-width:0.1;stroke-linecap:butt;stroke-linejoin:miter;-inkscape-stroke:none" d="m 3631.1074,2805.584 a 1.5,1.5 0 0 0 -1.959,0.8144 c 0,0 -1.1239,2.7306 -2.4609,5.752 -1.337,3.0214 -3.0304,6.4919 -3.6152,7.2988 a 1.5,1.5 0 0 0 0.334,2.0957 1.5,1.5 0 0 0 2.0957,-0.334 c 1.1401,-1.5731 2.572,-4.7821 3.9277,-7.8457 1.3557,-3.0636 2.4922,-5.8242 2.4922,-5.8242 a 1.5,1.5 0 0 0 -0.8145,-1.957 z" id="path2903"></path><path style="color:#233831;clip-rule:nonzero;fill:#233831;fill-rule:nonzero;stroke-width:0.1;stroke-linecap:butt;stroke-linejoin:miter;-inkscape-stroke:none" d="m 3640.1738,2807.2266 a 1.5,1.5 0 0 0 -0.9023,0.7089 c -2.6987,4.8041 -5.1847,10.7988 -6.3692,16.4356 a 1.5,1.5 0 0 0 1.1602,1.7773 1.5,1.5 0 0 0 1.7754,-1.1601 c 1.0975,-5.2232 3.4895,-11.0281 6.0488,-15.584 a 1.5,1.5 0 0 0 -0.5742,-2.043 1.5,1.5 0 0 0 -1.1387,-0.1347 z" id="path2904"></path><path style="color:#233831;clip-rule:nonzero;fill:#233831;fill-rule:nonzero;stroke-width:0.1;stroke-linecap:butt;stroke-linejoin:miter;-inkscape-stroke:none" d="m 3648.207,2822.7227 a 1.5,1.5 0 0 0 -1.9843,0.75 c 0,0 -1.2804,2.8353 -2.793,6.0449 -1.5127,3.2095 -3.3093,6.867 -4.125,8.1816 a 1.5,1.5 0 0 0 0.4824,2.0645 1.5,1.5 0 0 0 2.0664,-0.4824 c 1.0583,-1.7054 2.7662,-5.249 4.291,-8.4844 1.5249,-3.2355 2.8125,-6.0899 2.8125,-6.0899 a 1.5,1.5 0 0 0 -0.75,-1.9843 z" id="path2905"></path><path style="color:#233831;clip-rule:nonzero;fill:#233831;fill-rule:nonzero;stroke-width:0.1;stroke-linecap:butt;stroke-linejoin:miter;-inkscape-stroke:none" d="m 3658.5566,2820.6953 a 1.5,1.5 0 0 0 -1.7519,1.1973 l -2.3574,12.541 a 1.5,1.5 0 0 0 1.1953,1.75 1.5,1.5 0 0 0 1.7519,-1.1953 l 2.3594,-12.541 a 1.5,1.5 0 0 0 -1.1973,-1.752 z" id="path2906"></path><path style="color:#233831;clip-rule:nonzero;fill:#233831;fill-rule:nonzero;stroke-width:0.1;stroke-linecap:butt;stroke-linejoin:miter;-inkscape-stroke:none" d="m 3672.7344,2831.3145 a 1.5,1.5 0 0 0 -1.9453,0.8437 c 0,0 -0.8962,2.2649 -1.9707,4.8184 -1.0746,2.5534 -2.4044,5.4964 -2.9668,6.4043 a 1.5,1.5 0 0 0 0.4863,2.0644 1.5,1.5 0 0 0 2.0644,-0.4844 c 0.8936,-1.4421 2.0922,-4.2312 3.1817,-6.8203 1.0895,-2.589 1.9941,-4.8789 1.9941,-4.8789 a 1.5,1.5 0 0 0 -0.8437,-1.9472 z" id="path2907"></path><path style="color:#233831;clip-rule:nonzero;fill:#233831;fill-rule:nonzero;stroke-width:0.1;stroke-linecap:butt;stroke-linejoin:miter;-inkscape-stroke:none" d="m 3634.3887,2866.3594 a 1.5,1.5 0 0 0 -1.5176,1.4824 1.5,1.5 0 0 0 1.4805,1.5176 c 0,0 5.0205,0.155 7.4062,1.0215 a 1.5,1.5 0 0 0 1.9219,-0.8985 1.5,1.5 0 0 0 -0.8965,-1.9219 c -3.3963,-1.2335 -8.3945,-1.2011 -8.3945,-1.2011 z" id="path2908"></path><path style="color:#233831;clip-rule:nonzero;fill:#233831;fill-rule:nonzero;stroke-width:0.1;stroke-linecap:butt;stroke-linejoin:miter;-inkscape-stroke:none" d="m 3622.8809,2867.541 a 1.5,1.5 0 0 0 -1.1446,0.096 c 0,0 -28.9551,15.0411 -24.7343,46.6914 2.4154,18.1182 18.318,58.056 39.3515,81.6895 2.5162,2.8245 6.7716,9.1636 15.3672,13.332 8.5956,4.1684 21.5118,6.1743 41.457,1.2051 a 1.5,1.5 0 0 0 1.0938,-1.8164 1.5,1.5 0 0 0 -1.8184,-1.0938 c -19.4697,4.8508 -31.5434,2.8275 -39.4238,-0.9941 -7.879,-3.8209 -11.587,-9.4312 -14.4336,-12.627 v 0 c -20.4036,-22.9269 -36.3607,-63.1485 -38.6192,-80.0899 -3.9672,-29.7496 23.1367,-43.6289 23.1367,-43.6289 a 1.5,1.5 0 0 0 0.6465,-2.0195 1.5,1.5 0 0 0 -0.8769,-0.7422 z" id="path2909"></path><path style="color:#233831;clip-rule:nonzero;fill:#233831;fill-rule:nonzero;stroke-width:0.1;stroke-linecap:butt;stroke-linejoin:miter;-inkscape-stroke:none" d="m 3714.4746,2960.2598 c -26.2465,0.2151 -47.748,6.2246 -47.748,6.2246 a 1.5,1.5 0 0 0 -1.045,1.8476 1.5,1.5 0 0 0 1.8477,1.043 c 0,0 36.5756,-10.0325 71.8574,-4.2285 -1.6337,4.3863 -7.149,21.815 0.9258,43.0176 a 1.5,1.5 0 0 0 1.9355,0.8672 1.5,1.5 0 0 0 0.8672,-1.9356 c -8.8503,-23.239 -0.3261,-42.6016 -0.3261,-42.6016 a 1.50015,1.50015 0 0 0 -1.1075,-2.08 c -9.1826,-1.6531 -18.4582,-2.226 -27.207,-2.1543 z" id="path2910"></path><path style="color:#233831;clip-rule:nonzero;fill:#233831;fill-rule:nonzero;stroke-width:0.1;stroke-linecap:butt;stroke-linejoin:miter;-inkscape-stroke:none" d="m 3650.1055,2880.7793 a 1.5,1.5 0 0 0 -1.0078,0.5469 1.5,1.5 0 0 0 0.2226,2.1093 c 0,0 5.8479,4.6843 12.6211,17.3165 6.7732,12.6321 14.3352,33.1064 17.2988,64.3789 a 1.5,1.5 0 0 0 1.6368,1.3515 1.5,1.5 0 0 0 1.3515,-1.6347 c -2.9973,-31.6275 -10.6706,-52.5109 -17.6426,-65.5137 -6.972,-13.0029 -13.3789,-18.2305 -13.3789,-18.2305 a 1.5,1.5 0 0 0 -1.1015,-0.3242 z" id="path2911"></path><path style="color:#233831;clip-rule:nonzero;fill:#233831;fill-rule:nonzero;stroke-width:0.1;stroke-linecap:butt;stroke-linejoin:miter;-inkscape-stroke:none" d="m 3696.752,2854.2227 a 1.5,1.5 0 0 0 -1.1485,0 1.5,1.5 0 0 0 -0.8066,1.9629 c 0,0 2.6247,6.2205 2.9394,18.8262 0.3148,12.6056 -1.7411,31.4518 -11.3359,56.2656 a 1.5,1.5 0 0 0 0.8574,1.9395 1.5,1.5 0 0 0 1.9414,-0.8575 c 9.7272,-25.1561 11.8619,-44.415 11.5371,-57.4218 -0.3247,-13.0069 -3.1699,-19.9063 -3.1699,-19.9063 a 1.5,1.5 0 0 0 -0.8144,-0.8105 z" id="path2912"></path><path style="color:#233831;clip-rule:nonzero;fill:#233831;fill-rule:nonzero;stroke-width:0.1;stroke-linecap:butt;stroke-linejoin:miter;-inkscape-stroke:none" d="m 3692.7813,2831.2109 a 1.5,1.5 0 0 0 -1.0508,0.4629 1.5,1.5 0 0 0 0.049,2.1211 c 0,0 1.6084,1.5206 4.1777,5.4043 2.5693,3.8837 6.0206,10.0553 9.4649,19.1328 6.8886,18.1551 13.7496,47.9402 13.4297,94.2676 a 1.5,1.5 0 0 0 1.4902,1.5098 1.5,1.5 0 0 0 1.5098,-1.4883 c 0.322,-46.6325 -6.5847,-76.7986 -13.625,-95.3535 -3.5202,-9.2775 -7.0734,-15.6502 -9.7676,-19.7227 -2.6942,-4.0725 -4.6074,-5.9199 -4.6074,-5.9199 a 1.5,1.5 0 0 0 -1.0703,-0.4141 z" id="path2913"></path><path style="color:#233831;clip-rule:nonzero;fill:#233831;fill-rule:nonzero;stroke-width:0.1;stroke-linecap:butt;stroke-linejoin:miter;-inkscape-stroke:none" d="m 3751.3828,2950.8945 c -2.8655,0.015 -5.6782,0.1075 -8.3496,0.2422 -10.6855,0.539 -19.0898,1.8106 -19.0898,1.8106 a 1.5,1.5 0 0 0 -1.2579,1.707 1.5,1.5 0 0 0 1.7071,1.2598 c 0,0 8.2632,-1.2503 18.791,-1.7813 9.668,-0.4876 21.1136,-0.232 29.6953,1.9512 -1.4261,1.6658 -3.062,4.0885 -3.2168,7.6601 a 1.5,1.5 0 0 0 1.4336,1.5645 1.5,1.5 0 0 0 1.5625,-1.4336 c 0.1741,-4.0193 4.0137,-7.5527 4.0137,-7.5527 a 1.50015,1.50015 0 0 0 -0.5274,-2.5606 c -7.0995,-2.2641 -16.1651,-2.9125 -24.7617,-2.8672 z" id="path2914"></path><path style="color:#233831;clip-rule:nonzero;fill:#233831;fill-rule:nonzero;stroke-width:0.1;stroke-linecap:butt;stroke-linejoin:miter;-inkscape-stroke:none" d="m 3621.2207,2816.1309 a 1.5,1.5 0 0 0 -1.0469,0.4726 c -24.3877,25.9487 -73.3464,99.2541 -71.1406,205.8281 a 1.5,1.5 0 0 0 1.5313,1.4688 1.5,1.5 0 0 0 1.4668,-1.5313 c -2.1862,-105.6258 46.5019,-178.3597 70.3281,-203.7109 a 1.5,1.5 0 0 0 -0.066,-2.1211 1.5,1.5 0 0 0 -1.0723,-0.4062 z" id="path2915"></path><path style="color:#233831;clip-rule:nonzero;fill:#233831;fill-rule:nonzero;stroke-width:0.1;stroke-linecap:butt;stroke-linejoin:miter;-inkscape-stroke:none" d="m 3779.0098,2981.1504 a 1.5,1.5 0 0 0 -2.1211,0.059 1.5,1.5 0 0 0 0.059,2.1211 c 0,0 3.4021,3.2179 6.9726,7.3086 3.5705,4.0906 7.2333,9.2425 7.7989,12.0742 0.1513,0.7531 0.036,2.2147 -0.2247,2.668 -0.1303,0.2267 -0.1093,0.2066 -0.2558,0.2246 -0.1465,0.018 -0.6588,-0.031 -1.5469,-0.5761 0.1371,0.084 -0.2538,-0.2366 -0.6641,-0.7188 -0.4125,-0.485 -0.9449,-1.1537 -1.5664,-1.9258 -1.2428,-1.5441 -2.8472,-3.5091 -4.7285,-5.4121 -3.7625,-3.806 -8.7465,-7.5703 -14.4316,-6.6973 -4.7707,0.7385 -8.8498,4.3424 -13.3593,6.3926 -4.5096,2.0503 -9.1106,2.8902 -15.4942,-1.4511 a 1.5,1.5 0 0 0 -2.084,0.3984 1.5,1.5 0 0 0 0.3985,2.084 c 7.1443,4.8586 13.4021,3.9834 18.4218,1.7011 5.019,-2.2818 9.1403,-5.6277 12.5743,-6.1601 4.0829,-0.627 8.3333,2.2928 11.8418,5.8418 1.7542,1.7745 3.2947,3.6546 4.5253,5.1836 0.6154,0.7645 1.1527,1.44 1.6192,1.9883 0.4664,0.5482 0.7546,0.9459 1.375,1.33 1.2294,0.7547 2.3646,1.134 3.4844,0.9961 1.1198,-0.1379 2.0262,-0.898 2.4902,-1.7051 0.9277,-1.6135 0.8369,-3.3952 0.5645,-4.7519 v 0 c -0.8612,-4.3079 -4.8025,-9.2452 -8.4805,-13.459 -3.6785,-4.2143 -7.1699,-7.5156 -7.1699,-7.5156 z" id="path2916"></path><path style="color:#233831;clip-rule:nonzero;fill:#233831;fill-rule:nonzero;stroke-width:0.1;stroke-linecap:butt;stroke-linejoin:miter;-inkscape-stroke:none" d="m 3780.252,2976.6328 a 1.5,1.5 0 0 0 -0.9922,0.5781 1.5,1.5 0 0 0 0.2832,2.1016 c 0,0 4.6674,3.5605 9.8535,8.2109 5.1861,4.6505 10.884,10.5218 12.7539,14.4336 0.6759,1.4126 0.459,2.2444 0.057,2.6094 -0.4024,0.365 -1.6196,0.7194 -4.0293,-0.2988 a 1.5,1.5 0 0 0 -1.9668,0.7988 1.5,1.5 0 0 0 0.7989,1.9649 c 2.9863,1.2618 5.581,1.2378 7.2129,-0.2422 1.6313,-1.4796 1.6709,-3.9581 0.6347,-6.125 v 0 c -2.3465,-4.9079 -8.1741,-10.632 -13.459,-15.3711 -5.2854,-4.7395 -10.0351,-8.3633 -10.0351,-8.3633 a 1.5,1.5 0 0 0 -1.1113,-0.2949 z" id="path2917"></path><path style="color:#233831;clip-rule:nonzero;fill:#233831;fill-rule:nonzero;stroke-width:0.1;stroke-linecap:butt;stroke-linejoin:miter;-inkscape-stroke:none" d="m 3785.3574,2973.3281 a 1.5,1.5 0 0 0 -2.0547,0.5293 1.5,1.5 0 0 0 0.5293,2.0547 c 0,0 20.5138,12.2729 29.1094,25.3809 0.3444,0.5248 0.3529,1.2383 0.027,1.5976 -0.3256,0.3594 -1.3903,0.8922 -4.1778,0.018 a 1.5,1.5 0 0 0 -1.8789,0.9824 1.5,1.5 0 0 0 0.9805,1.8809 c 3.3635,1.0553 5.8988,0.6784 7.2988,-0.8672 1.4,-1.5456 1.2604,-3.7327 0.2598,-5.2578 -9.3064,-14.192 -30.0938,-26.3184 -30.0938,-26.3184 z" id="path2918"></path><path style="color:#233831;clip-rule:nonzero;fill:#233831;fill-rule:nonzero;stroke-width:0.1;stroke-linecap:butt;stroke-linejoin:miter;-inkscape-stroke:none" d="m 3759.7109,2966.1172 c -8.4422,0.095 -15.7832,0.4648 -15.7832,0.4648 a 1.5,1.5 0 0 0 -1.4238,1.5723 1.5,1.5 0 0 0 1.5742,1.4238 c 0,0 7.2935,-0.3663 15.668,-0.4609 8.3745,-0.095 17.9858,0.1537 21.8887,1.1289 3.0273,0.7554 6.0019,1.6588 10.8125,4.9668 4.8105,3.308 11.388,9.0364 21.1797,19.3301 a 1.5,1.5 0 0 0 2.121,0.055 1.5,1.5 0 0 0 0.053,-2.1211 c -9.8703,-10.3764 -16.5634,-16.2369 -21.6524,-19.7364 -5.0889,-3.4994 -8.6424,-4.6216 -11.7871,-5.4062 -4.8221,-1.2049 -14.2081,-1.3122 -22.6504,-1.2168 z" id="path2919"></path><path style="color:#233831;clip-rule:nonzero;fill:#233831;fill-rule:nonzero;stroke-width:0.1;stroke-linecap:butt;stroke-linejoin:miter;-inkscape-stroke:none" d="m 3808.748,2979.1055 a 1.5,1.5 0 0 0 -1.8457,1.0429 1.5,1.5 0 0 0 1.045,1.8477 c 0,0 2.3716,0.6396 6.3007,3.1582 3.9292,2.5186 9.2921,6.8787 14.9063,14.2441 a 1.5,1.5 0 0 0 2.1016,0.2852 1.5,1.5 0 0 0 0.2851,-2.1035 c -5.8268,-7.6445 -11.4633,-12.2523 -15.6738,-14.9512 -4.2106,-2.6989 -7.1192,-3.5234 -7.1192,-3.5234 z" id="path2920"></path><path style="color:#233831;clip-rule:nonzero;fill:#233831;fill-rule:nonzero;stroke-width:0.1;stroke-linecap:butt;stroke-linejoin:miter;-inkscape-stroke:none" d="m 3819.7598,2977.9082 a 1.5,1.5 0 0 0 -1.8555,1.0293 1.5,1.5 0 0 0 1.0312,1.8555 c 0,0 2.4526,0.6847 5.9844,3.1328 3.5318,2.4481 8.0228,6.6153 11.7832,13.5312 a 1.5,1.5 0 0 0 2.0352,0.6016 1.5,1.5 0 0 0 0.6015,-2.0352 c -3.9985,-7.354 -8.8454,-11.8831 -12.7109,-14.5625 -3.8654,-2.6793 -6.8691,-3.5527 -6.8691,-3.5527 z" id="path2921"></path><path style="color:#233831;clip-rule:nonzero;fill:#233831;fill-rule:nonzero;stroke-width:0.1;stroke-linecap:butt;stroke-linejoin:miter;-inkscape-stroke:none" d="m 3784.7676,2957.2109 a 1.5,1.5 0 0 0 -1.6621,1.3145 1.5,1.5 0 0 0 1.3144,1.6641 c 13.6759,1.5967 32.5342,7.7558 53.8614,26.0195 a 1.5,1.5 0 0 0 2.1152,-0.1641 1.5,1.5 0 0 0 -0.1641,-2.1133 c -21.7388,-18.6162 -41.2187,-25.0574 -55.4648,-26.7207 z" id="path2922"></path><path style="color:#233831;clip-rule:nonzero;fill:#233831;fill-rule:nonzero;stroke-width:0.1;stroke-linecap:butt;stroke-linejoin:miter;-inkscape-stroke:none" d="m 3845.7832,3011.9707 -150.1699,1.5 a 1.50015,1.50015 0 0 0 -1.4785,1.3535 c -0.3056,3.1203 1.4482,6.5062 4.6445,9.3106 3.1963,2.8043 7.938,5.022 13.9941,5.5683 a 1.50015,1.50015 0 0 0 0.1563,0.01 l 126.3496,-1.9492 a 1.50015,1.50015 0 0 0 0.074,0 c 2.8152,-0.1835 5.1192,-1.5877 6.8653,-3.336 1.746,-1.7483 3.0016,-3.8532 3.9023,-5.7031 a 1.5,1.5 0 0 0 -0.6934,-2.0059 1.5,1.5 0 0 0 -2.0039,0.6934 c -0.8083,1.6601 -1.9332,3.4998 -3.3281,4.8965 -1.3924,1.3942 -2.9906,2.3317 -4.9277,2.4609 l -126.1719,1.9473 c -5.4471,-0.5012 -9.5673,-2.4847 -12.2383,-4.8281 -2.1082,-1.8497 -3.0053,-3.7995 -3.3164,-5.4278 l 148.3731,-1.4824 a 1.5,1.5 0 0 0 1.4843,-1.5156 1.5,1.5 0 0 0 -1.5156,-1.4844 z" id="path2923"></path><path style="color:#233831;clip-rule:nonzero;fill:#233831;fill-rule:nonzero;stroke-width:0.1;stroke-linecap:butt;stroke-linejoin:miter;-inkscape-stroke:none" d="m 3895.0547,2882.7207 c -7.1785,-0.011 -13.4193,4.9865 -14.9707,11.9961 -6.1549,27.8096 -22.395,101.1967 -27.7402,125.3477 -0.5171,2.3309 0.068,4.7813 1.5878,6.6289 1.5176,1.8428 3.8019,2.8979 6.1973,2.8359 20.3298,-0.46 74.2396,-1.6789 101.9141,-2.2988 10.5314,-0.2359 19.4379,-7.919 21.2207,-18.3067 5.1219,-29.8295 15.6935,-91.418 19.7207,-114.8789 v 0 c 0.4731,-2.7547 -0.2915,-5.5893 -2.0957,-7.7285 v 0 c -1.8043,-2.1473 -4.4621,-3.3807 -7.2578,-3.3926 -21.7864,-0.04 -75.3036,-0.1492 -98.5703,-0.1992 z m -0.01,3 c 23.2663,0.05 76.7773,0.1592 98.5664,0.1992 1.9234,0.01 3.7409,0.8528 4.9766,2.3242 1.2321,1.4601 1.7575,3.4033 1.4335,5.2872 -4.0269,23.46 -14.5987,85.049 -19.7207,114.8789 -1.5432,8.9923 -9.2155,15.6103 -18.33,15.8145 -27.6765,0.62 -81.592,1.8408 -101.92,2.3008 a 1.50015,1.50015 0 0 0 -0.01,0 c -1.4666,0.038 -2.8664,-0.6071 -3.8028,-1.7442 -0.9317,-1.1324 -1.2915,-2.6432 -0.9746,-4.0723 5.345,-24.15 21.5853,-97.5416 27.7403,-125.3515 1.2505,-5.6504 6.2476,-9.6515 12.0351,-9.6426 z" id="path2924"></path><path style="color:#233831;clip-rule:nonzero;fill:#233831;fill-rule:nonzero;stroke-width:0.1;stroke-linecap:butt;stroke-linejoin:miter;-inkscape-stroke:none" d="m 3927.8672,2931.8984 c -4.5057,0.178 -7.8937,3.2517 -9.3125,5.9297 -5.6854,10.7229 -3.3271,22.3001 1.3476,27.8946 3.0102,3.5989 5.9724,5.2798 8.7852,5.4511 2.8128,0.1714 5.1981,-1.1843 7.002,-2.873 1.7198,-1.6101 3.0061,-3.5619 3.9121,-5.1817 1.0803,2.4702 2.3568,4.411 4.0781,5.2657 2.4561,1.2195 5.195,0.5252 7.4766,-0.9493 4.5625,-2.9486 8.3513,-8.9713 9.5546,-13.9628 v 0 c 1.139,-4.7237 1.0239,-8.8781 -0.2363,-12.1836 -1.2604,-3.3059 -3.7479,-5.7342 -6.9922,-6.7051 v 0 c -4.5372,-1.3631 -8.3926,1.1062 -10.8476,3.6543 -1.055,1.095 -1.8059,2.177 -2.4395,3.1269 -3.8184,-6.8809 -8.2825,-9.6266 -12.3281,-9.4668 z m 0.1191,2.9981 c 3.0898,-0.1221 7.0042,1.7899 10.7969,10.0019 a 1.50015,1.50015 0 0 0 2.707,0.035 c 0,0 1.229,-2.4589 3.3047,-4.6133 2.0757,-2.1544 4.6725,-3.8101 7.8242,-2.8633 2.3697,0.7092 4.0704,2.3269 5.0508,4.8985 0.9804,2.5715 1.1566,6.1267 0.123,10.4121 -0.9731,4.0381 -4.7226,9.8555 -8.2676,12.1465 -1.7724,1.1455 -3.2312,1.42 -4.5136,0.7832 -1.2824,-0.6367 -2.7798,-2.516 -3.836,-6.6406 a 1.50015,1.50015 0 0 0 -2.8535,-0.166 c 0,0 -1.8067,4.5236 -4.6855,7.2187 -1.4395,1.3476 -3.0104,2.1754 -4.7676,2.0684 -1.7572,-0.1071 -3.9781,-1.1668 -6.668,-4.3828 -3.6307,-4.3463 -6.0861,-14.9682 -0.998,-24.5645 0.8752,-1.6519 3.6914,-4.2139 6.7812,-4.3359 z" id="path2925"></path><path style="color:#233831;clip-rule:nonzero;fill:#233831;fill-rule:nonzero;stroke-width:0.1;stroke-linecap:butt;stroke-linejoin:miter;-inkscape-stroke:none" d="m 3934.1445,2924.9824 a 1.5,1.5 0 0 0 -0.9082,0.7031 1.5,1.5 0 0 0 0.5586,2.0469 c 0,0 1.3879,0.7464 2.8145,3.2031 1.4266,2.4568 2.768,6.5512 2.0449,13.1719 a 1.50015,1.50015 0 0 0 2.9805,0.3438 c 0,0 1.3222,-9.7781 7.9199,-14.875 a 1.5,1.5 0 0 0 0.2695,-2.1035 1.5,1.5 0 0 0 -2.1035,-0.2696 c -3.106,2.3995 -4.9611,5.4792 -6.3242,8.3946 -0.4823,-2.573 -1.2937,-4.6187 -2.1934,-6.168 -1.7526,-3.0182 -3.9199,-4.3027 -3.9199,-4.3027 a 1.5,1.5 0 0 0 -1.1387,-0.1446 z" id="path2926"></path></g></svg>