<svg xmlns="http://www.w3.org/2000/svg" xmlns:svg="http://www.w3.org/2000/svg" width="4665.0503" height="4021.4668" viewBox="0 0 4665.0503 4021.4668" xml:space="preserve" style="clip-rule:evenodd;fill-rule:evenodd;stroke-linecap:round;stroke-linejoin:round;stroke-miterlimit:1.5" id="svg1990"><defs id="defs1990"></defs>
    
<g id="notion-developer-daily-presenting-product" style="fill:#233831;stroke-width:0.1" transform="matrix(9.9999981,0,0,9.9999981,-53862.459,-5193.5314)"><path style="color:#233831;clip-rule:nonzero;fill:#233831;fill-rule:nonzero;stroke-width:0.1;stroke-linecap:butt;stroke-linejoin:miter;-inkscape-stroke:none" d="m 5501.8477,632.61523 a 1.5,1.5 0 0 0 -1.8575,1.02735 c 0,0 -1.4781,5.07935 -0.4902,11.15039 0.9879,6.07104 4.6295,13.3017 14.3281,17.16015 a 1.5,1.5 0 0 0 1.9473,-0.83789 1.5,1.5 0 0 0 -0.8379,-1.94921 c -8.7713,-3.48954 -11.607,-9.51007 -12.4766,-14.85352 -0.8695,-5.34345 0.4121,-9.83984 0.4121,-9.83984 a 1.5,1.5 0 0 0 -1.0253,-1.85743 z" id="path1781"></path><path style="color:#233831;clip-rule:nonzero;fill:#233831;fill-rule:nonzero;stroke-width:0.1;stroke-linecap:butt;stroke-linejoin:miter;-inkscape-stroke:none" d="m 5518.0332,634.65039 a 1.5,1.5 0 0 0 -1.1699,1.76953 c 0.5907,2.89893 0.5062,5.11946 0.123,6.51367 -0.3832,1.39422 -0.9518,1.79668 -1.2656,1.86133 -0.3138,0.0646 -0.9689,-0.0669 -1.8691,-1.23242 -0.9003,-1.16557 -1.8582,-3.25905 -2.4688,-6.32422 a 1.5,1.5 0 0 0 -1.7637,-1.17773 1.5,1.5 0 0 0 -1.1777,1.76367 c 0.6744,3.38532 1.7251,5.87605 3.0352,7.57226 1.31,1.69622 3.0671,2.70512 4.8496,2.33789 1.7824,-0.36722 2.9931,-1.9696 3.5527,-4.00585 0.5596,-2.03626 0.5831,-4.67119 -0.076,-7.90625 a 1.5,1.5 0 0 0 -1.7695,-1.17188 z" id="path1782"></path><path style="color:#233831;clip-rule:nonzero;fill:#233831;fill-rule:nonzero;stroke-width:0.1;stroke-linecap:butt;stroke-linejoin:miter;-inkscape-stroke:none" d="m 5513.582,619.24805 c -1.0639,-0.17313 -1.9259,-0.0913 -2.5449,0.0664 -0.619,0.15774 -1.1152,0.47071 -1.1152,0.47071 a 1.5,1.5 0 0 0 -0.3848,2.08593 1.5,1.5 0 0 0 2.0859,0.38477 c 0,0 -0.078,0.0259 0.1543,-0.0332 0.232,-0.0591 0.6525,-0.12267 1.3223,-0.0137 1.3396,0.218 3.7176,1.16347 7.168,4.45313 a 1.5,1.5 0 0 0 2.1211,-0.0508 1.5,1.5 0 0 0 -0.051,-2.11914 c -3.7396,-3.56534 -6.628,-4.89789 -8.7559,-5.24414 z" id="path1783"></path><path style="color:#233831;clip-rule:nonzero;fill:#233831;fill-rule:nonzero;stroke-width:0.1;stroke-linecap:butt;stroke-linejoin:miter;-inkscape-stroke:none" d="m 5479.1328,619.95898 c -3.7271,-0.3523 -7.5034,1.45543 -10.457,3.2168 -2.9537,1.76138 -5.0996,3.60352 -5.0996,3.60352 a 1.5,1.5 0 0 0 -0.1621,2.11523 1.5,1.5 0 0 0 2.1152,0.16211 c 0,0 1.9697,-1.68436 4.6836,-3.30273 2.7138,-1.61838 6.1558,-3.04329 8.6387,-2.8086 a 1.5,1.5 0 0 0 1.6347,-1.35156 1.5,1.5 0 0 0 -1.3535,-1.63477 z" id="path1784"></path><path style="color:#233831;clip-rule:nonzero;fill:#233831;fill-rule:nonzero;stroke-width:0.1;stroke-linecap:butt;stroke-linejoin:miter;-inkscape-stroke:none" d="m 5484.3281,636.38281 a 1.5,1.5 0 0 0 -1.2011,1.75 c 0.7986,4.28346 0.6646,7.2108 0.1582,8.7793 -0.2533,0.78425 -0.5758,1.20502 -0.8321,1.40625 -0.2563,0.20123 -0.4571,0.25967 -0.8301,0.2207 -0.7459,-0.0779 -2.1587,-0.89316 -3.5078,-2.63867 -1.3491,-1.74551 -2.6496,-4.32723 -3.5019,-7.55664 a 1.5,1.5 0 0 0 -1.834,-1.06641 1.5,1.5 0 0 0 -1.0664,1.83203 c 0.9426,3.57159 2.3812,6.4946 4.0293,8.62696 1.6481,2.13236 3.4905,3.57003 5.5683,3.78711 1.039,0.10853 2.1419,-0.17502 2.9961,-0.84571 0.8543,-0.67068 1.448,-1.65418 1.8321,-2.84375 0.7682,-2.37912 0.7889,-5.68346 -0.062,-10.25 a 1.5,1.5 0 0 0 -1.7481,-1.20117 z" id="path1785"></path><path style="color:#233831;clip-rule:nonzero;fill:#233831;fill-rule:nonzero;stroke-width:0.1;stroke-linecap:butt;stroke-linejoin:miter;-inkscape-stroke:none" d="m 5466.418,604.86328 c -2.4429,-0.0875 -4.5817,0.17846 -6.4551,0.74219 -3.7468,1.12745 -6.3537,3.47798 -8.0215,6.22265 -3.3356,5.48935 -3.2447,12.45837 -3.1484,16.12891 a 1.50015,1.50015 0 0 0 0,0.002 c 0.2134,7.9434 -1.4708,12.38274 -2.6543,14.90625 -2.3934,-4.12968 -5.4614,-6.29162 -8.4121,-6.9414 -3.5936,-0.79134 -6.6897,0.23764 -8.3789,1.6582 a 1.50015,1.50015 0 0 0 0,0.002 c -2.1746,1.83017 -3.3122,4.33687 -3.7285,6.94727 -0.4163,2.6104 -0.159,5.35604 0.416,7.96484 1.1499,5.21682 3.4245,9.76847 5.1719,11.79883 4.1257,4.80202 8.8407,5.49917 12.2676,4.76953 1.281,-0.27277 2.2,-0.76675 3.1074,-1.22265 -0.2909,3.66563 -0.052,7.50589 0.5136,10.76562 0.7186,4.13777 1.6622,7.25781 1.6622,7.25781 a 1.5,1.5 0 0 0 1.8711,1 1.5,1.5 0 0 0 1.0019,-1.86914 c 0,0 -0.8917,-2.94741 -1.5781,-6.90039 -0.6865,-3.95297 -1.1252,-8.89738 -0.3418,-12.58593 a 1.50015,1.50015 0 0 0 -2.4395,-1.45313 c 0,0 -1.8092,1.51836 -4.4199,2.07422 -2.6107,0.55586 -5.8449,0.31096 -9.3691,-3.79102 -1.0125,-1.17609 -3.4781,-5.7814 -4.5156,-10.48828 -0.5187,-2.35344 -0.7156,-4.76112 -0.3828,-6.84765 0.3327,-2.08653 1.1488,-3.82018 2.6992,-5.125 0.6818,-0.57257 3.1998,-1.59859 5.8027,-1.02539 2.6039,0.5734 5.553,2.50241 7.7696,8.01562 a 1.50015,1.50015 0 0 0 2.6562,0.24414 c 0,0 4.6032,-7.30425 4.2832,-19.23437 v -0.002 c -0.094,-3.57376 0,-10.02396 2.7129,-14.49023 1.3572,-2.23345 3.2886,-3.99475 6.3242,-4.9082 3.0357,-0.91346 7.257,-0.94455 13.0762,0.6582 a 1.5,1.5 0 0 0 1.8437,-1.04883 1.5,1.5 0 0 0 -1.0468,-1.84375 c -3.0929,-0.85187 -5.8403,-1.29336 -8.2832,-1.38086 z" id="path1786"></path><path style="color:#233831;clip-rule:nonzero;fill:#233831;fill-rule:nonzero;stroke-width:0.1;stroke-linecap:butt;stroke-linejoin:miter;-inkscape-stroke:none" d="m 5517.2891,593.72656 a 1.5,1.5 0 0 0 -1.7598,1.18555 c -1.2707,6.52531 -4.002,10.4626 -7.3652,12.91211 -3.3633,2.44951 -7.4584,3.41662 -11.5,3.57226 -8.0833,0.3113 -15.6914,-2.65234 -15.6914,-2.65234 a 1.5,1.5 0 0 0 -1.9454,0.8457 1.5,1.5 0 0 0 0.8457,1.94532 c 0,0 8.0271,3.20132 16.9063,2.85937 4.4396,-0.17097 9.1571,-1.23614 13.1504,-4.14453 3.9933,-2.90839 7.1606,-7.6545 8.5449,-14.76367 a 1.5,1.5 0 0 0 -1.1855,-1.75977 z" id="path1787"></path><path style="color:#233831;clip-rule:nonzero;fill:#233831;fill-rule:nonzero;stroke-width:0.1;stroke-linecap:butt;stroke-linejoin:miter;-inkscape-stroke:none" d="m 5519.7344,600.06445 a 1.5,1.5 0 0 0 -2.1094,0.22461 1.5,1.5 0 0 0 0.2246,2.10938 c 0,0 3.0258,2.38382 6.3203,9.22851 3.2946,6.8447 6.7107,18.03892 6.9629,35.31641 0.08,5.77837 0.5538,37.33561 -22.457,51.49219 -3.3103,2.0372 -11.6162,3.68227 -20.6641,2.65429 -9.0479,-1.02797 -18.8938,-4.57108 -26.0332,-12.19922 a 1.5,1.5 0 0 0 -2.1211,-0.0703 1.5,1.5 0 0 0 -0.07,2.1211 c 7.7606,8.29185 18.3147,12.04138 27.8867,13.1289 9.5721,1.08753 18.1045,-0.32928 22.5742,-3.08008 24.7078,-15.20058 23.9644,-48.36959 23.8848,-54.08984 a 1.50015,1.50015 0 0 0 0,-0.002 c -0.2577,-17.65448 -3.7618,-29.30498 -7.2598,-36.57227 -3.4979,-7.26729 -7.1386,-10.26172 -7.1386,-10.26172 z" id="path1788"></path><path style="color:#233831;clip-rule:nonzero;fill:#233831;fill-rule:nonzero;stroke-width:0.1;stroke-linecap:butt;stroke-linejoin:miter;-inkscape-stroke:none" d="m 5490.0723,676.82422 a 1.50015,1.50015 0 0 0 -1.5293,1.75 c 0.6637,3.91485 2.2754,6.73666 4.416,8.4707 2.1405,1.73405 4.7585,2.32519 7.1836,1.9961 4.8501,-0.6582 9.1423,-5.044 8.4277,-10.82032 a 1.50015,1.50015 0 0 0 -1.7715,-1.28906 c -0.1542,0.0297 -1.6101,0.12152 -3.2871,0.13281 -1.677,0.0113 -3.7335,-0.0113 -5.7265,-0.0469 -3.9861,-0.0712 -7.7129,-0.19336 -7.7129,-0.19336 z m 2.0097,3.05078 c 1.2953,0.0393 2.7259,0.0903 5.6485,0.14258 2.0069,0.0359 4.0822,0.0585 5.8027,0.0469 0.8769,-0.006 1.3149,-0.0691 1.9531,-0.0937 -0.2526,3.37139 -2.7848,5.69553 -5.748,6.09766 -1.6849,0.22865 -3.4087,-0.153 -4.8906,-1.35352 -1.1589,-0.93879 -2.0927,-2.63154 -2.7657,-4.83984 z" id="path1789"></path><path style="color:#233831;clip-rule:nonzero;fill:#233831;fill-rule:nonzero;stroke-width:0.1;stroke-linecap:butt;stroke-linejoin:miter;-inkscape-stroke:none" d="m 5525.1562,593.69922 a 1.5,1.5 0 0 0 -1.0488,0.46484 1.5,1.5 0 0 0 0.049,2.1211 c 0,0 4.3052,4.19818 5.3731,9.7539 a 1.5,1.5 0 0 0 1.7559,1.18946 1.5,1.5 0 0 0 1.1894,-1.75586 c -1.2921,-6.72227 -6.2461,-11.35938 -6.2461,-11.35938 a 1.5,1.5 0 0 0 -1.0723,-0.41406 z" id="path1790"></path><path style="color:#233831;clip-rule:nonzero;fill:#233831;fill-rule:nonzero;stroke-width:0.1;stroke-linecap:butt;stroke-linejoin:miter;-inkscape-stroke:none" d="m 5506.4687,577.79297 a 1.5,1.5 0 0 0 -1.1445,0.0879 1.5,1.5 0 0 0 -0.6601,2.01562 c 0,0 1.5529,3.0977 1.8925,6.83594 0.3397,3.73825 -0.3597,7.78757 -5.0625,10.53906 -7.5009,4.38572 -14.2658,2.26008 -20.8398,-0.13086 -3.2872,-1.19556 -6.4551,-2.47523 -9.5977,-2.90625 -3.1426,-0.43101 -6.3785,0.123 -9.08,2.56836 a 1.5,1.5 0 0 0 -0.1055,2.11719 1.5,1.5 0 0 0 2.1172,0.10547 c 2.0334,-1.84064 4.0647,-2.1746 6.6621,-1.81836 2.5974,0.35624 5.6407,1.53802 8.9785,2.75195 6.6755,2.42788 14.8125,4.91329 23.3809,-0.0977 5.7572,-3.3685 6.9335,-8.99415 6.5332,-13.40039 -0.4004,-4.40625 -2.2032,-7.92188 -2.2032,-7.92188 a 1.5,1.5 0 0 0 -0.8711,-0.74609 z" id="path1791"></path><path style="color:#233831;clip-rule:nonzero;fill:#233831;fill-rule:nonzero;stroke-width:0.1;stroke-linecap:butt;stroke-linejoin:miter;-inkscape-stroke:none" d="m 5469.9238,580.87305 c -4.6574,-0.36384 -8.355,0.75614 -11.0058,2.18945 -3.5345,1.91108 -5.3301,4.43359 -5.3301,4.43359 a 1.5,1.5 0 0 0 0.3594,2.08985 1.5,1.5 0 0 0 2.0898,-0.35742 c 0,0 1.3486,-1.92793 4.3066,-3.52735 2.9581,-1.59942 7.4046,-2.81541 13.7442,-1.03711 4.4715,1.25409 7.767,2.51518 10.793,2.76758 3.0259,0.2524 5.8455,-0.8801 8.0527,-3.89844 a 1.5,1.5 0 0 0 -0.3262,-2.09765 1.5,1.5 0 0 0 -2.0957,0.32617 c -1.7928,2.45166 -3.0588,2.87354 -5.3828,2.67969 -2.324,-0.19386 -5.642,-1.37911 -10.2305,-2.66602 -1.7626,-0.49442 -3.4221,-0.78107 -4.9746,-0.90234 z" id="path1792"></path><path style="color:#233831;clip-rule:nonzero;fill:#233831;fill-rule:nonzero;stroke-width:0.1;stroke-linecap:butt;stroke-linejoin:miter;-inkscape-stroke:none" d="m 5471.5371,571.91797 c -7.0322,-0.24436 -12.7969,2.1543 -12.7969,2.1543 a 1.5,1.5 0 0 0 -0.8281,1.95312 1.5,1.5 0 0 0 1.9531,0.82617 c 0,0 9.5095,-3.73475 17.9746,-0.78906 a 1.5,1.5 0 0 0 1.9102,-0.92383 1.5,1.5 0 0 0 -0.9238,-1.91015 c -2.4587,-0.85558 -4.945,-1.2291 -7.2891,-1.31055 z" id="path1793"></path><path style="color:#233831;clip-rule:nonzero;fill:#233831;fill-rule:nonzero;stroke-width:0.1;stroke-linecap:butt;stroke-linejoin:miter;-inkscape-stroke:none" d="m 5454.4102,599.84766 c 0,0 -4.5157,1.27444 -9.1055,5.52343 -4.5898,4.249 -9.3476,11.55662 -10.1875,23.37891 a 1.5,1.5 0 0 0 1.3887,1.60352 1.5,1.5 0 0 0 1.6035,-1.39063 c 0.79,-11.11968 5.1297,-17.59263 9.2324,-21.39062 4.1027,-3.798 7.873,-4.83594 7.873,-4.83594 a 1.5,1.5 0 0 0 1.043,-1.84766 1.5,1.5 0 0 0 -1.8476,-1.04101 z" id="path1794"></path><path style="color:#233831;clip-rule:nonzero;fill:#233831;fill-rule:nonzero;stroke-width:0.1;stroke-linecap:butt;stroke-linejoin:miter;-inkscape-stroke:none" d="m 5443.416,590.64844 c 0,0 -6.2803,1.27969 -12.8848,6.68359 -6.6044,5.4039 -13.6247,15.01287 -15.4492,31.35938 -0.917,8.27512 -1.0758,26.28471 -10.6699,37.99414 a 1.5,1.5 0 0 0 0.209,2.11132 1.5,1.5 0 0 0 2.1113,-0.21093 c 10.5252,-12.84574 10.4673,-31.77473 11.3301,-39.5625 v -0.002 c 1.7459,-15.63819 8.2964,-24.39831 14.3691,-29.36718 6.0731,-4.96909 11.5782,-6.06641 11.5782,-6.06641 a 1.5,1.5 0 0 0 1.1738,-1.76562 1.5,1.5 0 0 0 -1.7676,-1.17383 z" id="path1795"></path><path style="color:#233831;clip-rule:nonzero;fill:#233831;fill-rule:nonzero;stroke-width:0.1;stroke-linecap:butt;stroke-linejoin:miter;-inkscape-stroke:none" d="m 5474.2207,560.00586 c -3.1954,-0.0525 -6.4483,0.29318 -9.6387,0.98437 -12.4377,2.69463 -24.2135,10.51705 -28.9472,20.99805 -10.6548,0.82189 -18.5048,4.7011 -24.0157,10.30469 -5.6726,5.76803 -8.9314,13.21842 -10.7929,20.73437 -1.8616,7.51596 -2.3318,15.12344 -2.3575,21.32813 -0.026,6.20469 0.3877,11.15123 0.3536,12.75586 -0.2492,11.71901 -3.4393,16.20388 -6.2227,18.29101 -1.3917,1.04357 -2.7283,1.5034 -3.834,1.89453 -0.5528,0.19557 -1.0411,0.32366 -1.6113,0.73243 -0.2851,0.20438 -0.6264,0.53441 -0.8027,1.03515 -0.1763,0.50075 -0.1081,1.05928 0.043,1.44922 v 0 c 1.4471,3.74286 4.8775,5.42286 7.7031,6.12891 1.3347,0.33351 2.5494,0.45153 3.5039,0.50586 -0.4527,2.8919 -1.8083,4.48882 -3.1191,5.68554 -0.7663,0.69955 -1.4971,1.15914 -2.1133,2.03516 -0.3081,0.43801 -0.6024,1.16937 -0.4317,1.91406 0.1708,0.7447 0.6491,1.22911 1.1485,1.60938 4.0073,3.05219 9.2364,2.59963 13.3183,1.56836 2.004,-0.50628 3.7635,-1.17626 5.0586,-1.72852 0.09,5.65945 -1.845,10.39629 -3.8808,13.95117 -1.1485,2.00543 -2.2771,3.61649 -3.0332,4.92578 -0.3781,0.65465 -0.6924,1.19981 -0.8223,1.95313 -0.065,0.37666 -0.074,0.86382 0.1641,1.36328 0.2385,0.49946 0.7242,0.87293 1.1484,1.03516 5.8372,2.22685 12.3997,1.33608 17.5098,-0.0117 3.2402,-0.85464 5.4827,-1.75084 7.0195,-2.41992 0.2722,0.91015 0.6909,1.776 1.3555,2.49804 0.5943,0.64575 1.3917,1.18162 2.3535,1.3711 0.9618,0.18948 2.0301,-0.004 3.0058,-0.54688 a 1.50015,1.50015 0 0 0 0,-0.002 c 3.9224,-2.18436 6.7657,-7.39029 8.9648,-12.05859 1.588,-3.37094 2.0582,-4.92675 2.5782,-6.4043 0.4848,0.47198 0.9891,0.93294 1.4863,1.36523 1.2205,1.06118 2.3203,1.88477 2.3203,1.88477 a 1.5,1.5 0 0 0 2.0996,-0.30078 1.5,1.5 0 0 0 -0.3008,-2.09961 c 0,0 -1.0234,-0.76823 -2.1504,-1.74805 -1.1269,-0.97982 -2.3651,-2.33637 -2.5449,-2.69922 a 1.50015,1.50015 0 0 0 -2.7695,0.20117 c 0,0 -1.3233,4.0458 -3.4316,8.52149 -2.1079,4.47449 -5.1837,9.3077 -7.711,10.7168 -0.4742,0.26376 -0.7424,0.26919 -0.9687,0.2246 -0.2263,-0.0446 -0.4684,-0.17652 -0.7266,-0.45703 -0.5163,-0.56101 -0.9234,-1.72151 -0.8965,-2.57226 a 1.50015,1.50015 0 0 0 -2.1738,-1.38867 c 0,0 -3.4804,1.74897 -8.2754,3.01367 -4.5111,1.18982 -10.0738,1.79921 -14.7695,0.33203 0.063,-0.12848 0.042,-0.11689 0.1308,-0.27149 0.633,-1.09607 1.8163,-2.80047 3.0391,-4.93554 2.4455,-4.27014 5.1033,-10.41202 4.2383,-17.95117 a 1.50015,1.50015 0 0 0 -2.2032,-1.14844 c 0,0 -2.8777,1.55054 -6.5507,2.47851 -3.5338,0.89279 -7.5632,1.05633 -10.4063,-0.86328 0.2821,-0.26405 0.5905,-0.54366 1.2422,-1.13867 1.7675,-1.61366 4.1612,-4.46534 4.2988,-9.32031 a 1.50015,1.50015 0 0 0 -1.5937,-1.53906 c 0,0 -2.0648,0.12122 -4.3867,-0.45899 -2.061,-0.51499 -4.0701,-1.55992 -5.1953,-3.55273 0.076,-0.0293 0.053,-0.0243 0.1386,-0.0547 1.0721,-0.37924 2.8333,-0.97284 4.6328,-2.32227 3.5992,-2.69885 7.1631,-8.36299 7.4239,-20.62695 0.046,-2.15787 -0.3786,-6.74512 -0.3536,-12.80664 0.025,-6.06152 0.4936,-13.45069 2.2696,-20.62109 1.7759,-7.17041 4.8515,-14.09664 10.0195,-19.35157 5.168,-5.25492 12.4242,-8.91937 22.9434,-9.53906 A 1.50015,1.50015 0 0 0 5438,583.92969 c 3.9367,-9.58858 15.2783,-17.42135 27.2168,-20.00782 11.9385,-2.58646 24.1095,-0.0822 30.3926,10.27149 a 1.50015,1.50015 0 0 0 2.3437,0.28125 c 0,0 2.4031,-2.36259 5.916,-3.17578 3.513,-0.8132 8.04,-0.32318 13.1153,6.26562 v 0 c 2.2183,2.88778 5.665,4.7002 9.0059,5.70313 2.6259,0.7883 5.0203,0.94451 7.1035,0.63867 -0.4845,0.70143 -1.1068,1.47898 -1.6777,2.08008 -0.5947,0.62607 -1.3701,1.06723 -1.0489,0.95703 a 1.50015,1.50015 0 0 0 0.3789,2.91406 c 0,0 0.276,-0.0188 1.0743,0.44727 0.7983,0.46606 1.9533,1.40715 3.1386,3.40234 2.3708,3.99039 4.7945,12.26619 4.0371,28.81055 a 1.50015,1.50015 0 0 0 0,0.002 c -0.2267,5.00074 -0.1891,20.95354 13.1582,35.25195 -0.2913,0.10084 -0.1868,0.1586 -0.6015,0.23047 -1.4912,0.25843 -3.6895,0.16491 -6.6387,-1.66406 a 1.50015,1.50015 0 0 0 -2.2012,0.76563 c 0,0 -1.0507,2.96623 -0.9004,7.5625 0.1396,4.26678 1.4026,10.08429 5.1973,16.54687 -1.4058,0.83205 -4.8926,2.60793 -9.2207,0.0859 a 1.50015,1.50015 0 0 0 -2.2461,1.14453 c 0,0 -0.2557,2.51038 -0.3691,5.38281 -0.057,1.43622 -0.079,2.96617 -0.014,4.35156 0.048,1.02252 0.2347,1.84618 0.4375,2.67969 -0.1765,0.1064 -0.3613,0.22548 -0.7461,0.36914 -1.0321,0.38532 -2.6445,0.73472 -4.416,0.76367 -3.543,0.0579 -7.6014,-1.0278 -10.1563,-5.13867 a 1.5,1.5 0 0 0 -2.0664,-0.48242 1.5,1.5 0 0 0 -0.4824,2.06641 c 3.1952,5.14112 8.512,6.62402 12.7539,6.55468 2.121,-0.0347 4.0025,-0.42541 5.416,-0.95312 0.7068,-0.26386 1.292,-0.54528 1.7989,-0.94141 0.2534,-0.19806 0.5014,-0.42169 0.7129,-0.79687 0.2114,-0.37518 0.354,-1.03066 0.125,-1.60547 a 1.50015,1.50015 0 0 0 0,-0.004 c -0.133,-0.33071 -0.3199,-1.40795 -0.379,-2.65429 -0.059,-1.24635 -0.041,-2.70757 0.014,-4.08985 0.066,-1.66623 0.1336,-2.16879 0.2149,-3.13476 6.1371,2.13329 11.5781,-1.71485 11.5781,-1.71485 a 1.50015,1.50015 0 0 0 0.3828,-2.02539 c -4.2414,-6.60609 -5.4024,-12.38298 -5.5371,-16.50195 -0.067,-2.06175 0.1143,-3.67233 0.3125,-4.76953 2.7458,1.26919 5.1611,1.46673 6.9414,1.1582 2.1613,-0.37457 3.5273,-1.43945 3.5273,-1.43945 a 1.50015,1.50015 0 0 0 0.1153,-2.24024 c -14.1162,-13.88006 -13.9395,-29.66522 -13.7149,-34.62109 v -0.002 c 0.7724,-16.87717 -1.6234,-25.71432 -4.455,-30.48047 -1.3034,-2.19383 -2.6914,-3.43918 -3.8809,-4.20313 0.6962,-0.74102 1.4065,-1.60798 1.9883,-2.46484 0.6011,-0.88542 1.1252,-1.57876 1.2383,-2.71875 0.028,-0.285 0.028,-0.64003 -0.1524,-1.04883 -0.1802,-0.4088 -0.6027,-0.80576 -1.0176,-0.96484 -0.8296,-0.31817 -1.3726,-0.0966 -1.9414,0.11523 -1.0539,0.3925 -4.0088,0.37918 -6.9179,-0.49414 -2.9091,-0.87331 -5.8386,-2.50799 -7.4903,-4.6582 a 1.50015,1.50015 0 0 0 0,-0.002 c -5.5947,-7.26318 -11.7084,-8.38972 -16.1679,-7.35742 -2.9738,0.68839 -4.8336,1.96094 -6.0235,2.91016 -5.3929,-7.70623 -13.908,-11.1328 -22.9492,-11.28125 z" id="path1800"></path><path style="color:#233831;clip-rule:nonzero;fill:#233831;fill-rule:nonzero;stroke-width:0.1;stroke-linecap:butt;stroke-linejoin:miter;-inkscape-stroke:none" d="m 5534.7363,668.10352 a 1.5,1.5 0 0 0 -0.4414,2.07617 c 0,0 0.4155,0.64008 0.8672,1.41015 0.4517,0.77008 0.9435,1.7897 0.9863,1.94141 a 1.5,1.5 0 0 0 1.8516,1.03711 1.5,1.5 0 0 0 1.0352,-1.85156 c -0.2672,-0.9453 -0.7944,-1.80786 -1.2852,-2.64453 -0.4908,-0.83668 -0.9395,-1.52735 -0.9395,-1.52735 a 1.5,1.5 0 0 0 -2.0742,-0.4414 z" id="path1801"></path><path style="color:#233831;clip-rule:nonzero;fill:#233831;fill-rule:nonzero;stroke-width:0.1;stroke-linecap:butt;stroke-linejoin:miter;-inkscape-stroke:none" d="m 5425.1758,661.50781 a 1.5,1.5 0 0 0 -1.9356,0.86914 c 0,0 -1.142,2.99798 -2.8984,6.17578 -1.7564,3.17781 -4.3288,6.36124 -5.9922,6.88868 a 1.5,1.5 0 0 0 -0.9766,1.88281 1.5,1.5 0 0 0 1.8829,0.97656 c 3.4866,-1.10556 5.8348,-4.90243 7.7109,-8.29687 1.8761,-3.39444 3.0781,-6.56055 3.0781,-6.56055 a 1.5,1.5 0 0 0 -0.8691,-1.93555 z" id="path1804"></path><path style="color:#233831;clip-rule:nonzero;fill:#233831;fill-rule:nonzero;stroke-width:0.1;stroke-linecap:butt;stroke-linejoin:miter;-inkscape-stroke:none" d="m 5437.25,676.30273 a 1.5,1.5 0 0 0 -1.7832,1.14844 c 0,0 -2.6425,12.29752 -15.2695,23.09961 a 1.5,1.5 0 0 0 -0.1641,2.11524 1.5,1.5 0 0 0 2.1152,0.16406 c 13.3329,-11.40589 16.25,-24.74219 16.25,-24.74219 a 1.5,1.5 0 0 0 -1.1484,-1.78516 z" id="path1805"></path><path style="color:#233831;clip-rule:nonzero;fill:#233831;fill-rule:nonzero;stroke-width:0.1;stroke-linecap:butt;stroke-linejoin:miter;-inkscape-stroke:none" d="m 5451.9785,704.98047 a 1.50015,1.50015 0 0 0 -1.1992,0.45898 c 0,0 -1.8216,1.90026 -3.6934,4.09571 -0.9358,1.09772 -1.8869,2.26855 -2.6504,3.34765 -0.762,1.07715 -1.3889,1.88536 -1.5664,3.10352 -0.074,0.49586 -0.2674,1.55068 -0.092,2.91601 0.1757,1.36534 0.7036,3.06184 1.9043,5.14063 2.4015,4.15757 7.4642,9.91307 18.1387,18.23242 3.9505,3.07696 9.0187,5.01918 13.8828,5.01563 4.8642,-0.004 9.6269,-2.14735 12.1543,-7.08204 1.1498,-2.24574 1.9401,-5.21803 2.9942,-6.73828 0.527,-0.76012 0.9474,-1.05295 1.4355,-1.10742 0.4882,-0.0545 1.3927,0.1462 2.8379,1.28516 a 1.50015,1.50015 0 0 0 0,0.002 c 3.5492,2.79265 4.4258,7.01563 4.4258,7.01563 a 1.50015,1.50015 0 0 0 2.1797,1.03125 c 0,0 0.765,-0.42573 1.5722,-1.25782 0.8072,-0.83209 1.7629,-2.13455 2.4434,-4.01172 1.3609,-3.75433 1.5903,-9.71322 -2.0938,-18.76171 a 1.5,1.5 0 0 0 -1.955,-0.82422 1.5,1.5 0 0 0 -0.8243,1.95507 c 3.496,8.5865 3.1049,13.69951 2.0508,16.60743 -0.3872,1.06834 -0.8595,1.59971 -1.3047,2.16406 -0.7338,-1.84775 -1.9779,-4.1818 -4.6386,-6.27539 -1.7848,-1.40654 -3.4351,-2.0876 -5.0254,-1.91016 -1.5903,0.17744 -2.7717,1.22991 -3.5684,2.37891 -1.5934,2.298 -2.339,5.39982 -3.1992,7.08008 -2.0125,3.9293 -5.4449,5.44627 -9.4883,5.44922 -4.0433,0.003 -8.5956,-1.70378 -12.0351,-4.38282 -10.5055,-8.18763 -15.3037,-13.76231 -17.3848,-17.36523 -1.0405,-1.80146 -1.4077,-3.09384 -1.5273,-4.02344 -0.1197,-0.9296 -0.01,-1.47716 0.084,-2.0918 a 1.50015,1.50015 0 0 0 0,-0.006 c -0.016,0.11188 0.3722,-0.8511 1.0469,-1.80468 0.6746,-0.95358 1.5827,-2.07724 2.4843,-3.13477 1.238,-1.45201 1.8093,-2.03411 2.4551,-2.72461 5.2281,6.75202 12.412,11.59367 19.086,14.72656 3.5801,1.68059 6.9951,2.89172 9.8652,3.67969 2.8701,0.78797 5.1293,1.17104 6.7226,1.12305 7.1846,-0.2149 10.6366,-3.60598 11.7774,-6.94531 1.1408,-3.33934 0.2793,-6.49024 0.2793,-6.49024 a 1.5,1.5 0 0 0 -1.8281,-1.07617 1.5,1.5 0 0 0 -1.0762,1.82813 c 0,0 0.5843,2.42816 -0.2149,4.76757 -0.7992,2.33942 -2.6719,4.72787 -9.0273,4.91797 -0.9466,0.0285 -3.1418,-0.27686 -5.8398,-1.01758 -2.698,-0.74071 -5.9655,-1.89779 -9.3829,-3.50195 -6.8346,-3.20832 -14.2491,-8.21138 -19.0937,-15.15234 a 1.50015,1.50015 0 0 0 -1.1133,-0.63672 z" id="path1857"></path><path style="color:#233831;clip-rule:nonzero;fill:#233831;fill-rule:nonzero;stroke-width:0.1;stroke-linecap:butt;stroke-linejoin:miter;-inkscape-stroke:none" d="m 5433.1895,772.86914 a 1.5,1.5 0 0 0 -0.8418,1.94922 c 0,0 9.7889,24.56654 6.789,67.9668 0,8e-4 1e-4,10e-4 0,0.002 -0.098,1.33976 0.6474,1.9159 1.291,2.57031 0.6441,0.65481 1.4533,1.3382 2.3575,2.13672 1.8083,1.59704 3.9831,3.62288 5.6406,6.16992 a 1.5,1.5 0 0 0 2.0742,0.43946 1.5,1.5 0 0 0 0.4395,-2.07618 c -1.9126,-2.93895 -4.3184,-5.14604 -6.17,-6.78125 -0.9258,-0.8176 -1.7164,-1.49933 -2.2011,-1.99218 -0.48,-0.48797 -0.3981,-0.82835 -0.4395,-0.25391 3.0383,-43.93451 -6.9922,-69.28906 -6.9922,-69.28906 a 1.5,1.5 0 0 0 -1.9472,-0.8418 z" id="path1860"></path><path style="color:#233831;clip-rule:nonzero;fill:#233831;fill-rule:nonzero;stroke-width:0.1;stroke-linecap:butt;stroke-linejoin:miter;-inkscape-stroke:none" d="m 5443.6484,716.99023 c 0,0 -15.283,6.34489 -28.5214,23.79297 -0.7376,0.97221 -3.2155,3.91879 -6.2813,8.70117 -3.0658,4.78239 -6.7817,11.48233 -10.2363,20.26954 -6.9092,17.57442 -12.7676,43.4974 -10.3633,79.10937 a 1.50015,1.50015 0 0 0 0,0.002 c 0.084,1.21972 0.6162,4.12043 2.2871,8.14649 1.6709,4.02606 4.4832,9.03702 9.1172,13.92773 9.268,9.78142 25.819,18.98828 54.6016,18.98828 a 1.5,1.5 0 0 0 1.5,-1.5 1.5,1.5 0 0 0 -1.5,-1.5 c -28.1474,0 -43.7294,-8.87472 -52.4239,-18.05078 -4.3472,-4.58803 -6.9735,-9.27638 -8.5254,-13.01562 -1.5512,-3.73778 -2.0277,-6.66726 -2.0644,-7.19922 v -0.002 c -2.3753,-35.18691 3.4109,-60.63113 10.164,-77.8086 3.3767,-8.5889 6.9956,-15.11016 9.9688,-19.74804 2.9732,-4.63789 5.239,-7.31152 6.1465,-8.50782 12.7815,-16.84588 27.2793,-22.83203 27.2793,-22.83203 a 1.5,1.5 0 0 0 0.8105,-1.96094 1.5,1.5 0 0 0 -1.959,-0.8125 z" id="path1861"></path><path style="color:#233831;clip-rule:nonzero;fill:#233831;fill-rule:nonzero;stroke-width:0.1;stroke-linecap:butt;stroke-linejoin:miter;-inkscape-stroke:none" d="m 5399.3223,918.5 a 1.5,1.5 0 0 0 -1.5,1.5 1.5,1.5 0 0 0 1.5,1.5 h 451.9297 a 1.5,1.5 0 0 0 1.5,-1.5 1.5,1.5 0 0 0 -1.5,-1.5 z" id="path1914"></path><path style="color:#233831;clip-rule:nonzero;fill:#233831;fill-rule:nonzero;stroke-width:0.1;stroke-linecap:butt;stroke-linejoin:miter;-inkscape-stroke:none" d="m 5571.0488,756.4668 c -18.2072,14.48367 -27.2246,31.07422 -27.2246,31.07422 a 1.5,1.5 0 0 0 0.6016,2.0332 1.5,1.5 0 0 0 2.0351,-0.60156 c 0,0 8.4653,-15.45153 25.502,-29.33985 1.2661,1.15934 5.9632,5.4315 12.5508,10.60547 6.8055,5.34512 14.6408,10.82466 21.0508,13 -1.8233,2.46999 -15.6697,21.13518 -28.5821,33.10547 a 1.5,1.5 0 0 0 -0.08,2.11914 1.5,1.5 0 0 0 2.1192,0.082 c 14.18,-13.14544 30.1933,-35.11914 30.1933,-35.11914 a 1.50015,1.50015 0 0 0 -0.8808,-2.3457 c -5.4312,-1.23299 -14.5344,-7.36366 -21.9668,-13.20117 -7.4325,-5.83751 -13.3652,-11.33789 -13.3652,-11.33789 a 1.50015,1.50015 0 0 0 -1.9532,-0.0742 z" id="path1915"></path><path style="color:#233831;clip-rule:nonzero;fill:#233831;fill-rule:nonzero;stroke-width:0.1;stroke-linecap:butt;stroke-linejoin:miter;-inkscape-stroke:none" d="m 5645.7539,741.41797 c -6.0875,0.3162 -13.4792,3.89074 -19.7187,7.42969 -3.1198,1.76947 -5.9265,3.54365 -8.0489,4.93359 -2.1224,1.38994 -3.7007,2.47807 -3.8672,2.58008 a 1.50015,1.50015 0 0 0 0,0.002 c -3.804,2.34016 -6.205,3.08523 -7.6113,3.22656 -1.405,0.14121 -1.7592,-0.14508 -2.3125,-0.45312 v 0 c -5.7434,-3.20191 -10.376,-3.01674 -13.4727,-1.86524 -3.0969,1.15162 -4.7363,3.26954 -4.7363,3.26954 a 1.5,1.5 0 0 0 0.2774,2.10156 1.5,1.5 0 0 0 2.1035,-0.27735 c 0,0 1.0698,-1.41462 3.4004,-2.28125 2.3305,-0.86663 5.8429,-1.18426 10.9687,1.67383 0.5457,0.30362 1.9936,1.02532 4.0723,0.81641 2.0782,-0.20887 4.8464,-1.1727 8.8808,-3.6543 v -0.002 c 0.579,-0.35492 1.8556,-1.26099 3.9414,-2.62695 2.087,-1.36675 4.844,-3.10822 7.8867,-4.83399 6.0855,-3.45155 13.4121,-6.78417 18.3946,-7.04297 0.3831,-0.0199 0.7402,0.0345 0.9023,0.0918 -0.01,-7.5e-4 0.043,0.16201 -0.248,0.73437 -0.3236,0.63621 -0.9979,1.59135 -2.1407,2.82032 0.1771,-0.1908 -0.1777,0.13143 -0.6269,0.41406 -0.4493,0.28263 -1.0736,0.65318 -1.8184,1.08789 -1.4895,0.86941 -3.4626,1.99706 -5.5879,3.26367 -4.2506,2.53323 -9.0904,5.58365 -12.1347,8.4961 -0.086,0.0815 -1.1515,0.85538 -2.6758,1.76171 -1.5257,0.9071 -3.6083,2.0645 -6.1348,3.37696 -5.053,2.62491 -11.8889,5.87142 -19.7051,9.03515 a 1.5,1.5 0 0 0 -0.8281,1.95313 1.5,1.5 0 0 0 1.9531,0.82812 c 7.9139,-3.20326 14.8259,-6.48571 19.9629,-9.15429 2.5685,-1.33429 4.6933,-2.51448 6.2852,-3.46094 1.5918,-0.94647 2.5542,-1.53985 3.2148,-2.16992 a 1.50015,1.50015 0 0 0 0,-0.002 c 2.6357,-2.52154 7.4038,-5.58962 11.5957,-8.08789 2.0959,-1.24913 4.0537,-2.36627 5.5644,-3.24804 0.7554,-0.44089 1.3976,-0.8218 1.9043,-1.14063 0.5068,-0.31882 0.797,-0.44931 1.2266,-0.91211 1.2615,-1.35687 2.0975,-2.48009 2.6172,-3.50195 0.5199,-1.02223 0.7623,-2.01638 0.4883,-2.98828 -0.2741,-0.97191 -1.0959,-1.63156 -1.834,-1.91016 -0.7382,-0.2786 -1.461,-0.31835 -2.1387,-0.2832 z" id="path1922"></path><path style="color:#233831;clip-rule:nonzero;fill:#233831;fill-rule:nonzero;stroke-width:0.1;stroke-linecap:butt;stroke-linejoin:miter;-inkscape-stroke:none" d="m 5639.8516,735.39844 c -16.6638,2.24855 -31.6563,18.63672 -31.6563,18.63672 a 1.5,1.5 0 0 0 0.074,2.11914 1.5,1.5 0 0 0 2.1192,-0.0742 c 0,0 14.9277,-15.6925 29.8633,-17.70899 0.2457,-0.033 0.6563,-0.026 0.9179,0.041 0.2616,0.067 0.2914,0.12583 0.293,0.12891 0,0.003 0.118,0.20899 -0.166,0.9707 -0.2841,0.76171 -0.9745,1.96108 -2.2793,3.56836 a 1.5,1.5 0 0 0 0.2187,2.10937 1.5,1.5 0 0 0 2.1114,-0.21875 c 1.4301,-1.76171 2.2979,-3.16854 2.7617,-4.41211 0.4637,-1.24356 0.5169,-2.4426 0.01,-3.41015 -0.5071,-0.96755 -1.4319,-1.44455 -2.205,-1.64258 -0.7731,-0.19803 -1.4763,-0.18591 -2.0606,-0.10742 z" id="path1923"></path><path style="color:#233831;clip-rule:nonzero;fill:#233831;fill-rule:nonzero;stroke-width:0.1;stroke-linecap:butt;stroke-linejoin:miter;-inkscape-stroke:none" d="m 5635.084,729.36719 c -2.7539,-0.0774 -5.8063,1.17451 -9.0703,2.93359 -3.2648,1.75947 -6.6963,4.08929 -9.8418,6.41992 -6.2911,4.66127 -11.4473,9.34375 -11.4473,9.34375 a 1.5,1.5 0 0 0 -0.1035,2.11914 1.5,1.5 0 0 0 2.1191,0.10157 c 0,0 5.0679,-4.59832 11.2168,-9.1543 3.0745,-2.27799 6.419,-4.53952 9.4805,-6.18945 3.0615,-1.64994 5.8869,-2.62364 7.5625,-2.57618 0.9306,0.0263 2.1989,0.24977 2.6758,0.64258 0.2384,0.19641 0.3665,0.35606 0.416,0.84571 0.05,0.48964 -0.06,1.35082 -0.6074,2.62695 a 1.5,1.5 0 0 0 0.7871,1.9707 1.5,1.5 0 0 0 1.9687,-0.78711 c 0.6773,-1.57787 0.9574,-2.91308 0.836,-4.11328 -0.1214,-1.2002 -0.7239,-2.22491 -1.4942,-2.85937 -1.5398,-1.26835 -3.4065,-1.2935 -4.4961,-1.32422 z" id="path1924"></path><path style="color:#233831;clip-rule:nonzero;fill:#233831;fill-rule:nonzero;stroke-width:0.1;stroke-linecap:butt;stroke-linejoin:miter;-inkscape-stroke:none" d="m 5625.8008,727.90625 c -0.643,0.0211 -1.1488,0.10033 -1.377,0.11523 -2.6878,0.17518 -5.6731,1.76816 -9.0039,3.91993 -3.3315,2.15221 -6.9126,4.93039 -10.2265,7.68359 -3.0802,2.55899 -3.4958,3.09223 -5.6641,5.08008 1.4627,-3.02395 2.9099,-6.42241 3.5254,-9.5918 a 1.50015,1.50015 0 0 0 0,-0.002 c 0.3089,-1.59783 0.2879,-2.97016 -0.076,-4.13672 -0.3641,-1.16656 -1.1261,-2.12287 -2.1133,-2.62695 -1.9734,-1.00778 -4.3316,-0.24395 -6.0586,1.43945 -11.2399,10.93422 -22.6289,28.35156 -22.6289,28.35156 a 1.5,1.5 0 0 0 0.4317,2.07617 1.5,1.5 0 0 0 2.0781,-0.43164 c 0,0 11.3909,-17.31994 22.2109,-27.8457 1.0828,-1.05622 2.1383,-1.15454 2.6016,-0.91797 0.2316,0.11829 0.4452,0.3112 0.6132,0.84961 0.1681,0.53841 0.2353,1.42666 -0.01,2.67383 -1.2704,6.53799 -7.3242,16.28515 -7.3242,16.28515 a 1.50015,1.50015 0 0 0 2.3144,1.87696 c 0,0 5.4946,-5.35911 12.0117,-10.77344 3.2586,-2.70717 6.7722,-5.42388 9.9375,-7.46875 3.1654,-2.04487 6.0786,-3.35038 7.5703,-3.44727 0.7836,-0.0512 1.9914,-0.15076 2.5703,0.0117 0.2895,0.0813 0.2847,0.12596 0.2832,0.12305 0,-0.003 0.1052,0.22222 -0.1504,0.96289 a 1.5,1.5 0 0 0 0.9297,1.90625 1.5,1.5 0 0 0 1.9063,-0.92773 c 0.4094,-1.18683 0.4762,-2.32212 0,-3.27735 -0.4742,-0.95522 -1.3834,-1.45582 -2.1601,-1.67383 -0.7768,-0.218 -1.5582,-0.25549 -2.2012,-0.23437 z" id="path1989"></path><path style="color:#233831;clip-rule:nonzero;fill:#233831;fill-rule:nonzero;stroke-width:0.1;stroke-linecap:butt;stroke-linejoin:miter;-inkscape-stroke:none" d="m 5637.0449,681.88867 a 1.5,1.5 0 0 0 -1.1269,0.22461 c 0,0 -1.7149,1.14798 -3.7852,2.32031 -2.0703,1.17233 -4.6946,2.30148 -5.4902,2.36524 a 1.50015,1.50015 0 0 0 -1.0449,2.4414 c 0,0 1.671,2.18687 4.3593,3.06055 1.3442,0.43684 3.0447,0.49293 4.666,-0.33984 1.6214,-0.83277 3.0838,-2.44308 4.3633,-5.02149 a 1.5,1.5 0 0 0 -0.6777,-2.00976 1.5,1.5 0 0 0 -2.0098,0.67578 c -1.0955,2.20759 -2.181,3.24377 -3.0449,3.6875 -0.8639,0.44372 -1.5871,0.40846 -2.3691,0.1543 -0.348,-0.11309 -0.6004,-0.36208 -0.918,-0.55274 1.2307,-0.52768 2.4635,-1.18277 3.6445,-1.85156 2.1822,-1.23567 3.9746,-2.43555 3.9746,-2.43555 a 1.5,1.5 0 0 0 0.4141,-2.08203 1.5,1.5 0 0 0 -0.9551,-0.63672 z" id="path1990"></path><path style="color:#233831;clip-rule:nonzero;fill:#233831;fill-rule:nonzero;stroke-width:0.1;stroke-linecap:butt;stroke-linejoin:miter;-inkscape-stroke:none" d="m 5643.6465,-375.41211 c -2.0528,10e-6 -3.7528,1.34807 -4.8418,3.12695 -1.089,1.77889 -1.6953,4.08094 -1.6953,6.60157 0,2.52062 0.6063,4.82268 1.6953,6.60156 1.089,1.77888 2.789,3.12695 4.8418,3.12695 2.0528,0 3.7508,-1.34807 4.8398,-3.12695 1.089,-1.77888 1.6973,-4.08094 1.6973,-6.60156 0,-2.52063 -0.6083,-4.82268 -1.6973,-6.60157 -1.089,-1.77888 -2.787,-3.12694 -4.8398,-3.12695 z m 0,2.99609 c 0.7298,10e-6 1.5486,0.49543 2.2832,1.69532 0.7345,1.19989 1.2558,3.01229 1.2558,5.03711 0,2.02482 -0.5213,3.83722 -1.2558,5.03711 -0.7346,1.19988 -1.5534,1.69531 -2.2832,1.69531 -0.7298,0 -1.5506,-0.49543 -2.2852,-1.69531 -0.7345,-1.19989 -1.2558,-3.01229 -1.2558,-5.03711 0,-2.02482 0.5213,-3.83722 1.2558,-5.03711 0.7346,-1.19989 1.5554,-1.69531 2.2852,-1.69532 z" id="ellipse1990" transform="matrix(0.98355586,0.18060419,-0.1806053,0.98355565,0,0)"></path><path style="color:#233831;clip-rule:nonzero;fill:#233831;fill-rule:nonzero;stroke-width:0.1;stroke-linecap:butt;stroke-linejoin:miter;-inkscape-stroke:none" d="m 5665.6348,-334.75781 c -2.2379,-10e-6 -4.2149,1.22349 -5.5489,3.00195 -1.3339,1.77846 -2.1035,4.13433 -2.1035,6.70703 0,2.5727 0.7696,4.93053 2.1035,6.70899 1.334,1.77845 3.311,3.00196 5.5489,3.00195 2.2379,1e-5 4.2148,-1.2235 5.5488,-3.00195 1.334,-1.77846 2.1055,-4.13629 2.1055,-6.70899 0,-2.5727 -0.7715,-4.92857 -2.1055,-6.70703 -1.334,-1.77846 -3.3109,-3.00196 -5.5488,-3.00195 z m 0,2.95898 c 1.1715,0 2.2813,0.61805 3.1816,1.81836 0.9003,1.20032 1.5117,2.95888 1.5117,4.93164 0,1.97276 -0.6114,3.73133 -1.5117,4.93164 -0.9003,1.20032 -2.0101,1.81837 -3.1816,1.81836 -1.1716,1e-5 -2.2814,-0.61804 -3.1817,-1.81836 -0.9003,-1.20031 -1.5117,-2.95888 -1.5117,-4.93164 0,-1.97276 0.6114,-3.73132 1.5117,-4.93164 0.9003,-1.20031 2.0101,-1.81836 3.1817,-1.81836 z" id="ellipse1991" transform="rotate(9.9384568)"></path><path style="color:#233831;clip-rule:nonzero;fill:#233831;fill-rule:nonzero;stroke-width:0.1;stroke-linecap:butt;stroke-linejoin:miter;-inkscape-stroke:none" d="m 5625.6836,654.37891 c -2.088,0.0305 -3.9629,0.22265 -3.9629,0.22265 a 1.5,1.5 0 0 0 -1.3398,1.64453 1.5,1.5 0 0 0 1.6445,1.33985 c 0,0 1.7737,-0.17882 3.7031,-0.20703 0.9647,-0.0141 1.966,0.0123 2.7461,0.10546 0.7801,0.0932 1.35,0.39166 1.1953,0.25977 a 1.5,1.5 0 0 0 2.1133,-0.16797 1.5,1.5 0 0 0 -0.168,-2.11523 c -0.8897,-0.75839 -1.7831,-0.83537 -2.7851,-0.95508 -1.0021,-0.11971 -2.1025,-0.14222 -3.1465,-0.12695 z" id="path1991"></path><path style="color:#233831;clip-rule:nonzero;fill:#233831;fill-rule:nonzero;stroke-width:0.1;stroke-linecap:butt;stroke-linejoin:miter;-inkscape-stroke:none" d="m 5625.8574,654.40234 a 1.5,1.5 0 0 0 -1.7324,1.22266 c 0,0 -0.7563,4.32859 -2.7891,8.81055 -2.0328,4.48195 -5.235,8.8155 -9.8496,9.48632 a 1.5,1.5 0 0 0 -1.2676,1.69922 1.5,1.5 0 0 0 1.6993,1.26953 c 6.1854,-0.89917 9.9332,-6.32826 12.1504,-11.21679 2.2172,-4.88854 3.0117,-9.53906 3.0117,-9.53906 a 1.5,1.5 0 0 0 -1.2227,-1.73243 z" id="path1992"></path><path style="color:#233831;clip-rule:nonzero;fill:#233831;fill-rule:nonzero;stroke-width:0.1;stroke-linecap:butt;stroke-linejoin:miter;-inkscape-stroke:none" d="m 5625.1895,602.36328 c -6.4947,-0.12849 -12.5309,1.42123 -16.7598,3.82813 -10.0349,5.71796 -14.3897,13.3333 -15.8887,20.01171 -1.499,6.67842 -0.2842,12.29353 0.6524,14.7168 2.8417,7.3407 8.1514,10.49933 13.2246,11.44922 5.0731,0.94989 9.9657,-0.0909 12.5058,-0.55664 13.5613,-2.48727 22.7947,-8.15802 25.3028,-9.75977 1.3017,9.35125 3.3108,15.27722 5.1464,18.79688 0.9922,1.90241 1.9253,3.14851 2.6446,3.9375 0.7193,0.78899 1.3496,1.19531 1.3496,1.19531 a 1.50015,1.50015 0 0 0 2.2695,-1.41211 c -0.3038,-3.5373 0.8017,-5.88422 2.0547,-6.94531 1.253,-1.06109 2.4976,-1.14277 3.8652,0.0918 2.4637,2.23044 3.3747,5.60882 3.1075,8.66797 -0.2674,3.05962 -1.7817,5.54767 -3.3848,6.19726 -1.2234,0.49687 -2.5689,1.14773 -3.6992,2.19336 -1.1294,1.04488 -2.0148,2.58119 -2.0547,4.45117 -0.5994,25.76075 4.006,40.29081 10.1094,48.69727 6.1034,8.40646 13.724,10.47501 18.1582,11.44922 10.267,2.25626 16.5141,0.58441 20.1543,-1.88477 3.6403,-2.46918 4.6035,-5.80469 4.6035,-5.80469 a 1.50015,1.50015 0 0 0 -1.0293,-1.83398 c -7.1807,-2.08206 -11.7944,-10.37048 -14.666,-20.10156 -2.8716,-9.73108 -3.9774,-20.61141 -4.6992,-27.13477 -1.8571,-16.80547 -2.8234,-29.60819 -4.4453,-39.33008 -1.6219,-9.72114 -3.9056,-16.4993 -8.6953,-20.86914 -5.8555,-5.34975 -11.6957,-5.91154 -15.8946,-4.96679 -2.499,0.56227 -4.1997,1.4875 -5.3847,2.25976 -5.1343,-9.89236 -13.5269,-14.93063 -21.9473,-16.625 -2.2171,-0.44614 -4.4328,-0.67592 -6.5976,-0.71875 z m -0.062,3.01758 c 1.9979,0.0311 4.0398,0.23441 6.0683,0.64258 8.1139,1.63268 16.0104,6.38295 20.6426,16.49414 a 1.50015,1.50015 0 0 0 2.3516,0.5039 c 0,0 2.1567,-1.87447 5.5878,-2.64648 3.4312,-0.77201 7.9884,-0.51933 13.2129,4.25391 3.9895,3.63918 6.1748,9.65788 7.7578,19.14648 1.583,9.4886 2.559,22.31048 4.4219,39.16797 0.7182,6.49062 1.8212,17.54414 4.8047,27.6543 2.7941,9.46858 7.301,18.29167 15.1171,21.48828 -0.4632,0.80738 -1.2561,1.85098 -2.832,2.91992 -2.8572,1.93806 -8.1051,3.57423 -17.8281,1.4375 -4.2958,-0.9438 -10.8165,-2.62993 -16.3731,-10.2832 -5.5565,-7.65328 -10.1295,-21.48903 -9.539,-46.86524 a 1.50015,1.50015 0 0 0 0,-0.004 c 0.021,-1.03217 0.4015,-1.67409 1.0937,-2.31446 0.6922,-0.64036 1.7245,-1.1821 2.791,-1.61523 3.187,-1.29141 4.911,-4.88043 5.2461,-8.7168 0.3352,-3.83637 -0.7884,-8.17173 -4.0839,-11.1543 -2.3124,-2.08743 -5.6119,-2.02119 -7.8164,-0.15429 -1.4329,1.21338 -2.4082,3.10668 -2.8575,5.41992 -0.3066,-0.4719 -0.5153,-0.62946 -0.8613,-1.29297 -1.7681,-3.39017 -3.921,-9.46426 -5.1602,-19.94336 a 1.50015,1.50015 0 0 0 -2.3339,-1.06445 c 0,0 -11.3259,7.6862 -26.1563,10.40625 -2.6198,0.4803 -7.0828,1.3692 -11.4121,0.55859 -4.3293,-0.81061 -8.4703,-3.10275 -10.9785,-9.58203 -0.6635,-1.71672 -1.8639,-7.01299 -0.5254,-12.97656 1.3385,-5.96325 5.0733,-12.72061 14.4473,-18.0625 3.6235,-2.06235 9.219,-3.5113 15.2129,-3.41797 z" id="path1993"></path><path d="m 5645.3825,639.695 c 0,0 -11.54,7.856 -26.73,10.642 -5.16,0.946 -18.71,3.862 -24.06,-9.958 -1.6,-4.14 -4.83,-21.824 14.58,-32.884 10.47,-5.959 34.37,-6.688 44.03,14.398 0,0 9.72,-8.495 20.8,1.628 8.78,8.009 8.94,25.594 12.66,59.257 1.44,13.014 4.42,43.867 20.44,48.512 0,0 -3,11.011 -22.99,6.618 -8.73,-1.918 -28.28,-7.51 -27.09,-58.647 0.06,-2.904 2.53,-4.359 4.82,-5.289 4.79,-1.941 6.48,-12.156 0.72,-17.369 -3.68,-3.322 -9.09,0.295 -8.42,8.095 0,0 -6.25,-3.777 -8.76,-25.003 z" style="fill:#233831;stroke-width:0.1" id="path1994"></path><path style="color:#233831;clip-rule:nonzero;fill:#233831;fill-rule:nonzero;stroke-width:0.1;stroke-linecap:butt;stroke-linejoin:miter;-inkscape-stroke:none" d="m 5611.9219,681.76367 c -0.566,0.20042 -0.7978,0.50504 -1,0.76172 -0.2022,0.25668 -0.3575,0.51574 -0.5157,0.80664 -0.6327,1.1636 -1.3122,2.88518 -2.3066,5.07031 -1.9888,4.37027 -5.12,10.43479 -10.3535,15.73047 -1.1718,1.18722 -4.4604,4.36556 -5.1015,8.85352 -0.3206,2.24398 0.096,4.8174 1.7246,7.35156 1.6285,2.53416 4.4062,5.0389 8.7715,7.48633 2.7125,1.52128 7.4571,2.5113 12.8672,1.74023 5.4094,-0.77097 11.4341,-3.448 16.0293,-9.49804 v -0.002 c 2.0686,-2.7148 4.2948,-8.59408 4.2051,-14.9414 0.4772,-0.0193 0.9696,0.008 1.4355,-0.0391 8.7679,-0.88756 15.6153,-6.2871 15.6153,-6.28711 a 1.5,1.5 0 0 0 0.2636,-2.10546 1.5,1.5 0 0 0 -2.1054,-0.26172 c 0,0 -6.3771,4.88878 -14.0742,5.66797 -3.8486,0.38959 -7.9622,-0.20653 -11.9473,-2.91211 -3.9852,-2.70559 -7.8989,-7.59273 -11.0625,-16.01172 -0.1222,-0.32418 -0.246,-0.64491 -0.6191,-1.00391 -0.3731,-0.35899 -1.2583,-0.60666 -1.8242,-0.40625 z m 0.4883,4.39649 c 3.1847,7.62789 7.0876,12.62163 11.3359,15.50586 3.1158,2.11537 6.3624,3.07064 9.498,3.37304 0.066,5.62294 -2.213,11.39775 -3.5937,13.20899 a 1.50015,1.50015 0 0 0 0,0.002 c -4.0946,5.3923 -9.294,7.66357 -14.0664,8.34375 -4.7724,0.68018 -9.169,-0.373 -10.9765,-1.38672 -4.0748,-2.28457 -6.4434,-4.51369 -7.7149,-6.49219 -1.2714,-1.97849 -1.5068,-3.69854 -1.2773,-5.30468 0.4587,-3.2111 3.0768,-5.96349 4.2656,-7.16797 v -0.002 c 5.6153,-5.6828 8.9033,-12.09806 10.9492,-16.59375 0.7307,-1.60569 1.1411,-2.52794 1.5801,-3.48632 z" id="path1995"></path><path d="m 5634.7825,703.697 c 0.51,6.462 -2.08,13.021 -3.94,15.461 -8.69,11.444 -22.45,9.892 -26.97,7.357 -16.88,-9.464 -7.42,-18.937 -5.06,-21.328 10.85,-10.979 12.84,-24.96 14.15,-21.485 5.77,15.361 14.22,19.798 21.82,19.995 z" style="fill:#233831;stroke-width:0.1" id="path1996"></path><path style="color:#233831;clip-rule:nonzero;fill:#233831;fill-rule:nonzero;stroke-width:0.1;stroke-linecap:butt;stroke-linejoin:miter;-inkscape-stroke:none" d="m 5632.4824,715.20117 a 1.5,1.5 0 0 0 -1.1094,0.29492 1.5,1.5 0 0 0 -0.2832,2.10157 c 0,0 4.1088,5.55602 9.2071,8.07617 a 1.5,1.5 0 0 0 2.0097,-0.67969 1.5,1.5 0 0 0 -0.6796,-2.00977 c -4.0417,-1.99784 -8.1524,-7.20703 -8.1524,-7.20703 a 1.5,1.5 0 0 0 -0.9922,-0.57617 z" id="path1997"></path><path style="color:#233831;clip-rule:nonzero;fill:#233831;fill-rule:nonzero;stroke-width:0.1;stroke-linecap:butt;stroke-linejoin:miter;-inkscape-stroke:none" d="m 5661.7598,713.89844 a 1.5,1.5 0 0 0 -2.0352,0.59961 c 0,0 -1.1146,2.04717 -2.7226,4.36523 -1.6081,2.31806 -3.8065,4.87221 -5.3516,5.7207 a 1.5,1.5 0 0 0 -0.5918,2.03516 1.5,1.5 0 0 0 2.0351,0.59375 c 2.5249,-1.3865 4.6637,-4.17449 6.3731,-6.63867 1.7094,-2.46419 2.8926,-4.64063 2.8926,-4.64063 a 1.5,1.5 0 0 0 -0.5996,-2.03515 z" id="path1998"></path><path id="circle1998" style="fill:#233831;stroke-width:0.1" d="m 5658.1752,736.70709 a 2.3310001,2.3310001 0 0 1 -2.331,2.331 2.3310001,2.3310001 0 0 1 -2.331,-2.331 2.3310001,2.3310001 0 0 1 2.331,-2.331 2.3310001,2.3310001 0 0 1 2.331,2.331 z"></path><path id="circle1999" style="fill:#233831;stroke-width:0.1" d="m 5660.5063,757.60773 a 2.3310001,2.3310001 0 0 1 -2.331,2.331 2.3310001,2.3310001 0 0 1 -2.331,-2.331 2.3310001,2.3310001 0 0 1 2.331,-2.331 2.3310001,2.3310001 0 0 1 2.331,2.331 z"></path><path id="circle2000" style="fill:#233831;stroke-width:0.1" d="m 5661.0444,781.46228 a 2.3310001,2.3310001 0 0 1 -2.331,2.331 2.3310001,2.3310001 0 0 1 -2.331,-2.331 2.3310001,2.3310001 0 0 1 2.331,-2.331 2.3310001,2.3310001 0 0 1 2.331,2.331 z"></path><path style="color:#233831;clip-rule:nonzero;fill:#233831;fill-rule:nonzero;stroke-width:0.1;stroke-linecap:butt;stroke-linejoin:miter;-inkscape-stroke:none" d="m 5647.2812,755.15625 a 1.5,1.5 0 0 0 -1.33,1.65234 c 0,0 1.121,10.33949 0.9414,35.97461 a 1.5,1.5 0 0 0 1.4902,1.51172 1.5,1.5 0 0 0 1.5098,-1.49023 c 0.1803,-25.72883 -0.959,-36.31836 -0.959,-36.31836 a 1.5,1.5 0 0 0 -1.6524,-1.33008 z" id="path2000"></path><path style="color:#233831;clip-rule:nonzero;fill:#233831;fill-rule:nonzero;stroke-width:0.1;stroke-linecap:butt;stroke-linejoin:miter;-inkscape-stroke:none" d="m 5693.7832,737.42773 a 1.5,1.5 0 0 0 -1.0762,0.39649 1.5,1.5 0 0 0 -0.088,2.11914 c 0,0 7.0465,7.66577 11.6895,18.26562 a 1.5,1.5 0 0 0 1.9766,0.77344 1.5,1.5 0 0 0 0.7714,-1.97656 c -4.877,-11.13412 -12.2304,-19.0957 -12.2304,-19.0957 a 1.5,1.5 0 0 0 -1.043,-0.48243 z" id="path2001"></path><path style="color:#233831;clip-rule:nonzero;fill:#233831;fill-rule:nonzero;stroke-width:0.1;stroke-linecap:butt;stroke-linejoin:miter;-inkscape-stroke:none" d="m 5691.0469,775.89648 a 1.5,1.5 0 0 0 -1.336,1.64844 c 0,0 0.3444,3.30867 0.127,7.18555 -0.2174,3.87687 -1.1592,8.23104 -2.9414,10.06836 -0.6777,0.69782 -0.7545,1.05586 -2.2735,1.68359 -1.5189,0.62774 -4.4241,1.31661 -9.9257,1.66797 -2.3818,0.15203 -11.7882,1.32301 -22.7246,2.32227 -10.9365,0.99925 -23.2685,1.80334 -30.586,1.24023 -1.2504,-0.096 -3.0247,-0.47194 -4.7558,-1.75781 -1.7312,-1.28587 -3.4829,-3.49647 -4.6016,-7.5586 a 1.5,1.5 0 0 0 -1.8457,-1.04882 1.5,1.5 0 0 0 -1.0469,1.84375 c 1.2613,4.57986 3.4088,7.46624 5.7051,9.17187 2.2963,1.70563 4.6768,2.21585 6.3164,2.3418 7.7825,0.59889 20.0968,-0.24185 31.0879,-1.2461 10.991,-1.00424 20.7943,-2.19648 22.6426,-2.31445 5.6783,-0.36264 8.8573,-1.05436 10.8808,-1.89062 2.0236,-0.83627 2.947,-2.02306 3.2793,-2.36524 a 1.50015,1.50015 0 0 0 0,-0.002 c 2.8778,-2.96668 3.5506,-7.83917 3.7832,-11.98828 0.2327,-4.14912 -0.1386,-7.66602 -0.1386,-7.66602 a 1.5,1.5 0 0 0 -1.6465,-1.33594 z" id="path2002"></path><path style="color:#233831;clip-rule:nonzero;fill:#233831;fill-rule:nonzero;stroke-width:0.1;stroke-linecap:butt;stroke-linejoin:miter;-inkscape-stroke:none" d="m 5686.1836,806.08203 c -0.2361,-0.0238 -0.4262,0.0252 -0.6055,0.0391 -0.3585,0.0278 -0.712,0.0927 -1.1347,0.18164 -0.8455,0.17789 -1.9475,0.46044 -3.377,0.80664 -2.8589,0.69241 -7.0016,1.64121 -12.5488,2.45508 -11.0945,1.62775 -27.7903,2.7136 -50.791,0.0352 -1.5061,-0.17603 -3.5103,0.38426 -5.0957,2.375 -1.5855,1.99074 -3.1125,5.2818 -4.9571,11.06641 -1.2862,4.04195 -5.9952,20.52067 -7.2207,50.61132 a 1.5,1.5 0 0 0 1.4375,1.5586 1.5,1.5 0 0 0 1.5606,-1.4375 c 1.2145,-29.82328 5.8663,-46.00823 7.08,-49.82227 1.7955,-5.63038 3.3083,-8.67966 4.4454,-10.10742 1.137,-1.42776 1.5384,-1.36465 2.4023,-1.26367 23.2593,2.70855 40.2412,1.61587 51.5742,-0.0469 5.6665,-0.83137 9.9258,-1.80677 12.8203,-2.50781 1.4473,-0.35052 2.5607,-0.63387 3.2891,-0.78711 0.1969,-0.0414 0.2718,-0.0471 0.4043,-0.0684 0.7309,0.64899 1.9537,2.29013 3.1738,4.58399 1.2994,2.44276 2.6389,5.43667 3.8379,8.33007 2.398,5.78682 4.2344,11.16016 4.2344,11.16016 a 1.5,1.5 0 0 0 1.9043,0.93359 1.5,1.5 0 0 0 0.9355,-1.90429 c 0,0 -1.8607,-5.44472 -4.3027,-11.33789 -1.221,-2.94659 -2.5866,-6.00807 -3.9609,-8.5918 -1.3738,-2.58264 -2.6313,-4.66621 -4.2227,-5.86523 -0.3652,-0.27607 -0.6467,-0.37274 -0.8828,-0.39649 z" id="path2003"></path><path style="color:#233831;clip-rule:nonzero;fill:#233831;fill-rule:nonzero;stroke-width:0.1;stroke-linecap:butt;stroke-linejoin:miter;-inkscape-stroke:none" d="m 5622.6855,823.33789 a 1.5,1.5 0 0 0 -1.8769,0.99023 c 0,0 -8.5318,27.62051 -9.3457,68.33985 a 1.5,1.5 0 0 0 1.4687,1.5293 1.5,1.5 0 0 0 1.5313,-1.46875 c 0.8061,-40.32859 9.2129,-67.51368 9.2129,-67.51368 a 1.5,1.5 0 0 0 -0.9903,-1.87695 z" id="path2004"></path><path style="color:#233831;clip-rule:nonzero;fill:#233831;fill-rule:nonzero;stroke-width:0.1;stroke-linecap:butt;stroke-linejoin:miter;-inkscape-stroke:none" d="m 5633.9707,824.90039 a 1.5,1.5 0 0 0 -1.6035,1.38867 c 0,0 -2.0933,29.04807 -3.1445,58.92578 a 1.5,1.5 0 0 0 1.4472,1.55078 1.5,1.5 0 0 0 1.5508,-1.44531 c 1.0487,-29.80622 3.1387,-58.8164 3.1387,-58.8164 a 1.5,1.5 0 0 0 -1.3887,-1.60352 z" id="path2005"></path><path style="color:#233831;clip-rule:nonzero;fill:#233831;fill-rule:nonzero;stroke-width:0.1;stroke-linecap:butt;stroke-linejoin:miter;-inkscape-stroke:none" d="m 5653.0117,824.89648 a 1.5,1.5 0 0 0 -1.4883,1.51172 c 0,0 0.3357,47.6376 -0.8183,70.50977 a 1.5,1.5 0 0 0 1.4219,1.57422 1.5,1.5 0 0 0 1.5742,-1.42188 c 1.166,-23.10978 0.8222,-70.68359 0.8222,-70.68359 a 1.5,1.5 0 0 0 -1.5117,-1.49024 z" id="path2006"></path><path style="color:#233831;clip-rule:nonzero;fill:#233831;fill-rule:nonzero;stroke-width:0.1;stroke-linecap:butt;stroke-linejoin:miter;-inkscape-stroke:none" d="m 5666.2012,824.99023 a 1.5,1.5 0 0 0 -0.8848,1.92774 c 0,0 9.9041,26.72725 12.6797,65.88672 a 1.5,1.5 0 0 0 1.6016,1.38867 1.5,1.5 0 0 0 1.3906,-1.60156 c -2.8044,-39.56646 -12.8594,-66.7168 -12.8594,-66.7168 a 1.5,1.5 0 0 0 -1.9277,-0.88477 z" id="path2007"></path><path style="color:#233831;clip-rule:nonzero;fill:#233831;fill-rule:nonzero;stroke-width:0.1;stroke-linecap:butt;stroke-linejoin:miter;-inkscape-stroke:none" d="m 5677.4004,820.60742 a 1.5,1.5 0 0 0 -0.4492,2.07227 c 0,0 6.4987,10.12051 9.6797,16.46484 a 1.5,1.5 0 0 0 2.0136,0.66797 1.5,1.5 0 0 0 0.668,-2.01367 c -3.339,-6.65966 -9.8379,-16.74219 -9.8379,-16.74219 a 1.5,1.5 0 0 0 -2.0742,-0.44922 z" id="path2008"></path><path style="color:#233831;clip-rule:nonzero;fill:#233831;fill-rule:nonzero;stroke-width:0.1;stroke-linecap:butt;stroke-linejoin:miter;-inkscape-stroke:none" d="m 5704.3242,519.35352 -173.0898,3.26757 a 1.50015,1.50015 0 0 0 -1.4727,1.50977 l 0.3711,50.80078 a 1.5,1.5 0 0 0 1.5098,1.48828 1.5,1.5 0 0 0 1.4902,-1.51172 l -0.3594,-49.3164 170.1465,-3.21094 1.5645,34.2832 a 1.5,1.5 0 0 0 1.5664,1.42969 1.5,1.5 0 0 0 1.4297,-1.56641 l -1.6289,-35.74218 a 1.50015,1.50015 0 0 0 -1.5274,-1.43164 z" id="path2009"></path><path style="color:#233831;clip-rule:nonzero;fill:#233831;fill-rule:nonzero;stroke-width:0.1;stroke-linecap:butt;stroke-linejoin:miter;-inkscape-stroke:none" d="m 5580.2285,544.7168 -29.5801,1.67187 a 1.50015,1.50015 0 0 0 -1.1836,2.30078 l 12.4903,19.72852 a 1.50015,1.50015 0 0 0 0.7422,0.60351 l 30.3886,11.36914 a 1.50015,1.50015 0 0 0 1.1973,-0.0625 c 1.6541,-0.8254 7.0148,-2.52498 11.7324,-3.88476 4.7177,-1.35978 8.9395,-2.47266 8.9395,-2.47266 a 1.50015,1.50015 0 0 0 0.1113,-2.86718 l -19.8457,-6.90821 -13.6953,-18.86328 a 1.50015,1.50015 0 0 0 -1.2969,-0.61523 z m -0.6484,3.04101 13.4883,18.58008 a 1.50015,1.50015 0 0 0 0.7207,0.53516 l 15.75,5.48437 c -1.6397,0.44692 -2.0554,0.54015 -4.3555,1.20313 -4.4486,1.28224 -9.0283,2.6835 -11.5625,3.82812 l -29.4004,-11 -10.8555,-17.14844 z" id="path2010"></path><path style="color:#233831;clip-rule:nonzero;fill:#233831;fill-rule:nonzero;stroke-width:0.1;stroke-linecap:butt;stroke-linejoin:miter;-inkscape-stroke:none" d="m 5594.2383,563.95703 c -12.7294,0.36989 -31.1602,2.16602 -31.1602,2.16602 a 1.5,1.5 0 0 0 -1.3476,1.63867 1.5,1.5 0 0 0 1.6367,1.34765 c 0,0 18.4283,-1.78823 30.959,-2.15234 a 1.5,1.5 0 0 0 1.455,-1.54297 1.5,1.5 0 0 0 -1.5429,-1.45703 z" id="path2011"></path><path style="color:#233831;clip-rule:nonzero;fill:#233831;fill-rule:nonzero;stroke-width:0.1;stroke-linecap:butt;stroke-linejoin:miter;-inkscape-stroke:none" d="m 5590.0957,567.87891 -3.791,1.04101 a 1.5,1.5 0 0 0 -1.0488,1.84375 1.5,1.5 0 0 0 1.8437,1.04883 l 3.7891,-1.03906 a 1.5,1.5 0 0 0 1.0508,-1.84375 1.5,1.5 0 0 0 -1.8438,-1.05078 z" id="path2012"></path><path style="color:#233831;clip-rule:nonzero;fill:#233831;fill-rule:nonzero;stroke-width:0.1;stroke-linecap:butt;stroke-linejoin:miter;-inkscape-stroke:none" d="m 5594.8906,569.69922 -4.9101,1.7832 a 1.5,1.5 0 0 0 -0.8985,1.92188 1.5,1.5 0 0 0 1.9219,0.89843 l 4.9102,-1.7832 a 1.5,1.5 0 0 0 0.8984,-1.92187 1.5,1.5 0 0 0 -1.9219,-0.89844 z" id="path2013"></path><path style="color:#233831;clip-rule:nonzero;fill:#233831;fill-rule:nonzero;stroke-width:0.1;stroke-linecap:butt;stroke-linejoin:miter;-inkscape-stroke:none" d="m 5714.3223,617.29883 c -2.2692,0 -4.1147,1.57358 -5.3028,3.64844 -1.188,2.07485 -1.8554,4.77675 -1.8554,7.74023 0,2.96349 0.6674,5.66342 1.8554,7.73828 1.1881,2.07486 3.0336,3.64844 5.3028,3.64844 2.2692,0 4.1146,-1.57358 5.3027,-3.64844 1.1881,-2.07486 1.8555,-4.77479 1.8555,-7.73828 0,-2.96348 -0.6674,-5.66538 -1.8555,-7.74023 -1.1881,-2.07486 -3.0335,-3.64844 -5.3027,-3.64844 z m 0,2.98633 c 0.86,0 1.8483,0.64 2.7109,2.14648 0.8626,1.50648 1.4629,3.75441 1.4629,6.25586 0,2.50145 -0.6003,4.74743 -1.4629,6.25391 -0.8626,1.50648 -1.8509,2.14648 -2.7109,2.14648 -0.8601,0 -1.8484,-0.64 -2.711,-2.14648 -0.8626,-1.50648 -1.4629,-3.75246 -1.4629,-6.25391 0,-2.50145 0.6003,-4.74938 1.4629,-6.25586 0.8626,-1.50648 1.8509,-2.14648 2.711,-2.14648 z" id="ellipse2013"></path><path style="color:#233831;clip-rule:nonzero;fill:#233831;fill-rule:nonzero;stroke-width:0.1;stroke-linecap:butt;stroke-linejoin:miter;-inkscape-stroke:none" d="m 5758.3516,-437.38867 c -2.547,-3e-5 -4.6669,1.72504 -6.0567,4.07617 -1.3897,2.35113 -2.1836,5.43791 -2.1836,8.82617 0,3.38826 0.7939,6.47504 2.1836,8.82617 1.3898,2.35114 3.5097,4.07621 6.0567,4.07618 2.5469,-4e-5 4.6688,-1.72505 6.0586,-4.07618 1.3897,-2.35112 2.1816,-5.43794 2.1816,-8.82617 0,-3.38822 -0.7919,-6.47505 -2.1816,-8.82617 -1.3898,-2.35112 -3.5117,-4.07614 -6.0586,-4.07617 z m 0,3 c 1.1754,10e-6 2.425,0.82784 3.4746,2.60351 1.0496,1.77568 1.7656,4.3898 1.7656,7.29883 0,2.90903 -0.716,5.52315 -1.7656,7.29883 -1.0496,1.77568 -2.2992,2.6035 -3.4746,2.60352 -1.1754,10e-6 -2.425,-0.82784 -3.4746,-2.60352 -1.0497,-1.77568 -1.7657,-4.38977 -1.7657,-7.29883 0,-2.90906 0.716,-5.52315 1.7657,-7.29883 1.0496,-1.77567 2.2992,-2.60353 3.4746,-2.60351 z" id="ellipse2014" transform="rotate(10.448872)"></path><path style="color:#233831;clip-rule:nonzero;fill:#233831;fill-rule:nonzero;stroke-width:0.1;stroke-linecap:butt;stroke-linejoin:miter;-inkscape-stroke:none" d="m 5727.1367,623.33984 c -1.7914,-0.003 -3.2604,0.13419 -4.4316,0.32227 -2.3424,0.37616 -3.6328,1.03711 -3.6328,1.03711 a 1.5,1.5 0 0 0 -0.6114,2.03125 1.5,1.5 0 0 0 2.0313,0.61133 c 0,0 0.6744,-0.39516 2.6894,-0.71875 2.0151,-0.3236 5.2304,-0.49785 9.8789,0.19531 a 1.5,1.5 0 0 0 1.7051,-1.26172 1.5,1.5 0 0 0 -1.2617,-1.70508 c -2.4607,-0.36692 -4.5757,-0.50904 -6.3672,-0.51172 z" id="path2014"></path><path style="color:#233831;clip-rule:nonzero;fill:#233831;fill-rule:nonzero;stroke-width:0.1;stroke-linecap:butt;stroke-linejoin:miter;-inkscape-stroke:none" d="m 5720.8887,624.31836 a 1.5,1.5 0 0 0 -1.1426,0.10351 1.5,1.5 0 0 0 -0.6328,2.0254 c 0,0 1.726,3.34385 1.5312,7.46679 -0.1947,4.12294 -2.0688,8.94661 -10.1972,12.45703 a 1.5,1.5 0 0 0 -0.7813,1.97071 1.5,1.5 0 0 0 1.9707,0.7832 c 8.9416,-3.86157 11.7681,-10.03726 12.0059,-15.07031 0.2377,-5.03305 -1.8711,-9.00196 -1.8711,-9.00196 a 1.5,1.5 0 0 0 -0.8828,-0.73437 z" id="path2015"></path><path style="color:#233831;clip-rule:nonzero;fill:#233831;fill-rule:nonzero;stroke-width:0.1;stroke-linecap:butt;stroke-linejoin:miter;-inkscape-stroke:none" d="m 5733.3301,658.52344 c -4.4928,3.1574 -8.0144,3.99292 -10.3711,4.10547 -2.3567,0.11254 -3.4043,-0.42969 -3.4043,-0.42969 a 1.5,1.5 0 0 0 -1.9981,0.71289 1.5,1.5 0 0 0 0.7129,1.99805 c 0,0 1.8982,0.85504 4.834,0.71484 2.9358,-0.1402 7.054,-1.20684 11.9512,-4.64844 a 1.5,1.5 0 0 0 0.3652,-2.08984 1.5,1.5 0 0 0 -2.0898,-0.36328 z" id="path2016"></path><path style="color:#233831;clip-rule:nonzero;fill:#233831;fill-rule:nonzero;stroke-width:0.1;stroke-linecap:butt;stroke-linejoin:miter;-inkscape-stroke:none" d="m 5730.2949,556.36133 c -13.4418,-0.28298 -26.2975,3.86957 -35.2578,10.54492 -7.4007,5.5095 -11.5695,13.9019 -11.9141,22.11914 -0.3445,8.21676 3.2442,16.34631 11.2266,20.88867 13.5821,7.72976 28.3399,4.09292 39.4883,-1.33008 9.4332,-4.58862 15.3844,-9.677 17.3281,-11.39453 2.0023,4.85153 5.007,7.99824 8.8711,9.20117 3.6934,1.1498 7.9157,0.60996 12.4785,-0.9375 -2.3818,10.25198 -2.4551,18.96319 -1.6426,24.92774 0.4425,3.24798 1.097,5.68536 1.7832,7.27734 0.3432,0.796 0.578,1.37262 1.2793,1.92188 0.3507,0.27463 1.1172,0.58788 1.836,0.28125 0.7188,-0.30663 0.9437,-0.86125 1.0683,-1.2461 a 1.50015,1.50015 0 0 0 0,-0.004 c 1.4045,-4.37886 4.5205,-5.73402 6.625,-5.93946 0.6381,-0.0621 2.235,0.22852 3.1875,0.94336 0.9525,0.71485 1.5413,1.53052 0.9473,3.60157 -0.6981,2.43301 -3.4158,4.54355 -6.4532,6.01367 -3.0373,1.47012 -6.2048,2.29346 -7.3886,2.59765 v -0.002 c -0.8656,0.22149 -1.6289,0.69761 -2.0723,1.41016 -0.4434,0.71254 -0.4939,1.56776 -0.2949,2.25976 0.398,1.38402 1.6587,2.43484 3.2656,2.40821 11.5297,-0.19373 21.6313,-5.63923 29.3066,-11.77149 7.6754,-6.13226 12.9276,-12.90619 14.9317,-16.32617 a 1.50015,1.50015 0 0 0 0,-0.002 c 12.25,-20.93289 7.342,-42.96887 -5.9024,-50.76367 -12.9783,-7.63684 -24.4837,-7.89791 -32.6738,-6.18165 -6.9393,1.45415 -10.864,3.9517 -12.125,4.80079 -11.1476,-10.48136 -24.7926,-15.02289 -37.9004,-15.29883 z m -0.1855,3.05859 c 12.7732,0.24353 26.1417,4.66001 36.8535,15.14844 a 1.50015,1.50015 0 0 0 1.9453,0.13281 c 0,0 4.4375,-3.31381 12.0273,-4.9043 7.5899,-1.59048 18.1956,-1.43402 30.5372,5.82813 11.3555,6.68318 16.4458,26.82694 4.8359,46.66602 -1.7064,2.91146 -6.8704,9.62862 -14.2168,15.49804 -7.3471,5.86998 -16.8741,10.93696 -27.4844,11.11524 -0.085,10e-4 -0.1298,-0.0748 -0.1972,-0.14063 0.044,-0.0207 -0.019,-0.002 0.094,-0.0312 1.1862,-0.3048 4.574,-1.16911 7.9492,-2.80273 3.3751,-1.63363 6.9273,-4.04378 8.0293,-7.88477 0.8659,-3.01895 -0.3069,-5.53742 -2.0293,-6.83008 -1.7225,-1.29265 -3.7154,-1.68123 -5.2774,-1.52929 -2.6452,0.25751 -5.961,1.97498 -8.0371,5.66211 -0.4499,-1.28034 -0.9516,-2.85333 -1.2949,-5.37305 -0.83,-6.09252 -0.8243,-15.37445 2.1465,-26.44141 a 1.50015,1.50015 0 0 0 -2.0215,-1.77539 c -5.2391,2.15665 -9.6738,2.81585 -13.041,1.76758 -3.3673,-1.04827 -5.9773,-3.73434 -7.7285,-9.2207 a 1.50015,1.50015 0 0 0 -2.4532,-0.64063 c 0,0 -7.5311,7.01996 -18.2226,12.22071 -10.6916,5.20074 -24.2735,8.4891 -36.6914,1.42187 -6.9966,-3.98078 -10.0184,-10.87051 -9.7129,-18.15625 0.3055,-7.28574 4.0478,-14.88041 10.707,-19.83789 8.3298,-6.20563 20.5081,-10.1361 33.2813,-9.89258 z" id="path2017"></path><path d="m 5774.5425,603.144 c -10.82,4.454 -19.08,3.177 -22.77,-8.383 0,0 -30.68,28.646 -56.68,13.849 -14.98,-8.523 -13.22,-30.034 0.84,-40.501 17.29,-12.881 50.07,-16.163 72.08,5.388 0,0 18.9,-14.063 44.22,0.836 12.3,7.239 17.3,28.329 5.37,48.715 -3.71,6.331 -20.83,26.984 -42.97,27.356 -1.75,0.029 -2.88,-2.515 -0.5,-3.124 2.37,-0.609 13.11,-3.375 14.91,-9.649 1.46,-5.09 -3.52,-6.667 -5.72,-6.453 -2.64,0.257 -6.33,2.05 -7.91,6.976 -0.93,2.872 -6.92,-12.472 -0.87,-35.01 z" style="fill:#233831;stroke-width:0.1" id="path2018"></path><path style="color:#233831;clip-rule:nonzero;fill:#233831;fill-rule:nonzero;stroke-width:0.1;stroke-linecap:butt;stroke-linejoin:miter;-inkscape-stroke:none" d="m 5707.4727,640.81055 a 1.5,1.5 0 0 0 -1.67,1.30859 c 0,0 -0.6622,5.44105 -0.4043,11.91406 0.018,0.44328 0.076,0.91674 0.1016,1.36914 -1.2719,3.32268 -1.7002,7.94311 -1.5801,12.70508 0.1244,4.92924 0.8219,9.86255 2.0742,13.28906 a 1.50015,1.50015 0 0 0 0,0.002 c 5.0714,13.84168 13.4561,19.23142 21.002,20.65039 7.5459,1.41896 14.1258,-0.92058 16.1523,-1.72852 13.4073,-5.33946 21.8627,-12.94078 27.0411,-19.61328 5.1783,-6.6725 7.0765,-12.33114 7.5273,-14.11133 a 1.50015,1.50015 0 0 0 0,-0.002 c 1.3504,-5.36458 1.3294,-9.92409 0.8867,-13.00781 -0.2213,-1.54187 -0.5232,-2.68732 -0.916,-3.5293 -0.1964,-0.42099 -0.2289,-0.82619 -1.0781,-1.25 -0.4246,-0.21191 -1.3207,-0.17469 -1.7696,0.18945 -0.4488,0.36415 -0.5374,0.70604 -0.6113,0.96875 a 1.50015,1.50015 0 0 0 0,0.002 c -2.535,9.04923 -5.4723,14.35337 -8.3555,17.59375 -2.8831,3.24037 -5.7034,4.49103 -8.4511,5.42187 -15.4923,5.25016 -25.6949,5.64521 -32.4199,4.27344 -6.7251,-1.37177 -10.0314,-4.43584 -11.9844,-6.60547 -3.0971,-3.44418 -4.374,-10.5341 -4.6211,-16.73633 -0.2471,-6.20222 0.3847,-11.43359 0.3847,-11.43359 a 1.5,1.5 0 0 0 -1.3085,-1.66992 z m 68.2089,14.41797 c 0.2536,2.67104 0.2266,6.2643 -0.873,10.63281 -0.3197,1.26211 -2.1025,6.71223 -6.9883,13.00781 -4.8867,6.29674 -12.8805,13.52553 -25.7832,18.66406 -1.7735,0.70706 -7.8547,2.81344 -14.4863,1.56641 -6.6313,-1.24698 -13.9416,-5.63654 -18.7403,-18.73242 v -0.002 c -1.0473,-2.86664 -1.7744,-7.65076 -1.8925,-12.33398 -0.025,-0.98426 0.091,-1.87276 0.1211,-2.83594 0.8109,2.82068 1.9457,5.45661 3.748,7.46094 2.167,2.40737 6.2003,6.02658 13.6152,7.53906 7.415,1.51248 18.1548,0.99274 33.9825,-4.37109 2.9523,-1.00016 6.4411,-2.57267 9.7304,-6.26953 2.713,-3.04905 5.2774,-7.62536 7.5664,-14.32617 z" id="path2019"></path><path d="m 5706.9825,655.572 c 0.37,5.936 1.62,12.41 4.92,16.081 4.12,4.577 14.68,13.364 46,2.75 5.7,-1.931 12.62,-5.648 17.77,-24.032 0.47,-1.672 3.19,5.528 0.59,15.857 -0.77,3.041 -7.36,22.22 -33.67,32.698 -3.8,1.515 -25.32,8.895 -35.19,-18.044 -2.3,-6.293 -2.85,-19.436 -0.42,-25.31 z" style="fill:#233831;stroke-width:0.1" id="path2020"></path><path style="color:#233831;clip-rule:nonzero;fill:#233831;fill-rule:nonzero;stroke-width:0.1;stroke-linecap:butt;stroke-linejoin:miter;-inkscape-stroke:none" d="m 5771.0117,675.51562 a 1.5,1.5 0 0 0 -1.5,1.5 c 0,0 8e-4,3.17329 0.7227,7.17579 0.7219,4.0025 2.1291,8.91328 5.2129,12.55859 a 1.5,1.5 0 0 0 2.1132,0.17773 1.5,1.5 0 0 0 0.1778,-2.11523 c -2.4962,-2.95068 -3.8796,-7.42231 -4.5528,-11.1543 -0.6731,-3.73199 -0.6738,-6.64257 -0.6738,-6.64258 a 1.5,1.5 0 0 0 -1.5,-1.5 z" id="path2021"></path><path style="color:#233831;clip-rule:nonzero;fill:#233831;fill-rule:nonzero;stroke-width:0.1;stroke-linecap:butt;stroke-linejoin:miter;-inkscape-stroke:none" d="m 5726.9453,725.81445 c 0,0 -6.324,6.23115 -12.7031,21.55664 -6.3791,15.32549 -12.9493,39.87174 -13.8985,76.89844 a 1.5,1.5 0 0 0 1.461,1.53711 1.5,1.5 0 0 0 1.5371,-1.46094 c 0.9409,-36.70622 7.4466,-60.87103 13.6699,-75.82226 6.2234,-14.95123 12.0293,-20.5625 12.0293,-20.5625 a 1.5,1.5 0 0 0 0.025,-2.1211 1.5,1.5 0 0 0 -2.1211,-0.0254 z" id="path2022"></path><path style="color:#233831;clip-rule:nonzero;fill:#233831;fill-rule:nonzero;stroke-width:0.1;stroke-linecap:butt;stroke-linejoin:miter;-inkscape-stroke:none" d="m 5793.9082,745.6875 a 1.5,1.5 0 0 0 -1.7969,1.12695 c 0,0 -5.4606,23.85133 -8.9453,77.39453 a 1.5,1.5 0 0 0 1.3985,1.59571 1.5,1.5 0 0 0 1.5957,-1.40039 c 3.4752,-53.39869 8.875,-76.91992 8.875,-76.91993 a 1.5,1.5 0 0 0 -1.127,-1.79687 z" id="path2023"></path><path style="color:#233831;clip-rule:nonzero;fill:#233831;fill-rule:nonzero;stroke-width:0.1;stroke-linecap:butt;stroke-linejoin:miter;-inkscape-stroke:none" d="m 5785.041,747.14844 a 1.5,1.5 0 0 0 -1.8301,1.07226 1.5,1.5 0 0 0 1.0723,1.83008 c 0,0 1.3362,0.35028 2.8848,1.10352 1.5486,0.75324 3.1803,1.92817 3.8047,3.16797 a 1.5,1.5 0 0 0 2.0136,0.66601 1.5,1.5 0 0 0 0.666,-2.01562 c -1.1456,-2.2752 -3.3379,-3.62362 -5.1718,-4.51563 -1.8339,-0.89201 -3.4395,-1.30859 -3.4395,-1.30859 z" id="path2024"></path><path style="color:#233831;clip-rule:nonzero;fill:#233831;fill-rule:nonzero;stroke-width:0.1;stroke-linecap:butt;stroke-linejoin:miter;-inkscape-stroke:none" d="m 5787.5273,700.46484 c -26.4316,1.69537 -39.1248,6.76253 -45.3613,11.72266 -1.4766,1.17439 -2.5331,2.34068 -3.3594,3.45508 0.092,-1.31651 0.1825,-2.65746 0.4336,-3.91211 0.6874,-3.43389 1.6895,-6.16016 1.6895,-6.16016 a 1.50015,1.50015 0 0 0 -2.1524,-1.82031 c -6.7624,3.87583 -10.3333,8.29843 -12.1699,11.79687 -1.8366,3.49845 -1.9551,6.22071 -1.9551,6.22071 a 1.50015,1.50015 0 0 0 2.7188,0.92578 c 1.3226,-1.83983 2.3475,-2.28817 3.1504,-2.32617 0.8028,-0.038 1.699,0.39573 2.5957,1.19531 1.7934,1.59916 3.1484,4.34375 3.1484,4.34375 a 1.50015,1.50015 0 0 0 2.5977,0.20312 c 2.4253,-3.56492 4.3889,-5.43375 5.9219,-6.29687 1.5329,-0.86312 2.6233,-0.86125 3.9355,-0.55469 2.6245,0.61312 6.0235,3.19465 10.7891,1.99219 13.2593,-3.34475 21.0717,-7.91667 25.3906,-11.77344 2.1594,-1.92838 3.4453,-3.65503 4.1074,-5.07226 0.3311,-0.70862 0.5406,-1.31513 0.5059,-2.05274 -0.017,-0.3688 -0.1035,-0.82493 -0.4707,-1.25586 -0.3673,-0.43092 -1.0331,-0.66175 -1.5157,-0.63086 z m -1.5703,3.18164 c -0.5163,0.90162 -1.4122,2.12707 -3.0547,3.59375 -3.8535,3.44123 -11.2263,7.84732 -24.1269,11.10157 -3.4144,0.86154 -5.78,-1.16453 -9.3731,-2.00391 -1.7965,-0.41969 -3.9293,-0.35511 -6.0898,0.86133 -1.156,0.65085 -2.3351,1.65811 -3.5645,2.9707 0.029,-0.0976 -0.01,-0.0474 0.025,-0.1543 0.4556,-1.35845 1.5356,-3.31378 4.2598,-5.48046 5.3079,-4.22158 17.1869,-9.08932 41.9238,-10.88868 z m -48.9336,4.85743 c -0.3126,1.09039 -0.4302,1.16609 -0.7246,2.63671 -0.5645,2.82059 -0.984,6.09977 -0.4531,9.07227 -0.2799,-0.30278 -0.4173,-0.60963 -0.7324,-0.89062 -1.2283,-1.0953 -2.8297,-2.04133 -4.7344,-1.95118 -0.4997,0.0237 -0.9847,0.32902 -1.4785,0.50391 0.1564,-0.35245 0.1578,-0.54227 0.3633,-0.93359 1.2725,-2.42394 3.6341,-5.45857 7.7597,-8.4375 z" id="path2025"></path><path style="color:#233831;clip-rule:nonzero;fill:#233831;fill-rule:nonzero;stroke-width:0.1;stroke-linecap:butt;stroke-linejoin:miter;-inkscape-stroke:none" d="m 5738.0293,723.82227 a 1.5,1.5 0 0 0 -1.8496,1.03515 c 0,0 -18.749,66.16181 -19.4473,104.70703 a 1.5,1.5 0 0 0 1.4727,1.52539 1.5,1.5 0 0 0 1.5273,-1.4707 c 0.6817,-37.6267 19.334,-103.94726 19.334,-103.94727 a 1.5,1.5 0 0 0 -1.0371,-1.8496 z" id="path2026"></path><path id="ellipse2026" style="fill:#233831;stroke-width:0.1" transform="matrix(0.94445011,0.32865483,-0.32865378,0.94445047,0,0)" d="m 5667.7981,-1192.1875 a 2.4669998,3.6260023 0 0 1 -2.467,3.626 2.4669998,3.6260023 0 0 1 -2.467,-3.626 2.4669998,3.6260023 0 0 1 2.467,-3.626 2.4669998,3.6260023 0 0 1 2.467,3.626 z"></path><path id="ellipse2027" style="fill:#233831;stroke-width:0.1" transform="matrix(0.94445011,0.32865483,-0.32865378,0.94445047,0,0)" d="m 5669.9499,-1167.1914 a 2.4669998,3.6260023 0 0 1 -2.467,3.626 2.4669998,3.6260023 0 0 1 -2.467,-3.626 2.4669998,3.6260023 0 0 1 2.467,-3.626 2.4669998,3.6260023 0 0 1 2.467,3.626 z"></path><path id="ellipse2028" style="fill:#233831;stroke-width:0.1" transform="rotate(14.803627)" d="m 5745.4987,-702.83502 a 2.467,3.6259999 0 0 1 -2.467,3.626 2.467,3.6259999 0 0 1 -2.467,-3.626 2.467,3.6259999 0 0 1 2.467,-3.626 2.467,3.6259999 0 0 1 2.467,3.626 z"></path><path id="ellipse2029" style="fill:#233831;stroke-width:0.1" transform="rotate(4.9637642)" d="m 5781.0358,317.4996 a 2.467,3.6259999 0 0 1 -2.467,3.626 2.467,3.6259999 0 0 1 -2.467,-3.626 2.467,3.6259999 0 0 1 2.467,-3.626 2.467,3.6259999 0 0 1 2.467,3.626 z"></path><path style="color:#233831;clip-rule:nonzero;fill:#233831;fill-rule:nonzero;stroke-width:0.1;stroke-linecap:butt;stroke-linejoin:miter;-inkscape-stroke:none" d="m 5791.7031,706.2793 a 1.5,1.5 0 0 0 -1.832,1.07031 1.5,1.5 0 0 0 1.0703,1.83203 c 0,0 6.4994,1.68895 14.5918,7.83789 8.0924,6.14894 17.6566,16.69607 23.4746,34.46484 2.2419,6.84687 10.1921,31.74543 13.0117,61.11719 2.8196,29.37176 0.4555,63.1102 -17.5664,87.69531 a 1.5,1.5 0 0 0 0.3223,2.09571 1.5,1.5 0 0 0 2.0976,-0.32227 c 18.7181,-25.53483 20.9883,-60.00898 18.1329,-89.7539 -2.8554,-29.74493 -10.8904,-54.86951 -13.1485,-61.76563 -6.012,-18.36118 -16.0027,-29.45738 -24.5078,-35.91992 -8.5051,-6.46255 -15.6465,-8.35156 -15.6465,-8.35156 z" id="path2029"></path><path style="color:#233831;clip-rule:nonzero;fill:#233831;fill-rule:nonzero;stroke-width:0.1;stroke-linecap:butt;stroke-linejoin:miter;-inkscape-stroke:none" d="m 5756.1406,552.01172 a 1.5,1.5 0 0 0 -2.0312,0.61523 1.5,1.5 0 0 0 0.6152,2.0293 c 0,0 12.8629,6.78161 11.1875,21.4707 h 0.01 c -4e-4,0.007 -0.016,0.1211 -0.016,0.1211 a 1.50015,1.50015 0 0 0 2.9903,0.21875 c 0,-0.0432 0,-0.0781 0,-0.1211 h 0.01 c 0,0 0.1995,-8.30993 8.6758,-13.80273 a 1.5,1.5 0 0 0 0.4434,-2.07422 1.5,1.5 0 0 0 -2.0742,-0.44336 c -3.9544,2.56251 -6.103,5.6844 -7.5586,8.55469 -2.4641,-11.1035 -12.2481,-16.56836 -12.2481,-16.56836 z" id="path2030"></path><path d="m 5688.0025,920 c 0,0 3.83,-64.691 4.57,-70.357 0.74,-5.667 3.07,-8.918 16.26,-8.639 13.19,0.279 80.53,-0.372 85.92,-0.279 5.39,0.093 8.27,2.601 7.62,17.557 -0.12,2.79 -4.36,51.58 -5.96,61.718 z m 61.49,-49.2 c 0.23,-1.201 0.61,-2.486 1.26,-3.499 0.45,-0.697 0.24,-1.626 -0.46,-2.071 -0.69,-0.446 -1.62,-0.242 -2.07,0.456 -0.38,0.59 -0.68,1.256 -0.94,1.949 -1.42,-2.216 -3.15,-3.614 -3.15,-3.614 -0.64,-0.522 -1.59,-0.426 -2.11,0.216 -0.52,0.642 -0.42,1.588 0.22,2.111 0,0 1.62,1.33 2.81,3.381 0.18,0.309 0.35,0.635 0.5,0.976 -6.03,-5.518 -9.79,1.565 -10.17,3.423 -0.86,4.138 1.52,10.806 3.99,12.651 5.42,4.043 9.13,0.238 9.13,0.238 7.14,2.33 9.28,-5.786 9.71,-7.42 1.09,-4.185 -0.81,-9.607 -4.47,-10.225 -1.74,-0.292 -3.19,0.505 -4.25,1.428 z" style="fill:#233831;stroke-width:0.1" id="path2031"></path><path style="color:#233831;clip-rule:nonzero;fill:#233831;fill-rule:nonzero;stroke-width:0.1;stroke-linecap:butt;stroke-linejoin:miter;-inkscape-stroke:none" d="m 5681.9609,907.79297 c -2.5772,-0.0299 -5.255,-0.0374 -7.5039,0.008 -2.2488,0.0452 -3.9381,0.0953 -5.0859,0.35547 -1.4016,0.31726 -2.3416,1.54292 -2.6543,2.80469 -0.3127,1.26176 -0.1728,2.65891 0.3477,4.05273 1.0409,2.78764 3.7503,5.57922 8.1757,6.45703 a 1.5,1.5 0 0 0 1.7637,-1.17968 1.5,1.5 0 0 0 -1.1797,-1.76172 c -3.4845,-0.69119 -5.2652,-2.7326 -5.9492,-4.56446 -0.342,-0.91593 -0.3715,-1.77508 -0.2461,-2.28125 0.1254,-0.50617 0.2309,-0.56232 0.4043,-0.60156 0.4271,-0.0968 2.2904,-0.23718 4.4844,-0.28125 2.1939,-0.0441 4.8492,-0.0375 7.4082,-0.008 5.118,0.0593 9.8496,0.20703 9.8496,0.20703 a 1.5,1.5 0 0 0 1.5469,-1.45117 1.5,1.5 0 0 0 -1.4532,-1.54688 c 0,0 -4.7537,-0.14927 -9.9082,-0.20898 z" id="path2032"></path><path d="m 5464.8725,920 c 0,0 -11.68,-75.197 -12.33,-82.034 -0.66,-6.836 5.17,-7.847 11.95,-7.966 6.77,-0.119 106.75,-3.515 112.75,-3.812 6.01,-0.297 10.82,1.427 11.72,12.128 0.37,4.424 9.37,76.712 10.15,81.684 z m 57.45,-53.152 c 0.01,-0.431 0.03,-0.882 0.08,-1.336 0.14,-1.342 0.43,-2.744 1.26,-3.606 0.57,-0.598 0.55,-1.549 -0.05,-2.121 -0.6,-0.573 -1.55,-0.552 -2.12,0.046 -0.53,0.555 -0.95,1.248 -1.27,2.017 -1.69,-3.143 -3.7,-5.038 -3.7,-5.038 -0.6,-0.569 -1.55,-0.541 -2.12,0.061 -0.56,0.602 -0.54,1.552 0.07,2.12 0,0 2.9,2.737 4.3,6.988 -5.14,-3.363 -9.44,-0.287 -10.2,0.33 -4.22,3.424 -2.64,10.928 -0.66,13.362 8.62,10.582 14.03,4.875 14.03,4.875 9.1,4.994 12.2,-4.338 12.55,-5.469 1.07,-3.449 1.81,-12.442 -4.24,-14.154 -3.98,-1.127 -6.61,0.607 -7.93,1.925 z" style="fill:#233831;stroke-width:0.1" id="path2033"></path><path style="color:#233831;clip-rule:nonzero;fill:#233831;fill-rule:nonzero;stroke-width:0.1;stroke-linecap:butt;stroke-linejoin:miter;-inkscape-stroke:none" d="m 5650.543,909.38281 c -2.6257,0 -58.3145,0.14258 -58.3145,0.14258 a 1.5,1.5 0 0 0 -1.4961,1.50391 1.5,1.5 0 0 0 1.5039,1.49609 c 0,0 55.7923,-0.14258 58.3067,-0.14258 0.4301,0 0.9279,0.1973 0.8086,1.08789 -0.1193,0.89059 -1.3333,2.94724 -5.6875,5.19727 a 1.5,1.5 0 0 0 -0.6446,2.02148 1.5,1.5 0 0 0 2.0215,0.64258 c 4.7857,-2.47297 6.952,-4.97573 7.2852,-7.46289 0.3332,-2.48716 -1.6434,-4.48633 -3.7832,-4.48633 z" id="path2034"></path><path style="color:#233831;clip-rule:nonzero;fill:#233831;fill-rule:nonzero;stroke-width:0.1;stroke-linecap:butt;stroke-linejoin:miter;-inkscape-stroke:none" d="m 5504.0312,711.31641 a 1.5,1.5 0 0 0 -1.5078,1.49023 1.5,1.5 0 0 0 1.4903,1.50977 c 0,0 1.4251,-0.0168 4.1484,1.00586 2.7233,1.02269 6.5979,3.08205 11.0449,7.27734 8.8942,8.39058 20.0898,25.37072 28.5586,59.62891 a 1.5,1.5 0 0 0 1.8164,1.0957 1.5,1.5 0 0 0 1.0957,-1.81445 c -8.5611,-34.63175 -19.9637,-52.1784 -29.4121,-61.0918 -4.7241,-4.4567 -8.958,-6.74362 -12.0488,-7.9043 -3.0908,-1.16068 -5.1856,-1.19726 -5.1856,-1.19726 z" id="path2035"></path><path style="color:#233831;clip-rule:nonzero;fill:#233831;fill-rule:nonzero;stroke-width:0.1;stroke-linecap:butt;stroke-linejoin:miter;-inkscape-stroke:none" d="m 5615.0918,798.98047 a 1.5,1.5 0 0 0 -1.6777,1.29883 c 0,0 -0.9877,6.84688 0.3515,11.70117 a 1.5,1.5 0 0 0 1.8457,1.04687 1.5,1.5 0 0 0 1.0469,-1.84375 c -1.0207,-3.6997 -0.2676,-10.52539 -0.2676,-10.52539 a 1.5,1.5 0 0 0 -1.2988,-1.67773 z" id="path2036"></path><path style="color:#233831;clip-rule:nonzero;fill:#233831;fill-rule:nonzero;stroke-width:0.1;stroke-linecap:butt;stroke-linejoin:miter;-inkscape-stroke:none" d="m 5686.0996,795.8418 a 1.5,1.5 0 0 0 -1.3164,1.66406 c 0,0 0.4558,4.27304 0.2852,6.30664 a 1.5,1.5 0 0 0 1.3691,1.62109 1.5,1.5 0 0 0 1.6191,-1.37109 c 0.2294,-2.7344 -0.2949,-6.9043 -0.2949,-6.9043 a 1.5,1.5 0 0 0 -1.6621,-1.3164 z" id="path2037"></path><path style="color:#233831;clip-rule:nonzero;fill:#233831;fill-rule:nonzero;stroke-width:0.1;stroke-linecap:butt;stroke-linejoin:miter;-inkscape-stroke:none" d="m 5547.7031,606.85156 a 1.5,1.5 0 0 0 -1.5,1.5 1.5,1.5 0 0 0 1.5,1.5 h 52.2188 a 1.5,1.5 0 0 0 1.5,-1.5 1.5,1.5 0 0 0 -1.5,-1.5 z" id="path2038"></path><path style="color:#233831;clip-rule:nonzero;fill:#233831;fill-rule:nonzero;stroke-width:0.1;stroke-linecap:butt;stroke-linejoin:miter;-inkscape-stroke:none" d="m 5650.2227,606.85156 a 1.5,1.5 0 0 0 -1.5,1.5 1.5,1.5 0 0 0 1.5,1.5 h 32.8691 a 1.5,1.5 0 0 0 1.5,-1.5 1.5,1.5 0 0 0 -1.5,-1.5 z" id="path2039"></path><path style="color:#233831;clip-rule:nonzero;fill:#233831;fill-rule:nonzero;stroke-width:0.1;stroke-linecap:butt;stroke-linejoin:miter;-inkscape-stroke:none" d="m 5621.0527,541.07227 a 1.5,1.5 0 0 0 -1.5,1.5 1.5,1.5 0 0 0 1.5,1.5 h 48.4395 a 1.5,1.5 0 0 0 1.5,-1.5 1.5,1.5 0 0 0 -1.5,-1.5 z" id="path2040"></path><path style="color:#233831;clip-rule:nonzero;fill:#233831;fill-rule:nonzero;stroke-width:0.1;stroke-linecap:butt;stroke-linejoin:miter;-inkscape-stroke:none" d="m 5621.0527,553.0332 a 1.5,1.5 0 0 0 -1.5,1.5 1.5,1.5 0 0 0 1.5,1.5 h 8.7696 a 1.5,1.5 0 0 0 1.5,-1.5 1.5,1.5 0 0 0 -1.5,-1.5 z" id="path2041"></path><path style="color:#233831;clip-rule:nonzero;fill:#233831;fill-rule:nonzero;stroke-width:0.1;stroke-linecap:butt;stroke-linejoin:miter;-inkscape-stroke:none" d="m 5642.9824,553.0332 a 1.5,1.5 0 0 0 -1.5,1.5 1.5,1.5 0 0 0 1.5,1.5 h 35.0801 a 1.5,1.5 0 0 0 1.5,-1.5 1.5,1.5 0 0 0 -1.5,-1.5 z" id="path2042"></path><path style="color:#233831;clip-rule:nonzero;fill:#233831;fill-rule:nonzero;stroke-width:0.1;stroke-linecap:butt;stroke-linejoin:miter;-inkscape-stroke:none" d="m 5621.0527,564.99219 a 1.5,1.5 0 0 0 -1.5,1.5 1.5,1.5 0 0 0 1.5,1.5 h 48.4395 a 1.5,1.5 0 0 0 1.5,-1.5 1.5,1.5 0 0 0 -1.5,-1.5 z" id="path2043"></path><path style="color:#233831;clip-rule:nonzero;fill:#233831;fill-rule:nonzero;stroke-width:0.1;stroke-linecap:butt;stroke-linejoin:miter;-inkscape-stroke:none" d="m 5625.4434,580.53906 a 1.5,1.5 0 0 0 -1.5,1.5 1.5,1.5 0 0 0 1.5,1.5 h 17.539 a 1.5,1.5 0 0 0 1.5,-1.5 1.5,1.5 0 0 0 -1.5,-1.5 z" id="path2044"></path><path style="color:#233831;clip-rule:nonzero;fill:#233831;fill-rule:nonzero;stroke-width:0.1;stroke-linecap:butt;stroke-linejoin:miter;-inkscape-stroke:none" d="m 5660.5234,580.53906 a 1.5,1.5 0 0 0 -1.5,1.5 1.5,1.5 0 0 0 1.5,1.5 h 17.5391 a 1.5,1.5 0 0 0 1.5,-1.5 1.5,1.5 0 0 0 -1.5,-1.5 z" id="path2045"></path><path style="color:#233831;clip-rule:nonzero;fill:#233831;fill-rule:nonzero;stroke-width:0.1;stroke-linecap:butt;stroke-linejoin:miter;-inkscape-stroke:none" d="m 5552.0918,586.71875 a 1.5,1.5 0 0 0 -1.5,1.5 1.5,1.5 0 0 0 1.5,1.5 h 63.7812 a 1.5,1.5 0 0 0 1.5,-1.5 1.5,1.5 0 0 0 -1.5,-1.5 z" id="path2046"></path></g></svg>